# MagicaVoxel @ Ephtracy

# group
g StoneBrickHalf

# material
mtllib StoneBrickHalf.mtl
usemtl palette

# normals
vn -1 0 0
vn 1 0 0
vn 0 0 1
vn 0 0 -1
vn 0 -1 0
vn 0 1 0

# texcoords
vt 0.697266 0.5
vt 0.701172 0.5
vt 0.705078 0.5
vt 0.708984 0.5

# verts
v -7.5 0 7.5
v -7.5 0 -7.5
v -7.5 1 6.5
v -7.5 1 5.5
v -7.5 1 -0.5
v -7.5 1 -1.5
v -7.5 1 -3.5
v -7.5 1 -4.5
v -7.5 1 -7.5
v -7.5 2 -0.5
v -7.5 2 -1.5
v -7.5 2 -2.5
v -7.5 2 -3.5
v -7.5 2 -4.5
v -7.5 2 -5.5
v -7.5 2 -6.5
v -7.5 2 -7.5
v -7.5 3 6.5
v -7.5 3 5.5
v -7.5 3 -2.5
v -7.5 3 -5.5
v -7.5 4 5.5
v -7.5 4 3.5
v -7.5 4 2.5
v -7.5 4 0.5
v -7.5 4 -0.5
v -7.5 4 -1.5
v -7.5 4 -4.5
v -7.5 4 -6.5
v -7.5 4 -7.5
v -7.5 5 5.5
v -7.5 5 4.5
v -7.5 5 3.5
v -7.5 5 2.5
v -7.5 5 1.5
v -7.5 5 -1.5
v -7.5 5 -4.5
v -7.5 5 -5.5
v -7.5 5 -6.5
v -7.5 6 4.5
v -7.5 6 2.5
v -7.5 6 1.5
v -7.5 6 0.5
v -7.5 6 -0.5
v -7.5 6 -1.5
v -7.5 6 -2.5
v -7.5 6 -3.5
v -7.5 6 -5.5
v -7.5 7 6.5
v -7.5 7 0.5
v -7.5 7 -1.5
v -7.5 7 -2.5
v -7.5 7 -3.5
v -7.5 7 -7.5
v -7.5 8 7.5
v -7.5 8 -7.5
v 7.5 0 7.5
v 7.5 0 -7.5
v 7.5 1 7.5
v 7.5 1 6.5
v 7.5 1 5.5
v 7.5 1 -0.5
v 7.5 1 -1.5
v 7.5 1 -3.5
v 7.5 1 -4.5
v 7.5 1 -6.5
v 7.5 2 7.5
v 7.5 2 6.5
v 7.5 2 -0.5
v 7.5 2 -1.5
v 7.5 2 -2.5
v 7.5 2 -3.5
v 7.5 2 -4.5
v 7.5 2 -5.5
v 7.5 3 6.5
v 7.5 3 5.5
v 7.5 3 -2.5
v 7.5 3 -5.5
v 7.5 4 7.5
v 7.5 4 6.5
v 7.5 4 5.5
v 7.5 4 3.5
v 7.5 4 2.5
v 7.5 4 0.5
v 7.5 4 -0.5
v 7.5 4 -1.5
v 7.5 4 -4.5
v 7.5 4 -6.5
v 7.5 5 5.5
v 7.5 5 4.5
v 7.5 5 3.5
v 7.5 5 2.5
v 7.5 5 1.5
v 7.5 5 -1.5
v 7.5 5 -4.5
v 7.5 5 -5.5
v 7.5 5 -6.5
v 7.5 6 4.5
v 7.5 6 2.5
v 7.5 6 1.5
v 7.5 6 0.5
v 7.5 6 -0.5
v 7.5 6 -1.5
v 7.5 6 -2.5
v 7.5 6 -3.5
v 7.5 6 -5.5
v 7.5 7 7.5
v 7.5 7 0.5
v 7.5 7 -1.5
v 7.5 7 -2.5
v 7.5 7 -3.5
v 7.5 7 -6.5
v 7.5 8 7.5
v 7.5 8 -7.5
v -7.5 0 7.5
v -7.5 8 7.5
v -6.5 1 7.5
v -6.5 3 7.5
v -6.5 7 7.5
v -5.5 1 7.5
v -5.5 3 7.5
v -5.5 4 7.5
v -5.5 5 7.5
v -4.5 5 7.5
v -4.5 6 7.5
v -3.5 4 7.5
v -3.5 5 7.5
v -2.5 4 7.5
v -2.5 5 7.5
v -2.5 6 7.5
v -1.5 5 7.5
v -1.5 6 7.5
v -0.5 4 7.5
v -0.5 6 7.5
v -0.5 7 7.5
v 0.5 1 7.5
v 0.5 2 7.5
v 0.5 4 7.5
v 0.5 6 7.5
v 1.5 1 7.5
v 1.5 2 7.5
v 1.5 4 7.5
v 1.5 5 7.5
v 1.5 6 7.5
v 1.5 7 7.5
v 2.5 2 7.5
v 2.5 3 7.5
v 2.5 6 7.5
v 2.5 7 7.5
v 3.5 1 7.5
v 3.5 2 7.5
v 3.5 6 7.5
v 3.5 7 7.5
v 4.5 1 7.5
v 4.5 2 7.5
v 4.5 4 7.5
v 4.5 5 7.5
v 5.5 2 7.5
v 5.5 3 7.5
v 5.5 5 7.5
v 5.5 6 7.5
v 6.5 2 7.5
v 6.5 4 7.5
v 6.5 5 7.5
v 7.5 0 7.5
v 7.5 1 7.5
v 7.5 2 7.5
v 7.5 4 7.5
v 7.5 7 7.5
v 7.5 8 7.5
v -7.5 0 -7.5
v -7.5 1 -7.5
v -7.5 2 -7.5
v -7.5 4 -7.5
v -7.5 7 -7.5
v -7.5 8 -7.5
v -6.5 2 -7.5
v -6.5 4 -7.5
v -6.5 5 -7.5
v -5.5 2 -7.5
v -5.5 3 -7.5
v -5.5 5 -7.5
v -5.5 6 -7.5
v -4.5 1 -7.5
v -4.5 2 -7.5
v -4.5 4 -7.5
v -4.5 5 -7.5
v -3.5 1 -7.5
v -3.5 2 -7.5
v -3.5 6 -7.5
v -3.5 7 -7.5
v -2.5 2 -7.5
v -2.5 3 -7.5
v -2.5 6 -7.5
v -2.5 7 -7.5
v -1.5 1 -7.5
v -1.5 2 -7.5
v -1.5 4 -7.5
v -1.5 5 -7.5
v -1.5 6 -7.5
v -1.5 7 -7.5
v -0.5 1 -7.5
v -0.5 2 -7.5
v -0.5 4 -7.5
v -0.5 6 -7.5
v 0.5 4 -7.5
v 0.5 6 -7.5
v 0.5 7 -7.5
v 1.5 5 -7.5
v 1.5 6 -7.5
v 2.5 4 -7.5
v 2.5 5 -7.5
v 2.5 6 -7.5
v 3.5 4 -7.5
v 3.5 5 -7.5
v 4.5 5 -7.5
v 4.5 6 -7.5
v 5.5 1 -7.5
v 5.5 3 -7.5
v 5.5 4 -7.5
v 5.5 5 -7.5
v 6.5 1 -7.5
v 6.5 3 -7.5
v 6.5 7 -7.5
v 7.5 0 -7.5
v 7.5 8 -7.5
v -7.5 0 7.5
v 7.5 0 7.5
v -6.5 0 6.5
v 6.5 0 6.5
v -6.5 0 -6.5
v 6.5 0 -6.5
v -7.5 0 -7.5
v 7.5 0 -7.5
v -7.5 8 7.5
v 7.5 8 7.5
v -6.5 8 6.5
v -5.5 8 6.5
v -4.5 8 6.5
v -3.5 8 6.5
v -2.5 8 6.5
v -0.5 8 6.5
v 0.5 8 6.5
v 3.5 8 6.5
v 4.5 8 6.5
v 5.5 8 6.5
v 6.5 8 6.5
v -6.5 8 5.5
v -5.5 8 5.5
v -4.5 8 5.5
v -3.5 8 5.5
v -2.5 8 5.5
v -1.5 8 5.5
v 0.5 8 5.5
v 3.5 8 5.5
v 4.5 8 5.5
v 5.5 8 5.5
v 6.5 8 5.5
v -5.5 8 4.5
v -4.5 8 4.5
v -3.5 8 4.5
v -2.5 8 4.5
v -1.5 8 4.5
v -0.5 8 4.5
v 3.5 8 4.5
v 4.5 8 4.5
v 5.5 8 4.5
v -5.5 8 3.5
v -4.5 8 3.5
v -3.5 8 3.5
v -2.5 8 3.5
v -1.5 8 3.5
v 0.5 8 3.5
v 1.5 8 3.5
v 2.5 8 3.5
v 3.5 8 3.5
v -6.5 8 2.5
v -5.5 8 2.5
v -4.5 8 2.5
v -3.5 8 2.5
v -2.5 8 2.5
v -1.5 8 2.5
v -0.5 8 2.5
v 0.5 8 2.5
v 1.5 8 2.5
v 2.5 8 2.5
v 3.5 8 2.5
v 4.5 8 2.5
v 5.5 8 2.5
v -5.5 8 1.5
v -3.5 8 1.5
v -1.5 8 1.5
v -0.5 8 1.5
v 0.5 8 1.5
v 1.5 8 1.5
v 3.5 8 1.5
v 5.5 8 1.5
v -6.5 8 0.5
v -0.5 8 0.5
v 0.5 8 0.5
v 1.5 8 0.5
v 2.5 8 0.5
v 6.5 8 0.5
v -6.5 8 -0.5
v -3.5 8 -0.5
v -1.5 8 -0.5
v 0.5 8 -0.5
v 2.5 8 -0.5
v 3.5 8 -0.5
v 5.5 8 -0.5
v 6.5 8 -0.5
v -5.5 8 -1.5
v -3.5 8 -1.5
v -2.5 8 -1.5
v -1.5 8 -1.5
v 0.5 8 -1.5
v 2.5 8 -1.5
v 3.5 8 -1.5
v -6.5 8 -2.5
v -5.5 8 -2.5
v 2.5 8 -2.5
v 4.5 8 -2.5
v 5.5 8 -2.5
v 6.5 8 -2.5
v -5.5 8 -3.5
v -4.5 8 -3.5
v -3.5 8 -3.5
v -2.5 8 -3.5
v -1.5 8 -3.5
v -0.5 8 -3.5
v 3.5 8 -3.5
v 4.5 8 -3.5
v 5.5 8 -3.5
v -5.5 8 -4.5
v -4.5 8 -4.5
v -3.5 8 -4.5
v -2.5 8 -4.5
v -1.5 8 -4.5
v -0.5 8 -4.5
v 2.5 8 -4.5
v 4.5 8 -4.5
v 5.5 8 -4.5
v -4.5 8 -5.5
v -2.5 8 -5.5
v -1.5 8 -5.5
v -0.5 8 -5.5
v 3.5 8 -5.5
v -6.5 8 -6.5
v -2.5 8 -6.5
v -0.5 8 -6.5
v 6.5 8 -6.5
v -7.5 8 -7.5
v 7.5 8 -7.5

# faces
f 3/3/1 2/3/1 1/3/1
f 4/3/1 2/3/1 3/3/1
f 5/3/1 2/3/1 4/3/1
f 6/3/1 2/3/1 5/3/1
f 7/3/1 2/3/1 6/3/1
f 8/3/1 2/3/1 7/3/1
f 9/3/1 2/3/1 8/3/1
f 10/1/1 5/1/1 4/1/1
f 10/4/1 6/4/1 5/4/1
f 11/1/1 7/1/1 6/1/1
f 11/4/1 6/4/1 10/4/1
f 12/1/1 7/1/1 11/1/1
f 13/4/1 8/4/1 7/4/1
f 13/1/1 7/1/1 12/1/1
f 14/1/1 9/1/1 8/1/1
f 14/4/1 8/4/1 13/4/1
f 15/1/1 9/1/1 14/1/1
f 16/1/1 9/1/1 15/1/1
f 17/1/1 9/1/1 16/1/1
f 18/3/1 3/3/1 1/3/1
f 18/4/1 4/4/1 3/4/1
f 19/1/1 10/1/1 4/1/1
f 19/4/1 4/4/1 18/4/1
f 19/1/1 12/1/1 11/1/1
f 19/1/1 11/1/1 10/1/1
f 20/4/1 13/4/1 12/4/1
f 20/1/1 12/1/1 19/1/1
f 20/4/1 15/4/1 14/4/1
f 20/4/1 14/4/1 13/4/1
f 21/1/1 16/1/1 15/1/1
f 21/4/1 15/4/1 20/4/1
f 22/2/1 19/2/1 18/2/1
f 22/1/1 20/1/1 19/1/1
f 22/1/1 21/1/1 20/1/1
f 23/1/1 21/1/1 22/1/1
f 24/1/1 21/1/1 23/1/1
f 25/1/1 21/1/1 24/1/1
f 26/1/1 21/1/1 25/1/1
f 27/1/1 21/1/1 26/1/1
f 28/1/1 21/1/1 27/1/1
f 29/4/1 17/4/1 16/4/1
f 29/1/1 21/1/1 28/1/1
f 29/1/1 16/1/1 21/1/1
f 30/4/1 17/4/1 29/4/1
f 31/2/1 22/2/1 18/2/1
f 31/4/1 23/4/1 22/4/1
f 32/4/1 23/4/1 31/4/1
f 33/1/1 24/1/1 23/1/1
f 33/4/1 23/4/1 32/4/1
f 34/4/1 25/4/1 24/4/1
f 34/1/1 24/1/1 33/1/1
f 35/4/1 25/4/1 34/4/1
f 36/1/1 28/1/1 27/1/1
f 36/4/1 27/4/1 26/4/1
f 37/4/1 29/4/1 28/4/1
f 37/1/1 28/1/1 36/1/1
f 38/4/1 29/4/1 37/4/1
f 39/2/1 30/2/1 29/2/1
f 39/4/1 29/4/1 38/4/1
f 40/2/1 32/2/1 31/2/1
f 40/4/1 33/4/1 32/4/1
f 40/4/1 34/4/1 33/4/1
f 41/2/1 35/2/1 34/2/1
f 41/4/1 34/4/1 40/4/1
f 42/4/1 25/4/1 35/4/1
f 42/2/1 35/2/1 41/2/1
f 43/1/1 26/1/1 25/1/1
f 43/4/1 25/4/1 42/4/1
f 44/4/1 38/4/1 37/4/1
f 44/1/1 26/1/1 43/1/1
f 44/4/1 36/4/1 26/4/1
f 44/4/1 37/4/1 36/4/1
f 45/4/1 38/4/1 44/4/1
f 46/4/1 38/4/1 45/4/1
f 47/4/1 38/4/1 46/4/1
f 48/2/1 39/2/1 38/2/1
f 48/4/1 38/4/1 47/4/1
f 49/2/1 41/2/1 40/2/1
f 49/2/1 40/2/1 31/2/1
f 49/3/1 18/3/1 1/3/1
f 49/2/1 43/2/1 42/2/1
f 49/2/1 42/2/1 41/2/1
f 49/2/1 31/2/1 18/2/1
f 50/4/1 45/4/1 44/4/1
f 50/2/1 43/2/1 49/2/1
f 50/4/1 44/4/1 43/4/1
f 51/2/1 46/2/1 45/2/1
f 51/4/1 45/4/1 50/4/1
f 52/1/1 47/1/1 46/1/1
f 52/2/1 46/2/1 51/2/1
f 53/2/1 48/2/1 47/2/1
f 53/1/1 47/1/1 52/1/1
f 54/2/1 39/2/1 48/2/1
f 54/2/1 48/2/1 53/2/1
f 54/2/1 30/2/1 39/2/1
f 55/3/1 53/3/1 52/3/1
f 55/3/1 52/3/1 51/3/1
f 55/3/1 54/3/1 53/3/1
f 55/3/1 51/3/1 50/3/1
f 55/3/1 49/3/1 1/3/1
f 55/3/1 50/3/1 49/3/1
f 56/3/1 54/3/1 55/3/1
f 57/3/2 58/3/2 59/3/2
f 59/3/2 58/3/2 60/3/2
f 60/3/2 58/3/2 61/3/2
f 61/3/2 58/3/2 62/3/2
f 62/3/2 58/3/2 63/3/2
f 63/3/2 58/3/2 64/3/2
f 64/3/2 58/3/2 65/3/2
f 65/3/2 58/3/2 66/3/2
f 59/1/2 60/1/2 67/1/2
f 60/4/2 61/4/2 68/4/2
f 67/1/2 60/1/2 68/1/2
f 61/1/2 62/1/2 69/1/2
f 62/4/2 63/4/2 69/4/2
f 63/1/2 64/1/2 70/1/2
f 69/4/2 63/4/2 70/4/2
f 70/1/2 64/1/2 71/1/2
f 64/4/2 65/4/2 72/4/2
f 71/1/2 64/1/2 72/1/2
f 65/1/2 66/1/2 73/1/2
f 72/4/2 65/4/2 73/4/2
f 73/1/2 66/1/2 74/1/2
f 68/4/2 61/4/2 75/4/2
f 67/4/2 68/4/2 75/4/2
f 61/1/2 69/1/2 76/1/2
f 75/4/2 61/4/2 76/4/2
f 70/1/2 71/1/2 76/1/2
f 69/1/2 70/1/2 76/1/2
f 73/4/2 74/4/2 77/4/2
f 76/1/2 71/1/2 77/1/2
f 72/4/2 73/4/2 77/4/2
f 71/4/2 72/4/2 77/4/2
f 74/1/2 66/1/2 78/1/2
f 77/4/2 74/4/2 78/4/2
f 67/4/2 75/4/2 79/4/2
f 75/2/2 76/2/2 80/2/2
f 79/4/2 75/4/2 80/4/2
f 76/1/2 77/1/2 81/1/2
f 80/2/2 76/2/2 81/2/2
f 77/1/2 78/1/2 81/1/2
f 81/1/2 78/1/2 82/1/2
f 82/1/2 78/1/2 83/1/2
f 83/1/2 78/1/2 84/1/2
f 84/1/2 78/1/2 85/1/2
f 85/1/2 78/1/2 86/1/2
f 86/1/2 78/1/2 87/1/2
f 66/3/2 58/3/2 88/3/2
f 87/1/2 78/1/2 88/1/2
f 78/1/2 66/1/2 88/1/2
f 79/2/2 80/2/2 89/2/2
f 80/2/2 81/2/2 89/2/2
f 81/4/2 82/4/2 89/4/2
f 89/4/2 82/4/2 90/4/2
f 82/1/2 83/1/2 91/1/2
f 90/4/2 82/4/2 91/4/2
f 83/4/2 84/4/2 92/4/2
f 91/1/2 83/1/2 92/1/2
f 92/4/2 84/4/2 93/4/2
f 86/1/2 87/1/2 94/1/2
f 85/4/2 86/4/2 94/4/2
f 87/4/2 88/4/2 95/4/2
f 94/1/2 87/1/2 95/1/2
f 95/4/2 88/4/2 96/4/2
f 88/3/2 58/3/2 97/3/2
f 96/4/2 88/4/2 97/4/2
f 89/2/2 90/2/2 98/2/2
f 90/4/2 91/4/2 98/4/2
f 91/4/2 92/4/2 98/4/2
f 92/2/2 93/2/2 99/2/2
f 98/4/2 92/4/2 99/4/2
f 93/4/2 84/4/2 100/4/2
f 99/2/2 93/2/2 100/2/2
f 84/1/2 85/1/2 101/1/2
f 100/4/2 84/4/2 101/4/2
f 95/4/2 96/4/2 102/4/2
f 101/1/2 85/1/2 102/1/2
f 85/4/2 94/4/2 102/4/2
f 94/4/2 95/4/2 102/4/2
f 102/4/2 96/4/2 103/4/2
f 103/4/2 96/4/2 104/4/2
f 104/4/2 96/4/2 105/4/2
f 96/2/2 97/2/2 106/2/2
f 105/4/2 96/4/2 106/4/2
f 98/2/2 99/2/2 107/2/2
f 100/2/2 101/2/2 107/2/2
f 89/2/2 98/2/2 107/2/2
f 79/2/2 89/2/2 107/2/2
f 99/2/2 100/2/2 107/2/2
f 102/4/2 103/4/2 108/4/2
f 107/2/2 101/2/2 108/2/2
f 101/4/2 102/4/2 108/4/2
f 103/2/2 104/2/2 109/2/2
f 108/4/2 103/4/2 109/4/2
f 104/1/2 105/1/2 110/1/2
f 109/2/2 104/2/2 110/2/2
f 105/2/2 106/2/2 111/2/2
f 110/1/2 105/1/2 111/1/2
f 106/2/2 97/2/2 112/2/2
f 111/2/2 106/2/2 112/2/2
f 97/3/2 58/3/2 112/3/2
f 110/3/2 111/3/2 113/3/2
f 109/3/2 110/3/2 113/3/2
f 111/3/2 112/3/2 113/3/2
f 108/3/2 109/3/2 113/3/2
f 107/3/2 108/3/2 113/3/2
f 112/3/2 58/3/2 114/3/2
f 113/3/2 112/3/2 114/3/2
f 117/3/3 116/3/3 115/3/3
f 118/3/3 116/3/3 117/3/3
f 119/3/3 116/3/3 118/3/3
f 120/3/3 117/3/3 115/3/3
f 120/4/3 118/4/3 117/4/3
f 121/2/3 119/2/3 118/2/3
f 121/4/3 118/4/3 120/4/3
f 122/2/3 119/2/3 121/2/3
f 123/2/3 119/2/3 122/2/3
f 124/4/3 123/4/3 122/4/3
f 124/2/3 119/2/3 123/2/3
f 125/2/3 119/2/3 124/2/3
f 126/1/3 121/1/3 120/1/3
f 126/1/3 122/1/3 121/1/3
f 126/4/3 125/4/3 124/4/3
f 126/4/3 124/4/3 122/4/3
f 127/4/3 125/4/3 126/4/3
f 128/1/3 126/1/3 120/1/3
f 128/1/3 127/1/3 126/1/3
f 129/4/3 125/4/3 127/4/3
f 129/1/3 127/1/3 128/1/3
f 130/2/3 119/2/3 125/2/3
f 130/4/3 125/4/3 129/4/3
f 131/4/3 129/4/3 128/4/3
f 131/2/3 130/2/3 129/2/3
f 132/2/3 119/2/3 130/2/3
f 132/2/3 130/2/3 131/2/3
f 133/4/3 131/4/3 128/4/3
f 133/1/3 128/1/3 120/1/3
f 133/4/3 132/4/3 131/4/3
f 134/2/3 119/2/3 132/2/3
f 134/4/3 132/4/3 133/4/3
f 135/3/3 116/3/3 119/3/3
f 135/2/3 119/2/3 134/2/3
f 136/1/3 134/1/3 133/1/3
f 136/3/3 120/3/3 115/3/3
f 136/1/3 133/1/3 120/1/3
f 137/1/3 134/1/3 136/1/3
f 138/1/3 134/1/3 137/1/3
f 139/4/3 135/4/3 134/4/3
f 139/1/3 134/1/3 138/1/3
f 140/3/3 136/3/3 115/3/3
f 140/4/3 137/4/3 136/4/3
f 141/1/3 138/1/3 137/1/3
f 141/4/3 137/4/3 140/4/3
f 142/4/3 139/4/3 138/4/3
f 142/1/3 138/1/3 141/1/3
f 143/4/3 139/4/3 142/4/3
f 144/4/3 135/4/3 139/4/3
f 144/4/3 139/4/3 143/4/3
f 145/3/3 116/3/3 135/3/3
f 145/4/3 135/4/3 144/4/3
f 146/1/3 143/1/3 142/1/3
f 146/1/3 141/1/3 140/1/3
f 146/1/3 142/1/3 141/1/3
f 147/1/3 143/1/3 146/1/3
f 148/4/3 144/4/3 143/4/3
f 148/2/3 145/2/3 144/2/3
f 149/3/3 116/3/3 145/3/3
f 149/2/3 145/2/3 148/2/3
f 150/3/3 140/3/3 115/3/3
f 150/1/3 146/1/3 140/1/3
f 151/4/3 147/4/3 146/4/3
f 151/1/3 146/1/3 150/1/3
f 152/4/3 148/4/3 143/4/3
f 152/1/3 149/1/3 148/1/3
f 153/3/3 116/3/3 149/3/3
f 153/1/3 149/1/3 152/1/3
f 154/3/3 150/3/3 115/3/3
f 154/4/3 151/4/3 150/4/3
f 155/4/3 147/4/3 151/4/3
f 155/4/3 151/4/3 154/4/3
f 156/1/3 143/1/3 147/1/3
f 157/4/3 152/4/3 143/4/3
f 157/1/3 143/1/3 156/1/3
f 158/4/3 147/4/3 155/4/3
f 158/1/3 155/1/3 154/1/3
f 159/1/3 156/1/3 147/1/3
f 159/4/3 147/4/3 158/4/3
f 160/4/3 152/4/3 157/4/3
f 160/4/3 157/4/3 156/4/3
f 161/2/3 153/2/3 152/2/3
f 161/4/3 152/4/3 160/4/3
f 162/1/3 158/1/3 154/1/3
f 162/1/3 159/1/3 158/1/3
f 163/1/3 156/1/3 159/1/3
f 163/1/3 159/1/3 162/1/3
f 163/4/3 160/4/3 156/4/3
f 164/2/3 161/2/3 160/2/3
f 164/4/3 160/4/3 163/4/3
f 165/3/3 154/3/3 115/3/3
f 166/1/3 162/1/3 154/1/3
f 166/3/3 154/3/3 165/3/3
f 167/4/3 163/4/3 162/4/3
f 167/1/3 162/1/3 166/1/3
f 168/2/3 164/2/3 163/2/3
f 168/4/3 163/4/3 167/4/3
f 169/2/3 153/2/3 161/2/3
f 169/2/3 164/2/3 168/2/3
f 169/2/3 161/2/3 164/2/3
f 169/3/3 116/3/3 153/3/3
f 170/3/3 116/3/3 169/3/3
f 172/1/4 173/1/4 177/1/4
f 173/4/4 174/4/4 177/4/4
f 174/2/4 175/2/4 178/2/4
f 177/4/4 174/4/4 178/4/4
f 178/2/4 175/2/4 179/2/4
f 172/1/4 177/1/4 180/1/4
f 177/1/4 178/1/4 180/1/4
f 180/1/4 178/1/4 181/1/4
f 179/2/4 175/2/4 182/2/4
f 178/4/4 179/4/4 182/4/4
f 182/2/4 175/2/4 183/2/4
f 171/3/4 172/3/4 184/3/4
f 172/1/4 180/1/4 184/1/4
f 180/4/4 181/4/4 185/4/4
f 184/1/4 180/1/4 185/1/4
f 181/1/4 178/1/4 186/1/4
f 182/4/4 183/4/4 186/4/4
f 178/4/4 182/4/4 186/4/4
f 186/4/4 183/4/4 187/4/4
f 171/3/4 184/3/4 188/3/4
f 184/4/4 185/4/4 188/4/4
f 185/4/4 181/4/4 189/4/4
f 188/4/4 185/4/4 189/4/4
f 183/2/4 175/2/4 190/2/4
f 187/4/4 183/4/4 190/4/4
f 175/3/4 176/3/4 191/3/4
f 190/2/4 175/2/4 191/2/4
f 189/4/4 181/4/4 192/4/4
f 188/1/4 189/1/4 192/1/4
f 186/1/4 187/1/4 193/1/4
f 192/4/4 181/4/4 193/4/4
f 181/1/4 186/1/4 193/1/4
f 187/4/4 190/4/4 194/4/4
f 190/1/4 191/1/4 194/1/4
f 191/3/4 176/3/4 195/3/4
f 194/1/4 191/1/4 195/1/4
f 171/3/4 188/3/4 196/3/4
f 192/1/4 193/1/4 196/1/4
f 188/1/4 192/1/4 196/1/4
f 196/1/4 193/1/4 197/1/4
f 193/1/4 187/1/4 198/1/4
f 197/1/4 193/1/4 198/1/4
f 187/4/4 194/4/4 199/4/4
f 198/1/4 187/1/4 199/1/4
f 194/2/4 195/2/4 200/2/4
f 199/4/4 194/4/4 200/4/4
f 195/3/4 176/3/4 201/3/4
f 200/2/4 195/2/4 201/2/4
f 196/4/4 197/4/4 202/4/4
f 171/3/4 196/3/4 202/3/4
f 197/1/4 198/1/4 203/1/4
f 202/4/4 197/4/4 203/4/4
f 199/4/4 200/4/4 204/4/4
f 203/1/4 198/1/4 204/1/4
f 198/4/4 199/4/4 204/4/4
f 200/4/4 201/4/4 204/4/4
f 204/4/4 201/4/4 205/4/4
f 202/1/4 203/1/4 206/1/4
f 203/1/4 204/1/4 206/1/4
f 204/1/4 205/1/4 206/1/4
f 205/4/4 201/4/4 207/4/4
f 206/1/4 205/1/4 207/1/4
f 201/3/4 176/3/4 208/3/4
f 207/4/4 201/4/4 208/4/4
f 206/4/4 207/4/4 209/4/4
f 207/2/4 208/2/4 210/2/4
f 209/4/4 207/4/4 210/4/4
f 202/1/4 206/1/4 211/1/4
f 206/4/4 209/4/4 211/4/4
f 209/2/4 210/2/4 212/2/4
f 211/4/4 209/4/4 212/4/4
f 210/2/4 208/2/4 213/2/4
f 212/2/4 210/2/4 213/2/4
f 211/1/4 212/1/4 214/1/4
f 202/1/4 211/1/4 214/1/4
f 212/4/4 213/4/4 215/4/4
f 214/1/4 212/1/4 215/1/4
f 214/4/4 215/4/4 216/4/4
f 215/4/4 213/4/4 216/4/4
f 213/2/4 208/2/4 217/2/4
f 216/4/4 213/4/4 217/4/4
f 171/3/4 202/3/4 218/3/4
f 202/1/4 214/1/4 218/1/4
f 218/1/4 214/1/4 219/1/4
f 214/4/4 216/4/4 220/4/4
f 219/1/4 214/1/4 220/1/4
f 216/2/4 217/2/4 221/2/4
f 220/4/4 216/4/4 221/4/4
f 218/4/4 219/4/4 222/4/4
f 171/3/4 218/3/4 222/3/4
f 219/2/4 220/2/4 223/2/4
f 222/4/4 219/4/4 223/4/4
f 220/2/4 221/2/4 223/2/4
f 217/2/4 208/2/4 224/2/4
f 223/2/4 221/2/4 224/2/4
f 208/3/4 176/3/4 224/3/4
f 221/2/4 217/2/4 224/2/4
f 222/3/4 223/3/4 225/3/4
f 171/3/4 222/3/4 225/3/4
f 223/3/4 224/3/4 225/3/4
f 224/3/4 176/3/4 226/3/4
f 225/3/4 224/3/4 226/3/4
f 229/3/5 228/3/5 227/3/5
f 230/3/5 228/3/5 229/3/5
f 231/3/5 229/3/5 227/3/5
f 231/1/5 230/1/5 229/1/5
f 232/3/5 228/3/5 230/3/5
f 232/1/5 230/1/5 231/1/5
f 233/3/5 231/3/5 227/3/5
f 233/3/5 232/3/5 231/3/5
f 234/3/5 228/3/5 232/3/5
f 234/3/5 232/3/5 233/3/5
f 235/3/6 236/3/6 237/3/6
f 237/3/6 236/3/6 238/3/6
f 238/3/6 236/3/6 239/3/6
f 239/3/6 236/3/6 240/3/6
f 240/3/6 236/3/6 241/3/6
f 241/3/6 236/3/6 242/3/6
f 242/3/6 236/3/6 243/3/6
f 243/3/6 236/3/6 244/3/6
f 244/3/6 236/3/6 245/3/6
f 245/3/6 236/3/6 246/3/6
f 246/3/6 236/3/6 247/3/6
f 235/3/6 237/3/6 248/3/6
f 237/1/6 238/1/6 248/1/6
f 238/4/6 239/4/6 249/4/6
f 248/1/6 238/1/6 249/1/6
f 239/1/6 240/1/6 250/1/6
f 249/4/6 239/4/6 250/4/6
f 240/4/6 241/4/6 251/4/6
f 250/1/6 240/1/6 251/1/6
f 241/2/6 242/2/6 252/2/6
f 251/4/6 241/4/6 252/4/6
f 252/2/6 242/2/6 253/2/6
f 242/4/6 243/4/6 254/4/6
f 243/2/6 244/2/6 254/2/6
f 244/4/6 245/4/6 255/4/6
f 254/2/6 244/2/6 255/2/6
f 245/1/6 246/1/6 256/1/6
f 255/4/6 245/4/6 256/4/6
f 246/4/6 247/4/6 257/4/6
f 256/1/6 246/1/6 257/1/6
f 247/3/6 236/3/6 258/3/6
f 257/4/6 247/4/6 258/4/6
f 248/4/6 249/4/6 259/4/6
f 249/2/6 250/2/6 259/2/6
f 250/4/6 251/4/6 260/4/6
f 259/2/6 250/2/6 260/2/6
f 251/1/6 252/1/6 261/1/6
f 260/4/6 251/4/6 261/4/6
f 252/4/6 253/4/6 262/4/6
f 261/1/6 252/1/6 262/1/6
f 253/2/6 242/2/6 263/2/6
f 262/4/6 253/4/6 263/4/6
f 242/4/6 254/4/6 264/4/6
f 263/2/6 242/2/6 264/2/6
f 254/4/6 255/4/6 264/4/6
f 255/1/6 256/1/6 265/1/6
f 264/4/6 255/4/6 265/4/6
f 256/4/6 257/4/6 266/4/6
f 265/1/6 256/1/6 266/1/6
f 257/2/6 258/2/6 267/2/6
f 266/4/6 257/4/6 267/4/6
f 248/4/6 259/4/6 268/4/6
f 261/1/6 262/1/6 268/1/6
f 260/1/6 261/1/6 268/1/6
f 259/1/6 260/1/6 268/1/6
f 262/1/6 263/1/6 268/1/6
f 268/1/6 263/1/6 269/1/6
f 269/1/6 263/1/6 270/1/6
f 270/1/6 263/1/6 271/1/6
f 263/4/6 264/4/6 272/4/6
f 271/1/6 263/1/6 272/1/6
f 264/1/6 265/1/6 273/1/6
f 265/1/6 266/1/6 273/1/6
f 273/1/6 266/1/6 274/1/6
f 274/1/6 266/1/6 275/1/6
f 275/1/6 266/1/6 276/1/6
f 235/3/6 248/3/6 277/3/6
f 248/4/6 268/4/6 277/4/6
f 268/4/6 269/4/6 277/4/6
f 277/4/6 269/4/6 278/4/6
f 269/1/6 270/1/6 279/1/6
f 278/4/6 269/4/6 279/4/6
f 270/2/6 271/2/6 280/2/6
f 279/1/6 270/1/6 280/1/6
f 271/4/6 272/4/6 281/4/6
f 280/2/6 271/2/6 281/2/6
f 272/4/6 264/4/6 282/4/6
f 281/4/6 272/4/6 282/4/6
f 264/1/6 273/1/6 283/1/6
f 282/4/6 264/4/6 283/4/6
f 273/4/6 274/4/6 284/4/6
f 283/1/6 273/1/6 284/1/6
f 274/1/6 275/1/6 285/1/6
f 284/4/6 274/4/6 285/4/6
f 275/4/6 276/4/6 286/4/6
f 285/1/6 275/1/6 286/1/6
f 276/1/6 266/1/6 287/1/6
f 286/4/6 276/4/6 287/4/6
f 266/2/6 267/2/6 288/2/6
f 287/1/6 266/1/6 288/1/6
f 267/2/6 258/2/6 289/2/6
f 288/2/6 267/2/6 289/2/6
f 278/4/6 279/4/6 290/4/6
f 279/4/6 280/4/6 290/4/6
f 277/2/6 278/2/6 290/2/6
f 280/2/6 281/2/6 291/2/6
f 290/4/6 280/4/6 291/4/6
f 281/2/6 282/2/6 291/2/6
f 282/1/6 283/1/6 292/1/6
f 291/2/6 282/2/6 292/2/6
f 285/4/6 286/4/6 293/4/6
f 292/1/6 283/1/6 293/1/6
f 284/4/6 285/4/6 293/4/6
f 283/4/6 284/4/6 293/4/6
f 293/4/6 286/4/6 294/4/6
f 294/4/6 286/4/6 295/4/6
f 288/4/6 289/4/6 296/4/6
f 287/4/6 288/4/6 296/4/6
f 286/2/6 287/2/6 296/2/6
f 289/2/6 258/2/6 297/2/6
f 296/4/6 289/4/6 297/4/6
f 277/2/6 290/2/6 298/2/6
f 291/2/6 292/2/6 298/2/6
f 290/2/6 291/2/6 298/2/6
f 292/2/6 293/2/6 298/2/6
f 235/3/6 277/3/6 298/3/6
f 293/4/6 294/4/6 299/4/6
f 298/2/6 293/2/6 299/2/6
f 294/2/6 295/2/6 300/2/6
f 299/4/6 294/4/6 300/4/6
f 295/4/6 286/4/6 301/4/6
f 300/2/6 295/2/6 301/2/6
f 286/2/6 296/2/6 302/2/6
f 301/4/6 286/4/6 302/4/6
f 296/2/6 297/2/6 302/2/6
f 297/2/6 258/2/6 303/2/6
f 302/2/6 297/2/6 303/2/6
f 258/3/6 236/3/6 303/3/6
f 301/3/6 302/3/6 304/3/6
f 300/3/6 301/3/6 304/3/6
f 302/3/6 303/3/6 304/3/6
f 299/3/6 300/3/6 304/3/6
f 298/3/6 299/3/6 304/3/6
f 235/3/6 298/3/6 304/3/6
f 304/3/6 303/3/6 305/3/6
f 305/3/6 303/3/6 306/3/6
f 306/3/6 303/3/6 307/3/6
f 307/3/6 303/3/6 308/3/6
f 308/3/6 303/3/6 309/3/6
f 309/3/6 303/3/6 310/3/6
f 303/3/6 236/3/6 311/3/6
f 310/3/6 303/3/6 311/3/6
f 304/4/6 305/4/6 312/4/6
f 305/1/6 306/1/6 313/1/6
f 312/4/6 305/4/6 313/4/6
f 313/1/6 306/1/6 314/1/6
f 306/4/6 307/4/6 315/4/6
f 314/1/6 306/1/6 315/1/6
f 307/1/6 308/1/6 316/1/6
f 315/4/6 307/4/6 316/4/6
f 308/4/6 309/4/6 317/4/6
f 316/1/6 308/1/6 317/1/6
f 309/1/6 310/1/6 318/1/6
f 317/4/6 309/4/6 318/4/6
f 235/3/6 304/3/6 319/3/6
f 304/4/6 312/4/6 319/4/6
f 313/1/6 314/1/6 320/1/6
f 319/4/6 312/4/6 320/4/6
f 312/1/6 313/1/6 320/1/6
f 316/1/6 317/1/6 321/1/6
f 317/1/6 318/1/6 321/1/6
f 315/1/6 316/1/6 321/1/6
f 318/1/6 310/1/6 322/1/6
f 321/1/6 318/1/6 322/1/6
f 310/4/6 311/4/6 323/4/6
f 322/1/6 310/1/6 323/1/6
f 311/3/6 236/3/6 324/3/6
f 323/4/6 311/4/6 324/4/6
f 320/1/6 314/1/6 325/1/6
f 319/2/6 320/2/6 325/2/6
f 325/1/6 314/1/6 326/1/6
f 326/1/6 314/1/6 327/1/6
f 314/4/6 315/4/6 328/4/6
f 327/1/6 314/1/6 328/1/6
f 315/1/6 321/1/6 329/1/6
f 328/4/6 315/4/6 329/4/6
f 329/1/6 321/1/6 330/1/6
f 321/4/6 322/4/6 331/4/6
f 322/1/6 323/1/6 332/1/6
f 331/4/6 322/4/6 332/4/6
f 323/2/6 324/2/6 333/2/6
f 332/1/6 323/1/6 333/1/6
f 319/2/6 325/2/6 334/2/6
f 325/4/6 326/4/6 334/4/6
f 326/1/6 327/1/6 335/1/6
f 334/4/6 326/4/6 335/4/6
f 327/4/6 328/4/6 336/4/6
f 335/1/6 327/1/6 336/1/6
f 328/2/6 329/2/6 337/2/6
f 336/4/6 328/4/6 337/4/6
f 329/4/6 330/4/6 338/4/6
f 337/2/6 329/2/6 338/2/6
f 330/1/6 321/1/6 339/1/6
f 338/4/6 330/4/6 339/4/6
f 321/4/6 331/4/6 340/4/6
f 339/1/6 321/1/6 340/1/6
f 331/2/6 332/2/6 341/2/6
f 332/4/6 333/4/6 341/4/6
f 333/2/6 324/2/6 342/2/6
f 341/4/6 333/4/6 342/4/6
f 334/2/6 335/2/6 343/2/6
f 337/4/6 338/4/6 343/4/6
f 335/4/6 336/4/6 343/4/6
f 336/4/6 337/4/6 343/4/6
f 343/4/6 338/4/6 344/4/6
f 338/1/6 339/1/6 345/1/6
f 344/4/6 338/4/6 345/4/6
f 339/4/6 340/4/6 346/4/6
f 345/1/6 339/1/6 346/1/6
f 340/4/6 331/4/6 347/4/6
f 346/4/6 340/4/6 347/4/6
f 341/2/6 342/2/6 347/2/6
f 331/2/6 341/2/6 347/2/6
f 343/2/6 344/2/6 348/2/6
f 235/3/6 319/3/6 348/3/6
f 319/2/6 334/2/6 348/2/6
f 334/2/6 343/2/6 348/2/6
f 345/4/6 346/4/6 349/4/6
f 348/2/6 344/2/6 349/2/6
f 344/4/6 345/4/6 349/4/6
f 346/2/6 347/2/6 350/2/6
f 349/4/6 346/4/6 350/4/6
f 324/3/6 236/3/6 351/3/6
f 350/2/6 347/2/6 351/2/6
f 342/2/6 324/2/6 351/2/6
f 347/2/6 342/2/6 351/2/6
f 349/3/6 350/3/6 352/3/6
f 348/3/6 349/3/6 352/3/6
f 350/3/6 351/3/6 352/3/6
f 235/3/6 348/3/6 352/3/6
f 351/3/6 236/3/6 353/3/6
f 352/3/6 351/3/6 353/3/6
