# MagicaVoxel @ Ephtracy

# group
g StoneColumn

# material
mtllib StoneColumn.mtl
usemtl palette

# normals
vn -1 0 0
vn 1 0 0
vn 0 0 1
vn 0 0 -1
vn 0 -1 0
vn 0 1 0

# texcoords
vt 0.697266 0.5
vt 0.701172 0.5
vt 0.705078 0.5
vt 0.708984 0.5

# verts
v -5.5 0 2.5
v -5.5 0 -2.5
v -5.5 2 -0.5
v -5.5 2 -1.5
v -5.5 3 2.5
v -5.5 3 1.5
v -5.5 3 -0.5
v -5.5 3 -1.5
v -5.5 3 -2.5
v -5.5 4 2.5
v -5.5 4 1.5
v -5.5 4 -1.5
v -5.5 4 -2.5
v -5.5 5 0.5
v -5.5 5 -0.5
v -5.5 7 1.5
v -5.5 7 0.5
v -5.5 7 -0.5
v -5.5 7 -1.5
v -5.5 7 -2.5
v -5.5 8 2.5
v -5.5 8 1.5
v -5.5 8 0.5
v -5.5 8 -0.5
v -5.5 8 -1.5
v -5.5 8 -2.5
v -5.5 9 2.5
v -5.5 9 1.5
v -5.5 9 -0.5
v -5.5 9 -1.5
v -5.5 9 -2.5
v -5.5 10 2.5
v -5.5 10 -2.5
v -4.5 0 3.5
v -4.5 0 2.5
v -4.5 0 -2.5
v -4.5 0 -3.5
v -4.5 3 2.5
v -4.5 3 -2.5
v -4.5 4 2.5
v -4.5 4 -2.5
v -4.5 6 -2.5
v -4.5 6 -3.5
v -4.5 7 3.5
v -4.5 7 2.5
v -4.5 7 -2.5
v -4.5 7 -3.5
v -4.5 8 3.5
v -4.5 8 2.5
v -4.5 8 -2.5
v -4.5 8 -3.5
v -4.5 9 3.5
v -4.5 9 2.5
v -4.5 9 -2.5
v -4.5 9 -3.5
v -4.5 10 3.5
v -4.5 10 2.5
v -4.5 10 -2.5
v -4.5 10 -3.5
v -3.5 0 4.5
v -3.5 0 3.5
v -3.5 0 -3.5
v -3.5 0 -4.5
v -3.5 6 4.5
v -3.5 6 3.5
v -3.5 6 -3.5
v -3.5 7 4.5
v -3.5 7 3.5
v -3.5 7 -3.5
v -3.5 7 -4.5
v -3.5 8 3.5
v -3.5 8 -3.5
v -3.5 8 -4.5
v -3.5 9 4.5
v -3.5 9 3.5
v -3.5 9 -3.5
v -3.5 9 -4.5
v -3.5 10 4.5
v -3.5 10 3.5
v -3.5 10 -3.5
v -3.5 10 -4.5
v -2.5 0 5.5
v -2.5 0 4.5
v -2.5 0 -4.5
v -2.5 0 -5.5
v -2.5 5 -4.5
v -2.5 5 -5.5
v -2.5 6 5.5
v -2.5 6 4.5
v -2.5 7 5.5
v -2.5 7 4.5
v -2.5 7 -4.5
v -2.5 7 -5.5
v -2.5 8 -4.5
v -2.5 9 5.5
v -2.5 9 4.5
v -2.5 9 -4.5
v -2.5 9 -5.5
v -2.5 10 5.5
v -2.5 10 4.5
v -2.5 10 -4.5
v -2.5 10 -5.5
v 2.5 0 5.5
v 2.5 0 4.5
v 2.5 0 -4.5
v 2.5 0 -5.5
v 2.5 1 -4.5
v 2.5 1 -5.5
v 2.5 2 -4.5
v 2.5 2 -5.5
v 2.5 3 -4.5
v 2.5 4 4.5
v 2.5 4 -4.5
v 2.5 5 4.5
v 2.5 6 5.5
v 2.5 6 4.5
v 2.5 6 -4.5
v 2.5 6 -5.5
v 2.5 7 5.5
v 2.5 7 4.5
v 2.5 7 -4.5
v 2.5 7 -5.5
v 2.5 8 -4.5
v 2.5 9 5.5
v 2.5 9 4.5
v 2.5 9 -4.5
v 2.5 9 -5.5
v 2.5 10 5.5
v 2.5 10 4.5
v 2.5 10 -4.5
v 2.5 10 -5.5
v 3.5 0 4.5
v 3.5 0 3.5
v 3.5 0 -3.5
v 3.5 0 -4.5
v 3.5 2 3.5
v 3.5 3 -3.5
v 3.5 3 -4.5
v 3.5 4 4.5
v 3.5 4 3.5
v 3.5 4 -3.5
v 3.5 4 -4.5
v 3.5 5 4.5
v 3.5 5 3.5
v 3.5 6 4.5
v 3.5 6 3.5
v 3.5 6 -3.5
v 3.5 6 -4.5
v 3.5 7 4.5
v 3.5 7 3.5
v 3.5 7 -3.5
v 3.5 8 3.5
v 3.5 8 -3.5
v 3.5 8 -4.5
v 3.5 9 4.5
v 3.5 9 3.5
v 3.5 9 -3.5
v 3.5 9 -4.5
v 3.5 10 4.5
v 3.5 10 3.5
v 3.5 10 -3.5
v 3.5 10 -4.5
v 4.5 0 3.5
v 4.5 0 2.5
v 4.5 0 -2.5
v 4.5 0 -3.5
v 4.5 2 3.5
v 4.5 2 2.5
v 4.5 4 3.5
v 4.5 4 2.5
v 4.5 4 -2.5
v 4.5 5 2.5
v 4.5 5 -2.5
v 4.5 6 2.5
v 4.5 7 3.5
v 4.5 7 2.5
v 4.5 7 -2.5
v 4.5 7 -3.5
v 4.5 8 3.5
v 4.5 8 2.5
v 4.5 8 -2.5
v 4.5 9 3.5
v 4.5 9 2.5
v 4.5 9 -2.5
v 4.5 9 -3.5
v 4.5 10 3.5
v 4.5 10 2.5
v 4.5 10 -2.5
v 4.5 10 -3.5
v 5.5 0 2.5
v 5.5 0 -2.5
v 5.5 2 -0.5
v 5.5 2 -1.5
v 5.5 3 -0.5
v 5.5 3 -1.5
v 5.5 4 1.5
v 5.5 4 0.5
v 5.5 4 -1.5
v 5.5 4 -2.5
v 5.5 5 2.5
v 5.5 5 1.5
v 5.5 5 0.5
v 5.5 5 -1.5
v 5.5 5 -2.5
v 5.5 6 2.5
v 5.5 6 1.5
v 5.5 6 0.5
v 5.5 6 -0.5
v 5.5 6 -1.5
v 5.5 7 0.5
v 5.5 7 -0.5
v 5.5 7 -1.5
v 5.5 7 -2.5
v 5.5 8 1.5
v 5.5 8 -0.5
v 5.5 8 -1.5
v 5.5 8 -2.5
v 5.5 9 2.5
v 5.5 9 -0.5
v 5.5 9 -1.5
v 5.5 9 -2.5
v 5.5 10 2.5
v 5.5 10 -2.5
v -2.5 0 5.5
v -2.5 6 5.5
v -2.5 7 5.5
v -2.5 9 5.5
v -2.5 10 5.5
v -1.5 2 5.5
v -1.5 3 5.5
v -1.5 6 5.5
v -1.5 7 5.5
v -1.5 8 5.5
v -0.5 1 5.5
v -0.5 2 5.5
v -0.5 3 5.5
v -0.5 5 5.5
v -0.5 6 5.5
v -0.5 8 5.5
v -0.5 9 5.5
v 0.5 5 5.5
v 0.5 6 5.5
v 0.5 7 5.5
v 0.5 8 5.5
v 0.5 9 5.5
v 1.5 1 5.5
v 1.5 2 5.5
v 1.5 7 5.5
v 1.5 8 5.5
v 2.5 0 5.5
v 2.5 6 5.5
v 2.5 7 5.5
v 2.5 9 5.5
v 2.5 10 5.5
v -3.5 0 4.5
v -3.5 6 4.5
v -3.5 7 4.5
v -3.5 9 4.5
v -3.5 10 4.5
v -2.5 0 4.5
v -2.5 6 4.5
v -2.5 7 4.5
v -2.5 9 4.5
v -2.5 10 4.5
v 2.5 0 4.5
v 2.5 4 4.5
v 2.5 5 4.5
v 2.5 6 4.5
v 2.5 7 4.5
v 2.5 9 4.5
v 2.5 10 4.5
v 3.5 0 4.5
v 3.5 4 4.5
v 3.5 5 4.5
v 3.5 6 4.5
v 3.5 7 4.5
v 3.5 9 4.5
v 3.5 10 4.5
v -4.5 0 3.5
v -4.5 7 3.5
v -4.5 8 3.5
v -4.5 9 3.5
v -4.5 10 3.5
v -3.5 0 3.5
v -3.5 6 3.5
v -3.5 7 3.5
v -3.5 8 3.5
v -3.5 9 3.5
v -3.5 10 3.5
v 3.5 0 3.5
v 3.5 2 3.5
v 3.5 4 3.5
v 3.5 5 3.5
v 3.5 6 3.5
v 3.5 7 3.5
v 3.5 8 3.5
v 3.5 9 3.5
v 3.5 10 3.5
v 4.5 0 3.5
v 4.5 2 3.5
v 4.5 4 3.5
v 4.5 7 3.5
v 4.5 8 3.5
v 4.5 9 3.5
v 4.5 10 3.5
v -5.5 0 2.5
v -5.5 3 2.5
v -5.5 4 2.5
v -5.5 8 2.5
v -5.5 9 2.5
v -5.5 10 2.5
v -4.5 0 2.5
v -4.5 3 2.5
v -4.5 4 2.5
v -4.5 7 2.5
v -4.5 8 2.5
v -4.5 9 2.5
v -4.5 10 2.5
v 4.5 0 2.5
v 4.5 2 2.5
v 4.5 4 2.5
v 4.5 5 2.5
v 4.5 6 2.5
v 4.5 7 2.5
v 4.5 8 2.5
v 4.5 9 2.5
v 4.5 10 2.5
v 5.5 0 2.5
v 5.5 5 2.5
v 5.5 6 2.5
v 5.5 9 2.5
v 5.5 10 2.5
v -5.5 0 -2.5
v -5.5 3 -2.5
v -5.5 4 -2.5
v -5.5 7 -2.5
v -5.5 8 -2.5
v -5.5 9 -2.5
v -5.5 10 -2.5
v -4.5 0 -2.5
v -4.5 3 -2.5
v -4.5 4 -2.5
v -4.5 6 -2.5
v -4.5 7 -2.5
v -4.5 8 -2.5
v -4.5 9 -2.5
v -4.5 10 -2.5
v 4.5 0 -2.5
v 4.5 4 -2.5
v 4.5 5 -2.5
v 4.5 7 -2.5
v 4.5 8 -2.5
v 4.5 9 -2.5
v 4.5 10 -2.5
v 5.5 0 -2.5
v 5.5 4 -2.5
v 5.5 5 -2.5
v 5.5 7 -2.5
v 5.5 8 -2.5
v 5.5 9 -2.5
v 5.5 10 -2.5
v -4.5 0 -3.5
v -4.5 6 -3.5
v -4.5 7 -3.5
v -4.5 8 -3.5
v -4.5 9 -3.5
v -4.5 10 -3.5
v -3.5 0 -3.5
v -3.5 6 -3.5
v -3.5 7 -3.5
v -3.5 8 -3.5
v -3.5 9 -3.5
v -3.5 10 -3.5
v 3.5 0 -3.5
v 3.5 3 -3.5
v 3.5 4 -3.5
v 3.5 6 -3.5
v 3.5 7 -3.5
v 3.5 8 -3.5
v 3.5 9 -3.5
v 3.5 10 -3.5
v 4.5 0 -3.5
v 4.5 7 -3.5
v 4.5 9 -3.5
v 4.5 10 -3.5
v -3.5 0 -4.5
v -3.5 7 -4.5
v -3.5 8 -4.5
v -3.5 9 -4.5
v -3.5 10 -4.5
v -2.5 0 -4.5
v -2.5 5 -4.5
v -2.5 7 -4.5
v -2.5 8 -4.5
v -2.5 9 -4.5
v -2.5 10 -4.5
v 2.5 0 -4.5
v 2.5 1 -4.5
v 2.5 2 -4.5
v 2.5 3 -4.5
v 2.5 4 -4.5
v 2.5 6 -4.5
v 2.5 7 -4.5
v 2.5 8 -4.5
v 2.5 9 -4.5
v 2.5 10 -4.5
v 3.5 0 -4.5
v 3.5 3 -4.5
v 3.5 4 -4.5
v 3.5 6 -4.5
v 3.5 8 -4.5
v 3.5 9 -4.5
v 3.5 10 -4.5
v -2.5 0 -5.5
v -2.5 5 -5.5
v -2.5 7 -5.5
v -2.5 9 -5.5
v -2.5 10 -5.5
v -1.5 2 -5.5
v -1.5 3 -5.5
v -1.5 5 -5.5
v -1.5 6 -5.5
v -1.5 7 -5.5
v -1.5 8 -5.5
v -0.5 1 -5.5
v -0.5 2 -5.5
v -0.5 3 -5.5
v -0.5 4 -5.5
v -0.5 6 -5.5
v -0.5 7 -5.5
v 0.5 3 -5.5
v 0.5 4 -5.5
v 0.5 7 -5.5
v 0.5 8 -5.5
v 0.5 9 -5.5
v 1.5 2 -5.5
v 1.5 3 -5.5
v 1.5 6 -5.5
v 1.5 7 -5.5
v 1.5 8 -5.5
v 1.5 9 -5.5
v 2.5 0 -5.5
v 2.5 1 -5.5
v 2.5 2 -5.5
v 2.5 6 -5.5
v 2.5 7 -5.5
v 2.5 9 -5.5
v 2.5 10 -5.5
v -2.5 0 5.5
v 2.5 0 5.5
v -3.5 0 4.5
v -2.5 0 4.5
v 2.5 0 4.5
v 3.5 0 4.5
v -4.5 0 3.5
v -3.5 0 3.5
v -2.5 0 3.5
v 2.5 0 3.5
v 3.5 0 3.5
v 4.5 0 3.5
v -5.5 0 2.5
v -4.5 0 2.5
v -3.5 0 2.5
v 3.5 0 2.5
v 4.5 0 2.5
v 5.5 0 2.5
v -5.5 0 -2.5
v -4.5 0 -2.5
v -3.5 0 -2.5
v 3.5 0 -2.5
v 4.5 0 -2.5
v 5.5 0 -2.5
v -4.5 0 -3.5
v -3.5 0 -3.5
v -2.5 0 -3.5
v 2.5 0 -3.5
v 3.5 0 -3.5
v 4.5 0 -3.5
v -3.5 0 -4.5
v -2.5 0 -4.5
v 2.5 0 -4.5
v 3.5 0 -4.5
v -2.5 0 -5.5
v 2.5 0 -5.5
v -2.5 10 5.5
v 2.5 10 5.5
v -3.5 10 4.5
v -2.5 10 4.5
v 2.5 10 4.5
v 3.5 10 4.5
v -4.5 10 3.5
v -3.5 10 3.5
v 3.5 10 3.5
v 4.5 10 3.5
v -5.5 10 2.5
v -4.5 10 2.5
v 4.5 10 2.5
v 5.5 10 2.5
v -5.5 10 -2.5
v -4.5 10 -2.5
v 4.5 10 -2.5
v 5.5 10 -2.5
v -4.5 10 -3.5
v -3.5 10 -3.5
v 3.5 10 -3.5
v 4.5 10 -3.5
v -3.5 10 -4.5
v -2.5 10 -4.5
v 2.5 10 -4.5
v 3.5 10 -4.5
v -2.5 10 -5.5
v 2.5 10 -5.5

# faces
f 3/1/1 2/1/1 1/1/1
f 4/1/1 2/1/1 3/1/1
f 5/1/1 3/1/1 1/1/1
f 6/1/1 3/1/1 5/1/1
f 7/4/1 4/4/1 3/4/1
f 7/1/1 3/1/1 6/1/1
f 8/1/1 2/1/1 4/1/1
f 8/4/1 4/4/1 7/4/1
f 9/1/1 2/1/1 8/1/1
f 10/4/1 6/4/1 5/4/1
f 11/1/1 7/1/1 6/1/1
f 11/4/1 6/4/1 10/4/1
f 11/1/1 8/1/1 7/1/1
f 12/4/1 9/4/1 8/4/1
f 12/1/1 8/1/1 11/1/1
f 13/4/1 9/4/1 12/4/1
f 14/1/1 11/1/1 10/1/1
f 14/1/1 12/1/1 11/1/1
f 14/1/1 13/1/1 12/1/1
f 15/1/1 13/1/1 14/1/1
f 16/1/1 14/1/1 10/1/1
f 17/4/1 15/4/1 14/4/1
f 17/1/1 14/1/1 16/1/1
f 18/1/1 13/1/1 15/1/1
f 18/4/1 15/4/1 17/4/1
f 19/1/1 13/1/1 18/1/1
f 20/1/1 13/1/1 19/1/1
f 21/1/1 16/1/1 10/1/1
f 22/4/1 17/4/1 16/4/1
f 22/1/1 16/1/1 21/1/1
f 23/2/1 18/2/1 17/2/1
f 23/4/1 17/4/1 22/4/1
f 24/1/1 19/1/1 18/1/1
f 24/2/1 18/2/1 23/2/1
f 25/4/1 20/4/1 19/4/1
f 25/1/1 19/1/1 24/1/1
f 26/4/1 20/4/1 25/4/1
f 27/4/1 22/4/1 21/4/1
f 28/2/1 23/2/1 22/2/1
f 28/4/1 22/4/1 27/4/1
f 28/2/1 24/2/1 23/2/1
f 29/4/1 25/4/1 24/4/1
f 29/2/1 24/2/1 28/2/1
f 30/2/1 26/2/1 25/2/1
f 30/4/1 25/4/1 29/4/1
f 31/2/1 26/2/1 30/2/1
f 32/3/1 29/3/1 28/3/1
f 32/3/1 28/3/1 27/3/1
f 32/3/1 31/3/1 30/3/1
f 32/3/1 30/3/1 29/3/1
f 33/3/1 31/3/1 32/3/1
f 38/1/1 35/1/1 34/1/1
f 39/1/1 37/1/1 36/1/1
f 40/1/1 38/1/1 34/1/1
f 41/1/1 37/1/1 39/1/1
f 42/1/1 37/1/1 41/1/1
f 43/1/1 37/1/1 42/1/1
f 44/1/1 40/1/1 34/1/1
f 45/1/1 40/1/1 44/1/1
f 46/4/1 43/4/1 42/4/1
f 47/4/1 43/4/1 46/4/1
f 48/4/1 45/4/1 44/4/1
f 49/4/1 45/4/1 48/4/1
f 50/1/1 47/1/1 46/1/1
f 51/1/1 47/1/1 50/1/1
f 52/2/1 49/2/1 48/2/1
f 53/2/1 49/2/1 52/2/1
f 54/4/1 51/4/1 50/4/1
f 55/4/1 51/4/1 54/4/1
f 56/3/1 53/3/1 52/3/1
f 57/3/1 53/3/1 56/3/1
f 58/3/1 55/3/1 54/3/1
f 59/3/1 55/3/1 58/3/1
f 64/1/1 61/1/1 60/1/1
f 65/1/1 61/1/1 64/1/1
f 66/1/1 63/1/1 62/1/1
f 67/4/1 65/4/1 64/4/1
f 68/4/1 65/4/1 67/4/1
f 69/1/1 63/1/1 66/1/1
f 70/1/1 63/1/1 69/1/1
f 71/2/1 68/2/1 67/2/1
f 72/4/1 70/4/1 69/4/1
f 73/4/1 70/4/1 72/4/1
f 74/2/1 71/2/1 67/2/1
f 75/2/1 71/2/1 74/2/1
f 76/2/1 73/2/1 72/2/1
f 77/2/1 73/2/1 76/2/1
f 78/3/1 75/3/1 74/3/1
f 79/3/1 75/3/1 78/3/1
f 80/3/1 77/3/1 76/3/1
f 81/3/1 77/3/1 80/3/1
f 86/1/1 85/1/1 84/1/1
f 87/1/1 85/1/1 86/1/1
f 88/1/1 83/1/1 82/1/1
f 89/1/1 83/1/1 88/1/1
f 90/4/1 89/4/1 88/4/1
f 91/4/1 89/4/1 90/4/1
f 92/4/1 87/4/1 86/4/1
f 93/4/1 87/4/1 92/4/1
f 94/2/1 93/2/1 92/2/1
f 95/2/1 91/2/1 90/2/1
f 96/2/1 91/2/1 95/2/1
f 97/2/1 93/2/1 94/2/1
f 98/2/1 93/2/1 97/2/1
f 99/3/1 96/3/1 95/3/1
f 100/3/1 96/3/1 99/3/1
f 101/3/1 98/3/1 97/3/1
f 102/3/1 98/3/1 101/3/1
f 105/1/2 106/1/2 107/1/2
f 107/1/2 106/1/2 108/1/2
f 107/4/2 108/4/2 109/4/2
f 109/4/2 108/4/2 110/4/2
f 109/1/2 110/1/2 111/1/2
f 103/1/2 104/1/2 112/1/2
f 111/1/2 110/1/2 113/1/2
f 103/1/2 112/1/2 114/1/2
f 103/1/2 114/1/2 115/1/2
f 115/1/2 114/1/2 116/1/2
f 113/1/2 110/1/2 117/1/2
f 117/1/2 110/1/2 118/1/2
f 115/4/2 116/4/2 119/4/2
f 119/4/2 116/4/2 120/4/2
f 117/4/2 118/4/2 121/4/2
f 121/4/2 118/4/2 122/4/2
f 121/2/2 122/2/2 123/2/2
f 119/2/2 120/2/2 124/2/2
f 124/2/2 120/2/2 125/2/2
f 123/2/2 122/2/2 126/2/2
f 126/2/2 122/2/2 127/2/2
f 124/3/2 125/3/2 128/3/2
f 128/3/2 125/3/2 129/3/2
f 126/3/2 127/3/2 130/3/2
f 130/3/2 127/3/2 131/3/2
f 132/1/2 133/1/2 136/1/2
f 134/1/2 135/1/2 137/1/2
f 137/1/2 135/1/2 138/1/2
f 132/1/2 136/1/2 139/1/2
f 139/1/2 136/1/2 140/1/2
f 137/4/2 138/4/2 141/4/2
f 141/4/2 138/4/2 142/4/2
f 139/4/2 140/4/2 143/4/2
f 143/4/2 140/4/2 144/4/2
f 143/1/2 144/1/2 145/1/2
f 145/1/2 144/1/2 146/1/2
f 141/1/2 142/1/2 147/1/2
f 147/1/2 142/1/2 148/1/2
f 145/4/2 146/4/2 149/4/2
f 149/4/2 146/4/2 150/4/2
f 147/4/2 148/4/2 151/4/2
f 149/2/2 150/2/2 152/2/2
f 151/4/2 148/4/2 153/4/2
f 153/4/2 148/4/2 154/4/2
f 149/2/2 152/2/2 155/2/2
f 155/2/2 152/2/2 156/2/2
f 153/2/2 154/2/2 157/2/2
f 157/2/2 154/2/2 158/2/2
f 155/3/2 156/3/2 159/3/2
f 159/3/2 156/3/2 160/3/2
f 157/3/2 158/3/2 161/3/2
f 161/3/2 158/3/2 162/3/2
f 163/1/2 164/1/2 167/1/2
f 167/1/2 164/1/2 168/1/2
f 167/4/2 168/4/2 169/4/2
f 169/4/2 168/4/2 170/4/2
f 165/1/2 166/1/2 171/1/2
f 169/1/2 170/1/2 172/1/2
f 171/1/2 166/1/2 173/1/2
f 169/1/2 172/1/2 174/1/2
f 169/1/2 174/1/2 175/1/2
f 175/1/2 174/1/2 176/1/2
f 173/1/2 166/1/2 177/1/2
f 177/1/2 166/1/2 178/1/2
f 175/4/2 176/4/2 179/4/2
f 179/4/2 176/4/2 180/4/2
f 177/4/2 178/4/2 181/4/2
f 179/2/2 180/2/2 182/2/2
f 182/2/2 180/2/2 183/2/2
f 181/4/2 178/4/2 184/4/2
f 184/4/2 178/4/2 185/4/2
f 182/3/2 183/3/2 186/3/2
f 186/3/2 183/3/2 187/3/2
f 184/3/2 185/3/2 188/3/2
f 188/3/2 185/3/2 189/3/2
f 190/1/2 191/1/2 192/1/2
f 192/1/2 191/1/2 193/1/2
f 190/1/2 192/1/2 194/1/2
f 192/4/2 193/4/2 194/4/2
f 193/1/2 191/1/2 195/1/2
f 194/4/2 193/4/2 195/4/2
f 190/1/2 194/1/2 196/1/2
f 194/1/2 195/1/2 196/1/2
f 196/1/2 195/1/2 197/1/2
f 195/1/2 191/1/2 198/1/2
f 197/1/2 195/1/2 198/1/2
f 198/1/2 191/1/2 199/1/2
f 190/1/2 196/1/2 200/1/2
f 196/4/2 197/4/2 201/4/2
f 200/1/2 196/1/2 201/1/2
f 197/1/2 198/1/2 202/1/2
f 201/4/2 197/4/2 202/4/2
f 198/4/2 199/4/2 203/4/2
f 202/1/2 198/1/2 203/1/2
f 203/4/2 199/4/2 204/4/2
f 200/4/2 201/4/2 205/4/2
f 201/1/2 202/1/2 206/1/2
f 205/4/2 201/4/2 206/4/2
f 202/1/2 203/1/2 206/1/2
f 203/1/2 204/1/2 206/1/2
f 206/1/2 204/1/2 207/1/2
f 207/1/2 204/1/2 208/1/2
f 208/1/2 204/1/2 209/1/2
f 206/4/2 207/4/2 210/4/2
f 207/1/2 208/1/2 210/1/2
f 208/4/2 209/4/2 211/4/2
f 210/1/2 208/1/2 211/1/2
f 209/1/2 204/1/2 212/1/2
f 211/4/2 209/4/2 212/4/2
f 212/1/2 204/1/2 213/1/2
f 205/2/2 206/2/2 214/2/2
f 210/4/2 211/4/2 214/4/2
f 206/4/2 210/4/2 214/4/2
f 211/2/2 212/2/2 215/2/2
f 214/4/2 211/4/2 215/4/2
f 212/4/2 213/4/2 216/4/2
f 215/2/2 212/2/2 216/2/2
f 216/4/2 213/4/2 217/4/2
f 214/2/2 215/2/2 218/2/2
f 205/2/2 214/2/2 218/2/2
f 215/4/2 216/4/2 219/4/2
f 218/2/2 215/2/2 219/2/2
f 216/2/2 217/2/2 220/2/2
f 219/4/2 216/4/2 220/4/2
f 220/2/2 217/2/2 221/2/2
f 218/3/2 219/3/2 222/3/2
f 219/3/2 220/3/2 222/3/2
f 220/3/2 221/3/2 222/3/2
f 222/3/2 221/3/2 223/3/2
f 229/1/3 225/1/3 224/1/3
f 230/1/3 225/1/3 229/1/3
f 231/4/3 226/4/3 225/4/3
f 231/1/3 225/1/3 230/1/3
f 232/2/3 227/2/3 226/2/3
f 232/4/3 226/4/3 231/4/3
f 233/2/3 227/2/3 232/2/3
f 234/1/3 229/1/3 224/1/3
f 235/4/3 230/4/3 229/4/3
f 235/1/3 229/1/3 234/1/3
f 236/1/3 231/1/3 230/1/3
f 236/4/3 230/4/3 235/4/3
f 236/1/3 232/1/3 231/1/3
f 237/1/3 232/1/3 236/1/3
f 238/1/3 232/1/3 237/1/3
f 239/2/3 227/2/3 233/2/3
f 239/4/3 233/4/3 232/4/3
f 240/3/3 228/3/3 227/3/3
f 240/2/3 227/2/3 239/2/3
f 241/4/3 238/4/3 237/4/3
f 241/1/3 236/1/3 235/1/3
f 241/1/3 237/1/3 236/1/3
f 242/1/3 232/1/3 238/1/3
f 242/4/3 238/4/3 241/4/3
f 243/4/3 239/4/3 232/4/3
f 243/1/3 232/1/3 242/1/3
f 243/4/3 240/4/3 239/4/3
f 244/4/3 240/4/3 243/4/3
f 245/3/3 228/3/3 240/3/3
f 245/4/3 240/4/3 244/4/3
f 246/1/3 234/1/3 224/1/3
f 246/4/3 235/4/3 234/4/3
f 247/1/3 242/1/3 241/1/3
f 247/4/3 235/4/3 246/4/3
f 247/1/3 241/1/3 235/1/3
f 248/4/3 243/4/3 242/4/3
f 248/4/3 244/4/3 243/4/3
f 249/2/3 245/2/3 244/2/3
f 249/4/3 244/4/3 248/4/3
f 250/1/3 246/1/3 224/1/3
f 250/1/3 247/1/3 246/1/3
f 251/4/3 248/4/3 242/4/3
f 251/1/3 247/1/3 250/1/3
f 251/1/3 242/1/3 247/1/3
f 252/2/3 249/2/3 248/2/3
f 252/4/3 248/4/3 251/4/3
f 253/2/3 245/2/3 249/2/3
f 253/2/3 249/2/3 252/2/3
f 253/3/3 228/3/3 245/3/3
f 254/3/3 228/3/3 253/3/3
f 260/1/3 256/1/3 255/1/3
f 261/4/3 257/4/3 256/4/3
f 261/1/3 256/1/3 260/1/3
f 262/2/3 258/2/3 257/2/3
f 262/4/3 257/4/3 261/4/3
f 263/3/3 259/3/3 258/3/3
f 263/2/3 258/2/3 262/2/3
f 264/3/3 259/3/3 263/3/3
f 272/1/3 266/1/3 265/1/3
f 273/4/3 267/4/3 266/4/3
f 273/1/3 266/1/3 272/1/3
f 274/1/3 268/1/3 267/1/3
f 274/4/3 267/4/3 273/4/3
f 275/4/3 269/4/3 268/4/3
f 275/1/3 268/1/3 274/1/3
f 276/2/3 270/2/3 269/2/3
f 276/4/3 269/4/3 275/4/3
f 277/3/3 271/3/3 270/3/3
f 277/2/3 270/2/3 276/2/3
f 278/3/3 271/3/3 277/3/3
f 284/1/3 280/1/3 279/1/3
f 285/1/3 280/1/3 284/1/3
f 286/4/3 281/4/3 280/4/3
f 286/1/3 280/1/3 285/1/3
f 287/2/3 282/2/3 281/2/3
f 287/4/3 281/4/3 286/4/3
f 288/3/3 283/3/3 282/3/3
f 288/2/3 282/2/3 287/2/3
f 289/3/3 283/3/3 288/3/3
f 299/1/3 291/1/3 290/1/3
f 300/4/3 292/4/3 291/4/3
f 300/1/3 291/1/3 299/1/3
f 301/1/3 293/1/3 292/1/3
f 301/4/3 292/4/3 300/4/3
f 301/1/3 294/1/3 293/1/3
f 301/1/3 295/1/3 294/1/3
f 302/4/3 296/4/3 295/4/3
f 302/1/3 295/1/3 301/1/3
f 303/2/3 297/2/3 296/2/3
f 303/4/3 296/4/3 302/4/3
f 304/3/3 298/3/3 297/3/3
f 304/2/3 297/2/3 303/2/3
f 305/3/3 298/3/3 304/3/3
f 312/1/3 307/1/3 306/1/3
f 313/4/3 308/4/3 307/4/3
f 313/1/3 307/1/3 312/1/3
f 314/1/3 309/1/3 308/1/3
f 314/4/3 308/4/3 313/4/3
f 315/1/3 309/1/3 314/1/3
f 316/4/3 310/4/3 309/4/3
f 316/1/3 309/1/3 315/1/3
f 317/3/3 311/3/3 310/3/3
f 317/4/3 310/4/3 316/4/3
f 318/3/3 311/3/3 317/3/3
f 328/1/3 320/1/3 319/1/3
f 328/1/3 321/1/3 320/1/3
f 328/1/3 322/1/3 321/1/3
f 329/4/3 323/4/3 322/4/3
f 329/1/3 322/1/3 328/1/3
f 330/2/3 326/2/3 325/2/3
f 330/4/3 323/4/3 329/4/3
f 330/2/3 325/2/3 324/2/3
f 330/2/3 324/2/3 323/2/3
f 331/3/3 327/3/3 326/3/3
f 331/2/3 326/2/3 330/2/3
f 332/3/3 327/3/3 331/3/3
f 333/1/4 334/1/4 340/1/4
f 334/4/4 335/4/4 341/4/4
f 340/1/4 334/1/4 341/1/4
f 335/1/4 336/1/4 342/1/4
f 341/4/4 335/4/4 342/4/4
f 342/1/4 336/1/4 343/1/4
f 336/4/4 337/4/4 344/4/4
f 343/1/4 336/1/4 344/1/4
f 337/2/4 338/2/4 345/2/4
f 344/4/4 337/4/4 345/4/4
f 338/3/4 339/3/4 346/3/4
f 345/2/4 338/2/4 346/2/4
f 346/3/4 339/3/4 347/3/4
f 348/1/4 349/1/4 355/1/4
f 349/4/4 350/4/4 356/4/4
f 355/1/4 349/1/4 356/1/4
f 350/1/4 351/1/4 357/1/4
f 356/4/4 350/4/4 357/4/4
f 351/4/4 352/4/4 358/4/4
f 357/1/4 351/1/4 358/1/4
f 352/2/4 353/2/4 359/2/4
f 358/4/4 352/4/4 359/4/4
f 353/3/4 354/3/4 360/3/4
f 359/2/4 353/2/4 360/2/4
f 360/3/4 354/3/4 361/3/4
f 362/1/4 363/1/4 368/1/4
f 363/4/4 364/4/4 369/4/4
f 368/1/4 363/1/4 369/1/4
f 364/1/4 365/1/4 370/1/4
f 369/4/4 364/4/4 370/4/4
f 365/4/4 366/4/4 371/4/4
f 370/1/4 365/1/4 371/1/4
f 366/3/4 367/3/4 372/3/4
f 371/4/4 366/4/4 372/4/4
f 372/3/4 367/3/4 373/3/4
f 374/1/4 375/1/4 382/1/4
f 375/1/4 376/1/4 382/1/4
f 376/1/4 377/1/4 382/1/4
f 377/1/4 378/1/4 382/1/4
f 379/4/4 380/4/4 383/4/4
f 382/1/4 378/1/4 383/1/4
f 378/4/4 379/4/4 383/4/4
f 380/3/4 381/3/4 384/3/4
f 383/4/4 380/4/4 384/4/4
f 384/3/4 381/3/4 385/3/4
f 386/1/4 387/1/4 391/1/4
f 391/1/4 387/1/4 392/1/4
f 387/4/4 388/4/4 393/4/4
f 392/1/4 387/1/4 393/1/4
f 388/2/4 389/2/4 394/2/4
f 393/4/4 388/4/4 394/4/4
f 389/3/4 390/3/4 395/3/4
f 394/2/4 389/2/4 395/2/4
f 395/3/4 390/3/4 396/3/4
f 397/1/4 398/1/4 407/1/4
f 398/1/4 399/1/4 407/1/4
f 399/1/4 400/1/4 407/1/4
f 400/4/4 401/4/4 408/4/4
f 407/1/4 400/1/4 408/1/4
f 401/1/4 402/1/4 409/1/4
f 408/4/4 401/4/4 409/4/4
f 403/4/4 404/4/4 410/4/4
f 409/1/4 402/1/4 410/1/4
f 402/4/4 403/4/4 410/4/4
f 404/2/4 405/2/4 411/2/4
f 410/4/4 404/4/4 411/4/4
f 405/3/4 406/3/4 412/3/4
f 411/2/4 405/2/4 412/2/4
f 412/3/4 406/3/4 413/3/4
f 414/1/4 415/1/4 419/1/4
f 419/1/4 415/1/4 420/1/4
f 415/4/4 416/4/4 421/4/4
f 420/1/4 415/1/4 421/1/4
f 421/4/4 416/4/4 422/4/4
f 416/2/4 417/2/4 423/2/4
f 422/4/4 416/4/4 423/4/4
f 423/2/4 417/2/4 424/2/4
f 414/1/4 419/1/4 425/1/4
f 419/4/4 420/4/4 426/4/4
f 425/1/4 419/1/4 426/1/4
f 421/1/4 422/1/4 427/1/4
f 426/4/4 420/4/4 427/4/4
f 420/1/4 421/1/4 427/1/4
f 427/1/4 422/1/4 428/1/4
f 423/4/4 424/4/4 429/4/4
f 428/1/4 422/1/4 429/1/4
f 422/4/4 423/4/4 429/4/4
f 429/4/4 424/4/4 430/4/4
f 425/4/4 426/4/4 431/4/4
f 427/4/4 428/4/4 431/4/4
f 426/4/4 427/4/4 431/4/4
f 429/1/4 430/1/4 432/1/4
f 431/4/4 428/4/4 432/4/4
f 428/1/4 429/1/4 432/1/4
f 430/4/4 424/4/4 433/4/4
f 432/1/4 430/1/4 433/1/4
f 424/2/4 417/2/4 434/2/4
f 433/4/4 424/4/4 434/4/4
f 417/3/4 418/3/4 435/3/4
f 434/2/4 417/2/4 435/2/4
f 425/4/4 431/4/4 436/4/4
f 433/1/4 434/1/4 437/1/4
f 436/4/4 431/4/4 437/4/4
f 431/1/4 432/1/4 437/1/4
f 432/1/4 433/1/4 437/1/4
f 437/1/4 434/1/4 438/1/4
f 438/1/4 434/1/4 439/1/4
f 434/4/4 435/4/4 440/4/4
f 439/1/4 434/1/4 440/1/4
f 435/3/4 418/3/4 441/3/4
f 440/4/4 435/4/4 441/4/4
f 414/1/4 425/1/4 442/1/4
f 425/4/4 436/4/4 443/4/4
f 442/1/4 425/1/4 443/1/4
f 436/1/4 437/1/4 444/1/4
f 443/4/4 436/4/4 444/4/4
f 437/1/4 438/1/4 444/1/4
f 438/4/4 439/4/4 445/4/4
f 444/1/4 438/1/4 445/1/4
f 439/2/4 440/2/4 446/2/4
f 445/4/4 439/4/4 446/4/4
f 440/2/4 441/2/4 446/2/4
f 441/3/4 418/3/4 447/3/4
f 446/2/4 441/2/4 447/2/4
f 447/3/4 418/3/4 448/3/4
f 452/1/5 450/1/5 449/1/5
f 453/1/5 450/1/5 452/1/5
f 456/1/5 452/1/5 451/1/5
f 457/4/5 453/4/5 452/4/5
f 457/1/5 452/1/5 456/1/5
f 458/1/5 454/1/5 453/1/5
f 458/4/5 453/4/5 457/4/5
f 459/1/5 454/1/5 458/1/5
f 462/1/5 456/1/5 455/1/5
f 463/4/5 457/4/5 456/4/5
f 463/4/5 458/4/5 457/4/5
f 463/1/5 456/1/5 462/1/5
f 463/4/5 459/4/5 458/4/5
f 464/1/5 460/1/5 459/1/5
f 464/4/5 459/4/5 463/4/5
f 465/1/5 460/1/5 464/1/5
f 467/1/5 462/1/5 461/1/5
f 468/4/5 463/4/5 462/4/5
f 468/1/5 462/1/5 467/1/5
f 468/4/5 464/4/5 463/4/5
f 468/4/5 465/4/5 464/4/5
f 469/4/5 465/4/5 468/4/5
f 470/4/5 465/4/5 469/4/5
f 471/1/5 466/1/5 465/1/5
f 471/4/5 465/4/5 470/4/5
f 472/1/5 466/1/5 471/1/5
f 473/1/5 469/1/5 468/1/5
f 474/4/5 470/4/5 469/4/5
f 474/1/5 469/1/5 473/1/5
f 475/4/5 470/4/5 474/4/5
f 476/4/5 470/4/5 475/4/5
f 477/1/5 471/1/5 470/1/5
f 477/4/5 470/4/5 476/4/5
f 478/1/5 471/1/5 477/1/5
f 479/1/5 475/1/5 474/1/5
f 480/4/5 476/4/5 475/4/5
f 480/1/5 475/1/5 479/1/5
f 481/1/5 477/1/5 476/1/5
f 481/4/5 476/4/5 480/4/5
f 482/1/5 477/1/5 481/1/5
f 483/1/5 481/1/5 480/1/5
f 484/1/5 481/1/5 483/1/5
f 485/3/6 486/3/6 488/3/6
f 488/3/6 486/3/6 489/3/6
f 487/3/6 488/3/6 492/3/6
f 489/3/6 490/3/6 492/3/6
f 488/3/6 489/3/6 492/3/6
f 492/3/6 490/3/6 493/3/6
f 491/3/6 492/3/6 496/3/6
f 493/3/6 494/3/6 496/3/6
f 492/3/6 493/3/6 496/3/6
f 496/3/6 494/3/6 497/3/6
f 495/3/6 496/3/6 499/3/6
f 497/3/6 498/3/6 499/3/6
f 496/3/6 497/3/6 499/3/6
f 499/3/6 498/3/6 500/3/6
f 500/3/6 498/3/6 501/3/6
f 501/3/6 498/3/6 502/3/6
f 500/3/6 501/3/6 503/3/6
f 503/3/6 501/3/6 504/3/6
f 504/3/6 501/3/6 505/3/6
f 505/3/6 501/3/6 506/3/6
f 504/3/6 505/3/6 507/3/6
f 507/3/6 505/3/6 508/3/6
f 508/3/6 505/3/6 509/3/6
f 509/3/6 505/3/6 510/3/6
f 508/3/6 509/3/6 511/3/6
f 511/3/6 509/3/6 512/3/6
