# MagicaVoxel @ Ephtracy

# group
g Paper

# material
mtllib Paper.mtl
usemtl palette

# normals
vn -1 0 0
vn 1 0 0
vn 0 0 1
vn 0 0 -1
vn 0 -1 0
vn 0 1 0

# texcoords
vt 0.958984 0.5
vt 0.978516 0.5
vt 0.986328 0.5

# verts
v -7.5 4 0.5
v -7.5 4 -0.5
v -7.5 20 0.5
v -7.5 20 -0.5
v -6.5 3 0.5
v -6.5 3 -0.5
v -6.5 4 0.5
v -6.5 4 -0.5
v -5.5 2 0.5
v -5.5 2 -0.5
v -5.5 3 0.5
v -5.5 3 -0.5
v -4.5 19 0.5
v -4.5 19 -0.5
v -4.5 20 0.5
v -4.5 20 -0.5
v -1.5 1 0.5
v -1.5 1 -0.5
v -1.5 3 0.5
v -1.5 3 -0.5
v 3.5 2 0.5
v 3.5 2 -0.5
v 3.5 4 0.5
v 3.5 4 -0.5
v 3.5 19 0.5
v 3.5 19 -0.5
v 3.5 20 0.5
v 3.5 20 -0.5
v 5.5 19 0.5
v 5.5 19 -0.5
v 5.5 20 0.5
v 5.5 20 -0.5
v -5.5 19 0.5
v -5.5 19 -0.5
v -5.5 20 0.5
v -5.5 20 -0.5
v -4.5 2 0.5
v -4.5 2 -0.5
v -4.5 3 0.5
v -4.5 3 -0.5
v 0.5 1 0.5
v 0.5 1 -0.5
v 0.5 2 0.5
v 0.5 2 -0.5
v 1.5 2 0.5
v 1.5 2 -0.5
v 1.5 3 0.5
v 1.5 3 -0.5
v 1.5 19 0.5
v 1.5 19 -0.5
v 1.5 20 0.5
v 1.5 20 -0.5
v 2.5 3 0.5
v 2.5 3 -0.5
v 2.5 4 0.5
v 2.5 4 -0.5
v 4.5 19 0.5
v 4.5 19 -0.5
v 4.5 20 0.5
v 4.5 20 -0.5
v 5.5 2 0.5
v 5.5 2 -0.5
v 5.5 3 0.5
v 5.5 3 -0.5
v 6.5 3 0.5
v 6.5 3 -0.5
v 6.5 4 0.5
v 6.5 4 -0.5
v 7.5 4 0.5
v 7.5 4 -0.5
v 7.5 20 0.5
v 7.5 20 -0.5
v -7.5 4 0.5
v -7.5 20 0.5
v -6.5 3 0.5
v -6.5 4 0.5
v -6.5 8 0.5
v -6.5 10 0.5
v -6.5 13 0.5
v -6.5 14 0.5
v -5.5 2 0.5
v -5.5 3 0.5
v -5.5 7 0.5
v -5.5 8 0.5
v -5.5 9 0.5
v -5.5 10 0.5
v -5.5 11 0.5
v -5.5 13 0.5
v -5.5 14 0.5
v -5.5 19 0.5
v -5.5 20 0.5
v -4.5 2 0.5
v -4.5 3 0.5
v -4.5 7 0.5
v -4.5 9 0.5
v -4.5 10 0.5
v -4.5 11 0.5
v -4.5 12 0.5
v -4.5 19 0.5
v -4.5 20 0.5
v -3.5 9 0.5
v -3.5 10 0.5
v -3.5 12 0.5
v -3.5 13 0.5
v -2.5 7 0.5
v -2.5 9 0.5
v -2.5 12 0.5
v -2.5 14 0.5
v -1.5 1 0.5
v -1.5 3 0.5
v -1.5 7 0.5
v -1.5 8 0.5
v -1.5 9 0.5
v -1.5 10 0.5
v -1.5 12 0.5
v -1.5 14 0.5
v -1.5 17 0.5
v -1.5 18 0.5
v -0.5 7 0.5
v -0.5 8 0.5
v -0.5 10 0.5
v -0.5 11 0.5
v -0.5 14 0.5
v -0.5 16 0.5
v -0.5 17 0.5
v -0.5 18 0.5
v -0.5 19 0.5
v 0.5 1 0.5
v 0.5 2 0.5
v 0.5 7 0.5
v 0.5 8 0.5
v 0.5 11 0.5
v 0.5 14 0.5
v 0.5 16 0.5
v 0.5 17 0.5
v 0.5 18 0.5
v 0.5 19 0.5
v 1.5 2 0.5
v 1.5 3 0.5
v 1.5 8 0.5
v 1.5 9 0.5
v 1.5 12 0.5
v 1.5 13 0.5
v 1.5 17 0.5
v 1.5 18 0.5
v 1.5 19 0.5
v 1.5 20 0.5
v 2.5 3 0.5
v 2.5 4 0.5
v 2.5 7 0.5
v 2.5 8 0.5
v 2.5 9 0.5
v 2.5 10 0.5
v 2.5 11 0.5
v 2.5 12 0.5
v 2.5 13 0.5
v 2.5 14 0.5
v 3.5 2 0.5
v 3.5 4 0.5
v 3.5 7 0.5
v 3.5 10 0.5
v 3.5 12 0.5
v 3.5 14 0.5
v 3.5 19 0.5
v 3.5 20 0.5
v 4.5 7 0.5
v 4.5 10 0.5
v 4.5 11 0.5
v 4.5 12 0.5
v 4.5 13 0.5
v 4.5 14 0.5
v 4.5 19 0.5
v 4.5 20 0.5
v 5.5 2 0.5
v 5.5 3 0.5
v 5.5 7 0.5
v 5.5 9 0.5
v 5.5 12 0.5
v 5.5 13 0.5
v 5.5 19 0.5
v 5.5 20 0.5
v 6.5 3 0.5
v 6.5 4 0.5
v 6.5 9 0.5
v 6.5 10 0.5
v 6.5 12 0.5
v 6.5 14 0.5
v 7.5 4 0.5
v 7.5 20 0.5
v -7.5 4 -0.5
v -7.5 20 -0.5
v -6.5 3 -0.5
v -6.5 4 -0.5
v -6.5 8 -0.5
v -6.5 10 -0.5
v -6.5 13 -0.5
v -6.5 14 -0.5
v -5.5 2 -0.5
v -5.5 3 -0.5
v -5.5 7 -0.5
v -5.5 8 -0.5
v -5.5 9 -0.5
v -5.5 10 -0.5
v -5.5 11 -0.5
v -5.5 13 -0.5
v -5.5 14 -0.5
v -5.5 19 -0.5
v -5.5 20 -0.5
v -4.5 2 -0.5
v -4.5 3 -0.5
v -4.5 7 -0.5
v -4.5 9 -0.5
v -4.5 10 -0.5
v -4.5 11 -0.5
v -4.5 12 -0.5
v -4.5 19 -0.5
v -4.5 20 -0.5
v -3.5 9 -0.5
v -3.5 10 -0.5
v -3.5 12 -0.5
v -3.5 13 -0.5
v -2.5 7 -0.5
v -2.5 9 -0.5
v -2.5 12 -0.5
v -2.5 14 -0.5
v -1.5 1 -0.5
v -1.5 3 -0.5
v -1.5 7 -0.5
v -1.5 8 -0.5
v -1.5 9 -0.5
v -1.5 10 -0.5
v -1.5 12 -0.5
v -1.5 14 -0.5
v -1.5 17 -0.5
v -1.5 18 -0.5
v -0.5 7 -0.5
v -0.5 8 -0.5
v -0.5 10 -0.5
v -0.5 11 -0.5
v -0.5 14 -0.5
v -0.5 16 -0.5
v -0.5 17 -0.5
v -0.5 18 -0.5
v -0.5 19 -0.5
v 0.5 1 -0.5
v 0.5 2 -0.5
v 0.5 7 -0.5
v 0.5 8 -0.5
v 0.5 11 -0.5
v 0.5 14 -0.5
v 0.5 16 -0.5
v 0.5 17 -0.5
v 0.5 18 -0.5
v 0.5 19 -0.5
v 1.5 2 -0.5
v 1.5 3 -0.5
v 1.5 8 -0.5
v 1.5 9 -0.5
v 1.5 12 -0.5
v 1.5 13 -0.5
v 1.5 17 -0.5
v 1.5 18 -0.5
v 1.5 19 -0.5
v 1.5 20 -0.5
v 2.5 3 -0.5
v 2.5 4 -0.5
v 2.5 7 -0.5
v 2.5 8 -0.5
v 2.5 9 -0.5
v 2.5 10 -0.5
v 2.5 11 -0.5
v 2.5 12 -0.5
v 2.5 13 -0.5
v 2.5 14 -0.5
v 3.5 2 -0.5
v 3.5 4 -0.5
v 3.5 7 -0.5
v 3.5 10 -0.5
v 3.5 12 -0.5
v 3.5 14 -0.5
v 3.5 19 -0.5
v 3.5 20 -0.5
v 4.5 7 -0.5
v 4.5 10 -0.5
v 4.5 11 -0.5
v 4.5 12 -0.5
v 4.5 13 -0.5
v 4.5 14 -0.5
v 4.5 19 -0.5
v 4.5 20 -0.5
v 5.5 2 -0.5
v 5.5 3 -0.5
v 5.5 7 -0.5
v 5.5 9 -0.5
v 5.5 12 -0.5
v 5.5 13 -0.5
v 5.5 19 -0.5
v 5.5 20 -0.5
v 6.5 3 -0.5
v 6.5 4 -0.5
v 6.5 9 -0.5
v 6.5 10 -0.5
v 6.5 12 -0.5
v 6.5 14 -0.5
v 7.5 4 -0.5
v 7.5 20 -0.5
v -1.5 1 0.5
v 0.5 1 0.5
v -1.5 1 -0.5
v 0.5 1 -0.5
v -5.5 2 0.5
v -4.5 2 0.5
v 0.5 2 0.5
v 1.5 2 0.5
v 3.5 2 0.5
v 5.5 2 0.5
v -5.5 2 -0.5
v -4.5 2 -0.5
v 0.5 2 -0.5
v 1.5 2 -0.5
v 3.5 2 -0.5
v 5.5 2 -0.5
v -6.5 3 0.5
v -5.5 3 0.5
v -4.5 3 0.5
v -1.5 3 0.5
v 1.5 3 0.5
v 2.5 3 0.5
v 5.5 3 0.5
v 6.5 3 0.5
v -6.5 3 -0.5
v -5.5 3 -0.5
v -4.5 3 -0.5
v -1.5 3 -0.5
v 1.5 3 -0.5
v 2.5 3 -0.5
v 5.5 3 -0.5
v 6.5 3 -0.5
v -7.5 4 0.5
v -6.5 4 0.5
v 2.5 4 0.5
v 3.5 4 0.5
v 6.5 4 0.5
v 7.5 4 0.5
v -7.5 4 -0.5
v -6.5 4 -0.5
v 2.5 4 -0.5
v 3.5 4 -0.5
v 6.5 4 -0.5
v 7.5 4 -0.5
v -5.5 19 0.5
v -4.5 19 0.5
v 1.5 19 0.5
v 3.5 19 0.5
v 4.5 19 0.5
v 5.5 19 0.5
v -5.5 19 -0.5
v -4.5 19 -0.5
v 1.5 19 -0.5
v 3.5 19 -0.5
v 4.5 19 -0.5
v 5.5 19 -0.5
v -7.5 20 0.5
v -5.5 20 0.5
v -4.5 20 0.5
v 1.5 20 0.5
v 3.5 20 0.5
v 4.5 20 0.5
v 5.5 20 0.5
v 7.5 20 0.5
v -7.5 20 -0.5
v -5.5 20 -0.5
v -4.5 20 -0.5
v 1.5 20 -0.5
v 3.5 20 -0.5
v 4.5 20 -0.5
v 5.5 20 -0.5
v 7.5 20 -0.5

# faces
f 3/1/1 2/1/1 1/1/1
f 4/1/1 2/1/1 3/1/1
f 7/1/1 6/1/1 5/1/1
f 8/1/1 6/1/1 7/1/1
f 11/1/1 10/1/1 9/1/1
f 12/1/1 10/1/1 11/1/1
f 15/1/1 14/1/1 13/1/1
f 16/1/1 14/1/1 15/1/1
f 19/1/1 18/1/1 17/1/1
f 20/1/1 18/1/1 19/1/1
f 23/1/1 22/1/1 21/1/1
f 24/1/1 22/1/1 23/1/1
f 27/1/1 26/1/1 25/1/1
f 28/1/1 26/1/1 27/1/1
f 31/1/1 30/1/1 29/1/1
f 32/1/1 30/1/1 31/1/1
f 33/1/2 34/1/2 35/1/2
f 35/1/2 34/1/2 36/1/2
f 37/1/2 38/1/2 39/1/2
f 39/1/2 38/1/2 40/1/2
f 41/1/2 42/1/2 43/1/2
f 43/1/2 42/1/2 44/1/2
f 45/1/2 46/1/2 47/1/2
f 47/1/2 46/1/2 48/1/2
f 49/1/2 50/1/2 51/1/2
f 51/1/2 50/1/2 52/1/2
f 53/1/2 54/1/2 55/1/2
f 55/1/2 54/1/2 56/1/2
f 57/1/2 58/1/2 59/1/2
f 59/1/2 58/1/2 60/1/2
f 61/1/2 62/1/2 63/1/2
f 63/1/2 62/1/2 64/1/2
f 65/1/2 66/1/2 67/1/2
f 67/1/2 66/1/2 68/1/2
f 69/1/2 70/1/2 71/1/2
f 71/1/2 70/1/2 72/1/2
f 76/1/3 74/1/3 73/1/3
f 77/1/3 74/1/3 76/1/3
f 78/1/3 74/1/3 77/1/3
f 79/1/3 74/1/3 78/1/3
f 80/1/3 74/1/3 79/1/3
f 82/1/3 76/1/3 75/1/3
f 82/1/3 77/1/3 76/1/3
f 83/1/3 77/1/3 82/1/3
f 84/2/3 78/2/3 77/2/3
f 84/1/3 77/1/3 83/1/3
f 85/2/3 78/2/3 84/2/3
f 86/1/3 79/1/3 78/1/3
f 86/2/3 78/2/3 85/2/3
f 87/1/3 79/1/3 86/1/3
f 88/2/3 80/2/3 79/2/3
f 88/1/3 79/1/3 87/1/3
f 89/1/3 74/1/3 80/1/3
f 89/2/3 80/2/3 88/2/3
f 90/1/3 74/1/3 89/1/3
f 91/1/3 74/1/3 90/1/3
f 92/1/3 83/1/3 82/1/3
f 92/1/3 82/1/3 81/1/3
f 93/1/3 83/1/3 92/1/3
f 94/2/3 85/2/3 84/2/3
f 94/1/3 83/1/3 93/1/3
f 94/2/3 84/2/3 83/2/3
f 95/1/3 87/1/3 86/1/3
f 95/2/3 85/2/3 94/2/3
f 95/1/3 86/1/3 85/1/3
f 96/1/3 87/1/3 95/1/3
f 97/2/3 88/2/3 87/2/3
f 97/1/3 87/1/3 96/1/3
f 98/2/3 88/2/3 97/2/3
f 99/1/3 90/1/3 89/1/3
f 99/1/3 89/1/3 88/1/3
f 101/2/3 96/2/3 95/2/3
f 101/1/3 94/1/3 93/1/3
f 101/1/3 95/1/3 94/1/3
f 102/1/3 97/1/3 96/1/3
f 102/2/3 96/2/3 101/2/3
f 102/1/3 98/1/3 97/1/3
f 103/2/3 88/2/3 98/2/3
f 103/1/3 98/1/3 102/1/3
f 104/1/3 100/1/3 99/1/3
f 104/2/3 88/2/3 103/2/3
f 104/1/3 99/1/3 88/1/3
f 105/1/3 103/1/3 102/1/3
f 105/1/3 101/1/3 93/1/3
f 105/1/3 104/1/3 103/1/3
f 105/1/3 102/1/3 101/1/3
f 106/1/3 104/1/3 105/1/3
f 107/1/3 104/1/3 106/1/3
f 108/1/3 100/1/3 104/1/3
f 108/1/3 104/1/3 107/1/3
f 110/1/3 105/1/3 93/1/3
f 111/2/3 106/2/3 105/2/3
f 111/1/3 105/1/3 110/1/3
f 112/2/3 106/2/3 111/2/3
f 113/1/3 107/1/3 106/1/3
f 113/2/3 106/2/3 112/2/3
f 114/1/3 107/1/3 113/1/3
f 115/2/3 108/2/3 107/2/3
f 115/1/3 107/1/3 114/1/3
f 116/1/3 100/1/3 108/1/3
f 116/2/3 108/2/3 115/2/3
f 117/1/3 100/1/3 116/1/3
f 118/1/3 100/1/3 117/1/3
f 119/1/3 112/1/3 111/1/3
f 119/1/3 110/1/3 109/1/3
f 119/1/3 111/1/3 110/1/3
f 120/2/3 114/2/3 113/2/3
f 120/1/3 112/1/3 119/1/3
f 120/2/3 113/2/3 112/2/3
f 121/1/3 115/1/3 114/1/3
f 121/2/3 114/2/3 120/2/3
f 121/1/3 117/1/3 116/1/3
f 121/1/3 116/1/3 115/1/3
f 122/1/3 117/1/3 121/1/3
f 123/1/3 117/1/3 122/1/3
f 124/1/3 117/1/3 123/1/3
f 125/2/3 118/2/3 117/2/3
f 125/1/3 117/1/3 124/1/3
f 126/1/3 100/1/3 118/1/3
f 126/2/3 118/2/3 125/2/3
f 127/1/3 100/1/3 126/1/3
f 128/1/3 119/1/3 109/1/3
f 129/1/3 119/1/3 128/1/3
f 130/2/3 120/2/3 119/2/3
f 130/1/3 119/1/3 129/1/3
f 131/1/3 121/1/3 120/1/3
f 131/2/3 120/2/3 130/2/3
f 131/1/3 122/1/3 121/1/3
f 132/2/3 123/2/3 122/2/3
f 132/1/3 122/1/3 131/1/3
f 133/1/3 124/1/3 123/1/3
f 133/2/3 123/2/3 132/2/3
f 134/2/3 125/2/3 124/2/3
f 134/1/3 124/1/3 133/1/3
f 135/3/3 126/3/3 125/3/3
f 135/2/3 125/2/3 134/2/3
f 136/2/3 127/2/3 126/2/3
f 136/3/3 126/3/3 135/3/3
f 137/1/3 100/1/3 127/1/3
f 137/2/3 127/2/3 136/2/3
f 138/1/3 133/1/3 132/1/3
f 138/1/3 132/1/3 131/1/3
f 138/1/3 135/1/3 134/1/3
f 138/1/3 134/1/3 133/1/3
f 138/1/3 131/1/3 130/1/3
f 138/1/3 130/1/3 129/1/3
f 139/1/3 135/1/3 138/1/3
f 140/1/3 135/1/3 139/1/3
f 141/1/3 135/1/3 140/1/3
f 142/1/3 135/1/3 141/1/3
f 143/1/3 135/1/3 142/1/3
f 144/2/3 136/2/3 135/2/3
f 144/1/3 135/1/3 143/1/3
f 145/1/3 137/1/3 136/1/3
f 145/2/3 136/2/3 144/2/3
f 146/1/3 100/1/3 137/1/3
f 146/1/3 137/1/3 145/1/3
f 147/1/3 100/1/3 146/1/3
f 148/1/3 140/1/3 139/1/3
f 149/1/3 140/1/3 148/1/3
f 150/1/3 140/1/3 149/1/3
f 151/2/3 141/2/3 140/2/3
f 151/1/3 140/1/3 150/1/3
f 152/1/3 142/1/3 141/1/3
f 152/2/3 141/2/3 151/2/3
f 153/1/3 142/1/3 152/1/3
f 154/1/3 142/1/3 153/1/3
f 155/2/3 143/2/3 142/2/3
f 155/1/3 142/1/3 154/1/3
f 156/1/3 145/1/3 144/1/3
f 156/2/3 143/2/3 155/2/3
f 156/1/3 144/1/3 143/1/3
f 156/1/3 146/1/3 145/1/3
f 157/1/3 146/1/3 156/1/3
f 159/1/3 150/1/3 149/1/3
f 160/2/3 153/2/3 152/2/3
f 160/2/3 152/2/3 151/2/3
f 160/1/3 150/1/3 159/1/3
f 160/2/3 151/2/3 150/2/3
f 161/1/3 154/1/3 153/1/3
f 161/2/3 153/2/3 160/2/3
f 162/2/3 155/2/3 154/2/3
f 162/2/3 157/2/3 156/2/3
f 162/2/3 156/2/3 155/2/3
f 163/1/3 146/1/3 157/1/3
f 163/2/3 157/2/3 162/2/3
f 164/1/3 146/1/3 163/1/3
f 166/1/3 159/1/3 158/1/3
f 166/1/3 160/1/3 159/1/3
f 166/1/3 161/1/3 160/1/3
f 167/1/3 154/1/3 161/1/3
f 167/1/3 161/1/3 166/1/3
f 168/2/3 162/2/3 154/2/3
f 168/1/3 154/1/3 167/1/3
f 169/1/3 165/1/3 164/1/3
f 169/2/3 162/2/3 168/2/3
f 169/1/3 164/1/3 163/1/3
f 169/1/3 163/1/3 162/1/3
f 170/1/3 165/1/3 169/1/3
f 171/1/3 165/1/3 170/1/3
f 172/1/3 165/1/3 171/1/3
f 173/1/3 165/1/3 172/1/3
f 174/1/3 166/1/3 158/1/3
f 175/1/3 166/1/3 174/1/3
f 176/2/3 167/2/3 166/2/3
f 176/1/3 166/1/3 175/1/3
f 177/2/3 167/2/3 176/2/3
f 178/1/3 168/1/3 167/1/3
f 178/1/3 169/1/3 168/1/3
f 178/1/3 170/1/3 169/1/3
f 179/2/3 171/2/3 170/2/3
f 179/1/3 170/1/3 178/1/3
f 180/1/3 172/1/3 171/1/3
f 182/1/3 177/1/3 176/1/3
f 182/1/3 176/1/3 175/1/3
f 183/1/3 177/1/3 182/1/3
f 184/2/3 167/2/3 177/2/3
f 184/1/3 177/1/3 183/1/3
f 185/1/3 178/1/3 167/1/3
f 185/2/3 167/2/3 184/2/3
f 186/2/3 179/2/3 178/2/3
f 186/1/3 178/1/3 185/1/3
f 187/1/3 181/1/3 180/1/3
f 187/2/3 179/2/3 186/2/3
f 187/1/3 180/1/3 171/1/3
f 187/2/3 171/2/3 179/2/3
f 188/1/3 186/1/3 185/1/3
f 188/1/3 187/1/3 186/1/3
f 188/1/3 185/1/3 184/1/3
f 188/1/3 184/1/3 183/1/3
f 189/1/3 181/1/3 187/1/3
f 189/1/3 187/1/3 188/1/3
f 190/1/4 191/1/4 193/1/4
f 193/1/4 191/1/4 194/1/4
f 194/1/4 191/1/4 195/1/4
f 195/1/4 191/1/4 196/1/4
f 196/1/4 191/1/4 197/1/4
f 192/1/4 193/1/4 199/1/4
f 193/1/4 194/1/4 199/1/4
f 199/1/4 194/1/4 200/1/4
f 194/2/4 195/2/4 201/2/4
f 200/1/4 194/1/4 201/1/4
f 201/2/4 195/2/4 202/2/4
f 195/1/4 196/1/4 203/1/4
f 202/2/4 195/2/4 203/2/4
f 203/1/4 196/1/4 204/1/4
f 196/2/4 197/2/4 205/2/4
f 204/1/4 196/1/4 205/1/4
f 197/1/4 191/1/4 206/1/4
f 205/2/4 197/2/4 206/2/4
f 206/1/4 191/1/4 207/1/4
f 207/1/4 191/1/4 208/1/4
f 199/1/4 200/1/4 209/1/4
f 198/1/4 199/1/4 209/1/4
f 209/1/4 200/1/4 210/1/4
f 201/2/4 202/2/4 211/2/4
f 210/1/4 200/1/4 211/1/4
f 200/2/4 201/2/4 211/2/4
f 203/1/4 204/1/4 212/1/4
f 211/2/4 202/2/4 212/2/4
f 202/1/4 203/1/4 212/1/4
f 212/1/4 204/1/4 213/1/4
f 204/2/4 205/2/4 214/2/4
f 213/1/4 204/1/4 214/1/4
f 214/2/4 205/2/4 215/2/4
f 206/1/4 207/1/4 216/1/4
f 205/1/4 206/1/4 216/1/4
f 212/2/4 213/2/4 218/2/4
f 210/1/4 211/1/4 218/1/4
f 211/1/4 212/1/4 218/1/4
f 213/1/4 214/1/4 219/1/4
f 218/2/4 213/2/4 219/2/4
f 214/1/4 215/1/4 219/1/4
f 215/2/4 205/2/4 220/2/4
f 219/1/4 215/1/4 220/1/4
f 216/1/4 217/1/4 221/1/4
f 220/2/4 205/2/4 221/2/4
f 205/1/4 216/1/4 221/1/4
f 219/1/4 220/1/4 222/1/4
f 210/1/4 218/1/4 222/1/4
f 220/1/4 221/1/4 222/1/4
f 218/1/4 219/1/4 222/1/4
f 222/1/4 221/1/4 223/1/4
f 223/1/4 221/1/4 224/1/4
f 221/1/4 217/1/4 225/1/4
f 224/1/4 221/1/4 225/1/4
f 210/1/4 222/1/4 227/1/4
f 222/2/4 223/2/4 228/2/4
f 227/1/4 222/1/4 228/1/4
f 228/2/4 223/2/4 229/2/4
f 223/1/4 224/1/4 230/1/4
f 229/2/4 223/2/4 230/2/4
f 230/1/4 224/1/4 231/1/4
f 224/2/4 225/2/4 232/2/4
f 231/1/4 224/1/4 232/1/4
f 225/1/4 217/1/4 233/1/4
f 232/2/4 225/2/4 233/2/4
f 233/1/4 217/1/4 234/1/4
f 234/1/4 217/1/4 235/1/4
f 228/1/4 229/1/4 236/1/4
f 226/1/4 227/1/4 236/1/4
f 227/1/4 228/1/4 236/1/4
f 230/2/4 231/2/4 237/2/4
f 236/1/4 229/1/4 237/1/4
f 229/2/4 230/2/4 237/2/4
f 231/1/4 232/1/4 238/1/4
f 237/2/4 231/2/4 238/2/4
f 233/1/4 234/1/4 238/1/4
f 232/1/4 233/1/4 238/1/4
f 238/1/4 234/1/4 239/1/4
f 239/1/4 234/1/4 240/1/4
f 240/1/4 234/1/4 241/1/4
f 234/2/4 235/2/4 242/2/4
f 241/1/4 234/1/4 242/1/4
f 235/1/4 217/1/4 243/1/4
f 242/2/4 235/2/4 243/2/4
f 243/1/4 217/1/4 244/1/4
f 226/1/4 236/1/4 245/1/4
f 245/1/4 236/1/4 246/1/4
f 236/2/4 237/2/4 247/2/4
f 246/1/4 236/1/4 247/1/4
f 237/1/4 238/1/4 248/1/4
f 247/2/4 237/2/4 248/2/4
f 238/1/4 239/1/4 248/1/4
f 239/2/4 240/2/4 249/2/4
f 248/1/4 239/1/4 249/1/4
f 240/1/4 241/1/4 250/1/4
f 249/2/4 240/2/4 250/2/4
f 241/2/4 242/2/4 251/2/4
f 250/1/4 241/1/4 251/1/4
f 242/3/4 243/3/4 252/3/4
f 251/2/4 242/2/4 252/2/4
f 243/2/4 244/2/4 253/2/4
f 252/3/4 243/3/4 253/3/4
f 244/1/4 217/1/4 254/1/4
f 253/2/4 244/2/4 254/2/4
f 249/1/4 250/1/4 255/1/4
f 248/1/4 249/1/4 255/1/4
f 251/1/4 252/1/4 255/1/4
f 250/1/4 251/1/4 255/1/4
f 247/1/4 248/1/4 255/1/4
f 246/1/4 247/1/4 255/1/4
f 255/1/4 252/1/4 256/1/4
f 256/1/4 252/1/4 257/1/4
f 257/1/4 252/1/4 258/1/4
f 258/1/4 252/1/4 259/1/4
f 259/1/4 252/1/4 260/1/4
f 252/2/4 253/2/4 261/2/4
f 260/1/4 252/1/4 261/1/4
f 253/1/4 254/1/4 262/1/4
f 261/2/4 253/2/4 262/2/4
f 254/1/4 217/1/4 263/1/4
f 262/1/4 254/1/4 263/1/4
f 263/1/4 217/1/4 264/1/4
f 256/1/4 257/1/4 265/1/4
f 265/1/4 257/1/4 266/1/4
f 266/1/4 257/1/4 267/1/4
f 257/2/4 258/2/4 268/2/4
f 267/1/4 257/1/4 268/1/4
f 258/1/4 259/1/4 269/1/4
f 268/2/4 258/2/4 269/2/4
f 269/1/4 259/1/4 270/1/4
f 270/1/4 259/1/4 271/1/4
f 259/2/4 260/2/4 272/2/4
f 271/1/4 259/1/4 272/1/4
f 261/1/4 262/1/4 273/1/4
f 272/2/4 260/2/4 273/2/4
f 260/1/4 261/1/4 273/1/4
f 262/1/4 263/1/4 273/1/4
f 273/1/4 263/1/4 274/1/4
f 266/1/4 267/1/4 276/1/4
f 269/2/4 270/2/4 277/2/4
f 268/2/4 269/2/4 277/2/4
f 276/1/4 267/1/4 277/1/4
f 267/2/4 268/2/4 277/2/4
f 270/1/4 271/1/4 278/1/4
f 277/2/4 270/2/4 278/2/4
f 271/2/4 272/2/4 279/2/4
f 273/2/4 274/2/4 279/2/4
f 272/2/4 273/2/4 279/2/4
f 274/1/4 263/1/4 280/1/4
f 279/2/4 274/2/4 280/2/4
f 280/1/4 263/1/4 281/1/4
f 275/1/4 276/1/4 283/1/4
f 276/1/4 277/1/4 283/1/4
f 277/1/4 278/1/4 283/1/4
f 278/1/4 271/1/4 284/1/4
f 283/1/4 278/1/4 284/1/4
f 271/2/4 279/2/4 285/2/4
f 284/1/4 271/1/4 285/1/4
f 281/1/4 282/1/4 286/1/4
f 285/2/4 279/2/4 286/2/4
f 280/1/4 281/1/4 286/1/4
f 279/1/4 280/1/4 286/1/4
f 286/1/4 282/1/4 287/1/4
f 287/1/4 282/1/4 288/1/4
f 288/1/4 282/1/4 289/1/4
f 289/1/4 282/1/4 290/1/4
f 275/1/4 283/1/4 291/1/4
f 291/1/4 283/1/4 292/1/4
f 283/2/4 284/2/4 293/2/4
f 292/1/4 283/1/4 293/1/4
f 293/2/4 284/2/4 294/2/4
f 284/1/4 285/1/4 295/1/4
f 285/1/4 286/1/4 295/1/4
f 286/1/4 287/1/4 295/1/4
f 287/2/4 288/2/4 296/2/4
f 295/1/4 287/1/4 296/1/4
f 288/1/4 289/1/4 297/1/4
f 293/1/4 294/1/4 299/1/4
f 292/1/4 293/1/4 299/1/4
f 299/1/4 294/1/4 300/1/4
f 294/2/4 284/2/4 301/2/4
f 300/1/4 294/1/4 301/1/4
f 284/1/4 295/1/4 302/1/4
f 301/2/4 284/2/4 302/2/4
f 295/2/4 296/2/4 303/2/4
f 302/1/4 295/1/4 303/1/4
f 297/1/4 298/1/4 304/1/4
f 303/2/4 296/2/4 304/2/4
f 288/1/4 297/1/4 304/1/4
f 296/2/4 288/2/4 304/2/4
f 302/1/4 303/1/4 305/1/4
f 303/1/4 304/1/4 305/1/4
f 301/1/4 302/1/4 305/1/4
f 300/1/4 301/1/4 305/1/4
f 304/1/4 298/1/4 306/1/4
f 305/1/4 304/1/4 306/1/4
f 309/1/5 308/1/5 307/1/5
f 310/1/5 308/1/5 309/1/5
f 317/1/5 312/1/5 311/1/5
f 318/1/5 312/1/5 317/1/5
f 319/1/5 314/1/5 313/1/5
f 320/1/5 314/1/5 319/1/5
f 321/1/5 316/1/5 315/1/5
f 322/1/5 316/1/5 321/1/5
f 331/1/5 324/1/5 323/1/5
f 332/1/5 324/1/5 331/1/5
f 333/1/5 326/1/5 325/1/5
f 334/1/5 326/1/5 333/1/5
f 335/1/5 328/1/5 327/1/5
f 336/1/5 328/1/5 335/1/5
f 337/1/5 330/1/5 329/1/5
f 338/1/5 330/1/5 337/1/5
f 345/1/5 340/1/5 339/1/5
f 346/1/5 340/1/5 345/1/5
f 347/1/5 342/1/5 341/1/5
f 348/1/5 342/1/5 347/1/5
f 349/1/5 344/1/5 343/1/5
f 350/1/5 344/1/5 349/1/5
f 351/1/6 352/1/6 357/1/6
f 357/1/6 352/1/6 358/1/6
f 353/1/6 354/1/6 359/1/6
f 359/1/6 354/1/6 360/1/6
f 355/1/6 356/1/6 361/1/6
f 361/1/6 356/1/6 362/1/6
f 363/1/6 364/1/6 371/1/6
f 371/1/6 364/1/6 372/1/6
f 365/1/6 366/1/6 373/1/6
f 373/1/6 366/1/6 374/1/6
f 367/1/6 368/1/6 375/1/6
f 375/1/6 368/1/6 376/1/6
f 369/1/6 370/1/6 377/1/6
f 377/1/6 370/1/6 378/1/6
