# MagicaVoxel @ Ephtracy

# group
g Switch

# material
mtllib Switch.mtl
usemtl palette

# normals
vn -1 0 0
vn 1 0 0
vn 0 0 1
vn 0 0 -1
vn 0 -1 0
vn 0 1 0

# texcoords
vt 0.978516 0.5
vt 0.986328 0.5
vt 0.990234 0.5

# verts
v -3 0 4.5
v -3 0 -4.5
v -3 1 4.5
v -3 1 1.5
v -3 1 -1.5
v -3 1 -4.5
v -3 2 1.5
v -3 2 -1.5
v -3 3 4.5
v -3 3 3.5
v -3 3 2.5
v -3 3 -2.5
v -3 3 -3.5
v -3 3 -4.5
v -3 4 3.5
v -3 4 2.5
v -3 4 1.5
v -3 4 -1.5
v -3 4 -2.5
v -3 4 -3.5
v -3 5 2.5
v -3 5 1.5
v -3 5 -1.5
v -3 5 -2.5
v -2 0 5.5
v -2 0 4.5
v -2 0 -4.5
v -2 0 -5.5
v -2 1 4.5
v -2 1 -4.5
v -2 2 5.5
v -2 2 4.5
v -2 2 -4.5
v -2 2 -5.5
v -2 3 5.5
v -2 3 4.5
v -2 3 3.5
v -2 3 -3.5
v -2 3 -4.5
v -2 3 -5.5
v -2 4 4.5
v -2 4 3.5
v -2 4 2.5
v -2 4 -2.5
v -2 4 -3.5
v -2 4 -4.5
v -2 5 3.5
v -2 5 2.5
v -2 5 1.5
v -2 5 -1.5
v -2 5 -2.5
v -2 5 -3.5
v -2 6 2.5
v -2 6 -2.5
v 1 1 5.5
v 1 1 0.5
v 1 1 -0.5
v 1 1 -5.5
v 1 2 5.5
v 1 2 4.5
v 1 2 0.5
v 1 2 -0.5
v 1 2 -4.5
v 1 2 -5.5
v 1 3 5.5
v 1 3 4.5
v 1 3 3.5
v 1 3 -3.5
v 1 3 -4.5
v 1 3 -5.5
v 1 4 4.5
v 1 4 3.5
v 1 4 2.5
v 1 4 -2.5
v 1 4 -3.5
v 1 4 -4.5
v 1 5 3.5
v 1 5 2.5
v 1 5 -2.5
v 1 5 -3.5
v 1 6 2.5
v 1 6 -2.5
v -1 1 5.5
v -1 1 4.5
v -1 1 0.5
v -1 1 -0.5
v -1 1 -4.5
v -1 1 -5.5
v -1 2 5.5
v -1 2 4.5
v -1 2 0.5
v -1 2 -0.5
v -1 2 -4.5
v -1 2 -5.5
v -1 3 5.5
v -1 3 4.5
v -1 3 3.5
v -1 3 -3.5
v -1 3 -4.5
v -1 3 -5.5
v -1 4 4.5
v -1 4 3.5
v -1 4 2.5
v -1 4 -2.5
v -1 4 -3.5
v -1 4 -4.5
v -1 5 3.5
v -1 5 2.5
v -1 5 -2.5
v -1 5 -3.5
v -1 6 2.5
v -1 6 -2.5
v 2 0 5.5
v 2 0 4.5
v 2 0 -4.5
v 2 0 -5.5
v 2 1 4.5
v 2 1 -4.5
v 2 2 5.5
v 2 2 4.5
v 2 2 -4.5
v 2 2 -5.5
v 2 3 5.5
v 2 3 4.5
v 2 3 3.5
v 2 3 -3.5
v 2 3 -4.5
v 2 3 -5.5
v 2 4 4.5
v 2 4 3.5
v 2 4 2.5
v 2 4 -2.5
v 2 4 -3.5
v 2 4 -4.5
v 2 5 3.5
v 2 5 2.5
v 2 5 1.5
v 2 5 -1.5
v 2 5 -2.5
v 2 5 -3.5
v 2 6 2.5
v 2 6 -2.5
v 3 0 4.5
v 3 0 -4.5
v 3 1 4.5
v 3 1 1.5
v 3 1 -1.5
v 3 1 -4.5
v 3 2 1.5
v 3 2 -1.5
v 3 3 4.5
v 3 3 3.5
v 3 3 2.5
v 3 3 -2.5
v 3 3 -3.5
v 3 3 -4.5
v 3 4 3.5
v 3 4 2.5
v 3 4 1.5
v 3 4 -1.5
v 3 4 -2.5
v 3 4 -3.5
v 3 5 2.5
v 3 5 1.5
v 3 5 -1.5
v 3 5 -2.5
v -2 0 5.5
v -2 2 5.5
v -2 3 5.5
v -1 1 5.5
v -1 2 5.5
v -1 3 5.5
v 1 1 5.5
v 1 2 5.5
v 1 3 5.5
v 2 0 5.5
v 2 2 5.5
v 2 3 5.5
v -3 0 4.5
v -3 1 4.5
v -3 3 4.5
v -2 0 4.5
v -2 1 4.5
v -2 2 4.5
v -2 3 4.5
v -2 4 4.5
v -1 3 4.5
v -1 4 4.5
v 1 3 4.5
v 1 4 4.5
v 2 0 4.5
v 2 1 4.5
v 2 2 4.5
v 2 3 4.5
v 2 4 4.5
v 3 0 4.5
v 3 1 4.5
v 3 3 4.5
v -3 3 3.5
v -3 4 3.5
v -2 3 3.5
v -2 4 3.5
v -2 5 3.5
v -1 4 3.5
v -1 5 3.5
v 1 4 3.5
v 1 5 3.5
v 2 3 3.5
v 2 4 3.5
v 2 5 3.5
v 3 3 3.5
v 3 4 3.5
v -3 4 2.5
v -3 5 2.5
v -2 4 2.5
v -2 5 2.5
v -2 6 2.5
v -1 5 2.5
v -1 6 2.5
v 1 5 2.5
v 1 6 2.5
v 2 4 2.5
v 2 5 2.5
v 2 6 2.5
v 3 4 2.5
v 3 5 2.5
v -1 1 0.5
v -1 2 0.5
v 1 1 0.5
v 1 2 0.5
v -1 1 -0.5
v -1 2 -0.5
v 1 1 -0.5
v 1 2 -0.5
v -3 4 -2.5
v -3 5 -2.5
v -2 4 -2.5
v -2 5 -2.5
v -2 6 -2.5
v -1 5 -2.5
v -1 6 -2.5
v 1 5 -2.5
v 1 6 -2.5
v 2 4 -2.5
v 2 5 -2.5
v 2 6 -2.5
v 3 4 -2.5
v 3 5 -2.5
v -3 3 -3.5
v -3 4 -3.5
v -2 3 -3.5
v -2 4 -3.5
v -2 5 -3.5
v -1 4 -3.5
v -1 5 -3.5
v 1 4 -3.5
v 1 5 -3.5
v 2 3 -3.5
v 2 4 -3.5
v 2 5 -3.5
v 3 3 -3.5
v 3 4 -3.5
v -3 0 -4.5
v -3 1 -4.5
v -3 3 -4.5
v -2 0 -4.5
v -2 1 -4.5
v -2 2 -4.5
v -2 3 -4.5
v -2 4 -4.5
v -1 3 -4.5
v -1 4 -4.5
v 1 3 -4.5
v 1 4 -4.5
v 2 0 -4.5
v 2 1 -4.5
v 2 2 -4.5
v 2 3 -4.5
v 2 4 -4.5
v 3 0 -4.5
v 3 1 -4.5
v 3 3 -4.5
v -2 0 -5.5
v -2 2 -5.5
v -2 3 -5.5
v -1 1 -5.5
v -1 2 -5.5
v -1 3 -5.5
v 1 1 -5.5
v 1 2 -5.5
v 1 3 -5.5
v 2 0 -5.5
v 2 2 -5.5
v 2 3 -5.5
v -2 0 5.5
v 2 0 5.5
v -3 0 4.5
v -2 0 4.5
v 2 0 4.5
v 3 0 4.5
v -3 0 -4.5
v -2 0 -4.5
v 2 0 -4.5
v 3 0 -4.5
v -2 0 -5.5
v 2 0 -5.5
v -1 1 5.5
v 1 1 5.5
v -1 1 4.5
v -1 1 0.5
v 1 1 0.5
v -1 1 -0.5
v 1 1 -0.5
v -1 1 -4.5
v -1 1 -5.5
v 1 1 -5.5
v -1 2 0.5
v 1 2 0.5
v -1 2 -0.5
v 1 2 -0.5
v -2 3 5.5
v -1 3 5.5
v 1 3 5.5
v 2 3 5.5
v -3 3 4.5
v -2 3 4.5
v -1 3 4.5
v 1 3 4.5
v 2 3 4.5
v 3 3 4.5
v -3 3 3.5
v -2 3 3.5
v 2 3 3.5
v 3 3 3.5
v -3 3 -3.5
v -2 3 -3.5
v 2 3 -3.5
v 3 3 -3.5
v -3 3 -4.5
v -2 3 -4.5
v -1 3 -4.5
v 1 3 -4.5
v 2 3 -4.5
v 3 3 -4.5
v -2 3 -5.5
v -1 3 -5.5
v 1 3 -5.5
v 2 3 -5.5
v -2 4 4.5
v -1 4 4.5
v 1 4 4.5
v 2 4 4.5
v -3 4 3.5
v -2 4 3.5
v -1 4 3.5
v 1 4 3.5
v 2 4 3.5
v 3 4 3.5
v -3 4 2.5
v -2 4 2.5
v 2 4 2.5
v 3 4 2.5
v -3 4 -2.5
v -2 4 -2.5
v 2 4 -2.5
v 3 4 -2.5
v -3 4 -3.5
v -2 4 -3.5
v -1 4 -3.5
v 1 4 -3.5
v 2 4 -3.5
v 3 4 -3.5
v -2 4 -4.5
v -1 4 -4.5
v 1 4 -4.5
v 2 4 -4.5
v -2 5 3.5
v -1 5 3.5
v 1 5 3.5
v 2 5 3.5
v -3 5 2.5
v -2 5 2.5
v -1 5 2.5
v 1 5 2.5
v 2 5 2.5
v 3 5 2.5
v -3 5 1.5
v -2 5 1.5
v 2 5 1.5
v 3 5 1.5
v -3 5 -1.5
v -2 5 -1.5
v 2 5 -1.5
v 3 5 -1.5
v -3 5 -2.5
v -2 5 -2.5
v -1 5 -2.5
v 1 5 -2.5
v 2 5 -2.5
v 3 5 -2.5
v -2 5 -3.5
v -1 5 -3.5
v 1 5 -3.5
v 2 5 -3.5
v -2 6 2.5
v -1 6 2.5
v 1 6 2.5
v 2 6 2.5
v -2 6 -2.5
v -1 6 -2.5
v 1 6 -2.5
v 2 6 -2.5

# faces
f 3/3/1 2/3/1 1/3/1
f 4/3/1 2/3/1 3/3/1
f 5/3/1 2/3/1 4/3/1
f 6/3/1 2/3/1 5/3/1
f 7/2/1 4/2/1 3/2/1
f 7/3/1 5/3/1 4/3/1
f 8/2/1 6/2/1 5/2/1
f 8/3/1 5/3/1 7/3/1
f 9/2/1 7/2/1 3/2/1
f 9/2/1 8/2/1 7/2/1
f 10/2/1 8/2/1 9/2/1
f 11/2/1 8/2/1 10/2/1
f 12/2/1 6/2/1 8/2/1
f 12/2/1 8/2/1 11/2/1
f 13/2/1 6/2/1 12/2/1
f 14/2/1 6/2/1 13/2/1
f 15/1/1 11/1/1 10/1/1
f 16/2/1 12/2/1 11/2/1
f 16/1/1 11/1/1 15/1/1
f 17/2/1 12/2/1 16/2/1
f 18/2/1 12/2/1 17/2/1
f 19/1/1 13/1/1 12/1/1
f 19/2/1 12/2/1 18/2/1
f 20/1/1 13/1/1 19/1/1
f 21/1/1 17/1/1 16/1/1
f 22/2/1 18/2/1 17/2/1
f 22/1/1 17/1/1 21/1/1
f 23/1/1 19/1/1 18/1/1
f 23/2/1 18/2/1 22/2/1
f 24/1/1 19/1/1 23/1/1
f 29/3/1 26/3/1 25/3/1
f 30/3/1 28/3/1 27/3/1
f 31/3/1 29/3/1 25/3/1
f 32/3/1 29/3/1 31/3/1
f 33/3/1 28/3/1 30/3/1
f 34/3/1 28/3/1 33/3/1
f 35/2/1 32/2/1 31/2/1
f 36/2/1 32/2/1 35/2/1
f 39/2/1 34/2/1 33/2/1
f 40/2/1 34/2/1 39/2/1
f 41/1/1 37/1/1 36/1/1
f 42/1/1 37/1/1 41/1/1
f 45/1/1 39/1/1 38/1/1
f 46/1/1 39/1/1 45/1/1
f 47/1/1 43/1/1 42/1/1
f 48/1/1 43/1/1 47/1/1
f 51/1/1 45/1/1 44/1/1
f 52/1/1 45/1/1 51/1/1
f 53/1/1 50/1/1 49/1/1
f 53/1/1 51/1/1 50/1/1
f 53/1/1 49/1/1 48/1/1
f 54/1/1 51/1/1 53/1/1
f 59/3/1 56/3/1 55/3/1
f 60/3/1 56/3/1 59/3/1
f 61/3/1 56/3/1 60/3/1
f 62/3/1 58/3/1 57/3/1
f 63/3/1 58/3/1 62/3/1
f 64/3/1 58/3/1 63/3/1
f 65/2/1 60/2/1 59/2/1
f 66/3/1 61/3/1 60/3/1
f 66/2/1 60/2/1 65/2/1
f 66/3/1 62/3/1 61/3/1
f 66/3/1 63/3/1 62/3/1
f 67/3/1 63/3/1 66/3/1
f 68/3/1 63/3/1 67/3/1
f 69/2/1 64/2/1 63/2/1
f 69/3/1 63/3/1 68/3/1
f 70/2/1 64/2/1 69/2/1
f 71/1/1 67/1/1 66/1/1
f 72/3/1 68/3/1 67/3/1
f 72/1/1 67/1/1 71/1/1
f 73/3/1 68/3/1 72/3/1
f 74/3/1 68/3/1 73/3/1
f 75/1/1 69/1/1 68/1/1
f 75/3/1 68/3/1 74/3/1
f 76/1/1 69/1/1 75/1/1
f 77/1/1 73/1/1 72/1/1
f 78/3/1 74/3/1 73/3/1
f 78/1/1 73/1/1 77/1/1
f 79/1/1 75/1/1 74/1/1
f 79/3/1 74/3/1 78/3/1
f 80/1/1 75/1/1 79/1/1
f 81/1/1 79/1/1 78/1/1
f 82/1/1 79/1/1 81/1/1
f 83/3/2 84/3/2 89/3/2
f 84/2/2 85/2/2 90/2/2
f 89/3/2 84/3/2 90/3/2
f 90/2/2 85/2/2 91/2/2
f 86/2/2 87/2/2 92/2/2
f 87/3/2 88/3/2 93/3/2
f 92/2/2 87/2/2 93/2/2
f 93/3/2 88/3/2 94/3/2
f 91/2/2 92/2/2 95/2/2
f 90/2/2 91/2/2 95/2/2
f 93/2/2 94/2/2 95/2/2
f 92/2/2 93/2/2 95/2/2
f 89/2/2 90/2/2 95/2/2
f 95/2/2 94/2/2 96/2/2
f 96/2/2 94/2/2 97/2/2
f 97/2/2 94/2/2 98/2/2
f 98/2/2 94/2/2 99/2/2
f 99/2/2 94/2/2 100/2/2
f 96/1/2 97/1/2 101/1/2
f 97/2/2 98/2/2 102/2/2
f 101/1/2 97/1/2 102/1/2
f 102/2/2 98/2/2 103/2/2
f 103/2/2 98/2/2 104/2/2
f 98/1/2 99/1/2 105/1/2
f 104/2/2 98/2/2 105/2/2
f 105/1/2 99/1/2 106/1/2
f 102/1/2 103/1/2 107/1/2
f 103/2/2 104/2/2 108/2/2
f 107/1/2 103/1/2 108/1/2
f 104/1/2 105/1/2 109/1/2
f 108/2/2 104/2/2 109/2/2
f 109/1/2 105/1/2 110/1/2
f 108/1/2 109/1/2 111/1/2
f 111/1/2 109/1/2 112/1/2
f 113/3/2 114/3/2 117/3/2
f 115/3/2 116/3/2 118/3/2
f 113/3/2 117/3/2 119/3/2
f 119/3/2 117/3/2 120/3/2
f 118/3/2 116/3/2 121/3/2
f 121/3/2 116/3/2 122/3/2
f 119/2/2 120/2/2 123/2/2
f 123/2/2 120/2/2 124/2/2
f 121/2/2 122/2/2 127/2/2
f 127/2/2 122/2/2 128/2/2
f 124/1/2 125/1/2 129/1/2
f 129/1/2 125/1/2 130/1/2
f 126/1/2 127/1/2 133/1/2
f 133/1/2 127/1/2 134/1/2
f 130/1/2 131/1/2 135/1/2
f 135/1/2 131/1/2 136/1/2
f 132/1/2 133/1/2 139/1/2
f 139/1/2 133/1/2 140/1/2
f 137/1/2 138/1/2 141/1/2
f 138/1/2 139/1/2 141/1/2
f 136/1/2 137/1/2 141/1/2
f 141/1/2 139/1/2 142/1/2
f 143/3/2 144/3/2 145/3/2
f 145/3/2 144/3/2 146/3/2
f 146/3/2 144/3/2 147/3/2
f 147/3/2 144/3/2 148/3/2
f 145/2/2 146/2/2 149/2/2
f 146/3/2 147/3/2 149/3/2
f 147/2/2 148/2/2 150/2/2
f 149/3/2 147/3/2 150/3/2
f 145/2/2 149/2/2 151/2/2
f 149/2/2 150/2/2 151/2/2
f 151/2/2 150/2/2 152/2/2
f 152/2/2 150/2/2 153/2/2
f 150/2/2 148/2/2 154/2/2
f 153/2/2 150/2/2 154/2/2
f 154/2/2 148/2/2 155/2/2
f 155/2/2 148/2/2 156/2/2
f 152/1/2 153/1/2 157/1/2
f 153/2/2 154/2/2 158/2/2
f 157/1/2 153/1/2 158/1/2
f 158/2/2 154/2/2 159/2/2
f 159/2/2 154/2/2 160/2/2
f 154/1/2 155/1/2 161/1/2
f 160/2/2 154/2/2 161/2/2
f 161/1/2 155/1/2 162/1/2
f 158/1/2 159/1/2 163/1/2
f 159/2/2 160/2/2 164/2/2
f 163/1/2 159/1/2 164/1/2
f 160/1/2 161/1/2 165/1/2
f 164/2/2 160/2/2 165/2/2
f 165/1/2 161/1/2 166/1/2
f 170/3/3 168/3/3 167/3/3
f 171/2/3 169/2/3 168/2/3
f 171/3/3 168/3/3 170/3/3
f 172/2/3 169/2/3 171/2/3
f 173/3/3 170/3/3 167/3/3
f 176/3/3 173/3/3 167/3/3
f 176/3/3 174/3/3 173/3/3
f 177/2/3 175/2/3 174/2/3
f 177/3/3 174/3/3 176/3/3
f 178/2/3 175/2/3 177/2/3
f 182/3/3 180/3/3 179/3/3
f 183/2/3 181/2/3 180/2/3
f 183/3/3 180/3/3 182/3/3
f 184/2/3 181/2/3 183/2/3
f 185/2/3 181/2/3 184/2/3
f 187/1/3 186/1/3 185/1/3
f 188/1/3 186/1/3 187/1/3
f 194/1/3 190/1/3 189/1/3
f 195/1/3 190/1/3 194/1/3
f 196/3/3 192/3/3 191/3/3
f 197/2/3 193/2/3 192/2/3
f 197/3/3 192/3/3 196/3/3
f 197/2/3 194/2/3 193/2/3
f 198/2/3 194/2/3 197/2/3
f 201/1/3 200/1/3 199/1/3
f 202/1/3 200/1/3 201/1/3
f 204/1/3 203/1/3 202/1/3
f 205/1/3 203/1/3 204/1/3
f 209/1/3 207/1/3 206/1/3
f 210/1/3 207/1/3 209/1/3
f 211/1/3 209/1/3 208/1/3
f 212/1/3 209/1/3 211/1/3
f 215/1/3 214/1/3 213/1/3
f 216/1/3 214/1/3 215/1/3
f 218/1/3 217/1/3 216/1/3
f 219/1/3 217/1/3 218/1/3
f 223/1/3 221/1/3 220/1/3
f 224/1/3 221/1/3 223/1/3
f 225/1/3 223/1/3 222/1/3
f 226/1/3 223/1/3 225/1/3
f 229/3/3 228/3/3 227/3/3
f 230/3/3 228/3/3 229/3/3
f 231/3/4 232/3/4 233/3/4
f 233/3/4 232/3/4 234/3/4
f 235/1/4 236/1/4 237/1/4
f 237/1/4 236/1/4 238/1/4
f 238/1/4 239/1/4 240/1/4
f 240/1/4 239/1/4 241/1/4
f 242/1/4 243/1/4 245/1/4
f 245/1/4 243/1/4 246/1/4
f 244/1/4 245/1/4 247/1/4
f 247/1/4 245/1/4 248/1/4
f 249/1/4 250/1/4 251/1/4
f 251/1/4 250/1/4 252/1/4
f 252/1/4 253/1/4 254/1/4
f 254/1/4 253/1/4 255/1/4
f 256/1/4 257/1/4 259/1/4
f 259/1/4 257/1/4 260/1/4
f 258/1/4 259/1/4 261/1/4
f 261/1/4 259/1/4 262/1/4
f 263/3/4 264/3/4 266/3/4
f 264/2/4 265/2/4 267/2/4
f 266/3/4 264/3/4 267/3/4
f 267/2/4 265/2/4 268/2/4
f 268/2/4 265/2/4 269/2/4
f 269/1/4 270/1/4 271/1/4
f 271/1/4 270/1/4 272/1/4
f 273/1/4 274/1/4 278/1/4
f 278/1/4 274/1/4 279/1/4
f 275/3/4 276/3/4 280/3/4
f 276/2/4 277/2/4 281/2/4
f 280/3/4 276/3/4 281/3/4
f 277/2/4 278/2/4 281/2/4
f 281/2/4 278/2/4 282/2/4
f 283/3/4 284/3/4 286/3/4
f 284/2/4 285/2/4 287/2/4
f 286/3/4 284/3/4 287/3/4
f 287/2/4 285/2/4 288/2/4
f 283/3/4 286/3/4 289/3/4
f 283/3/4 289/3/4 292/3/4
f 289/3/4 290/3/4 292/3/4
f 290/2/4 291/2/4 293/2/4
f 292/3/4 290/3/4 293/3/4
f 293/2/4 291/2/4 294/2/4
f 298/3/5 296/3/5 295/3/5
f 299/3/5 296/3/5 298/3/5
f 301/3/5 298/3/5 297/3/5
f 301/3/5 300/3/5 299/3/5
f 301/3/5 299/3/5 298/3/5
f 302/3/5 300/3/5 301/3/5
f 303/3/5 300/3/5 302/3/5
f 304/3/5 300/3/5 303/3/5
f 305/3/5 303/3/5 302/3/5
f 306/3/5 303/3/5 305/3/5
f 307/3/6 308/3/6 309/3/6
f 309/3/6 308/3/6 310/3/6
f 310/3/6 308/3/6 311/3/6
f 312/3/6 313/3/6 314/3/6
f 314/3/6 313/3/6 315/3/6
f 315/3/6 313/3/6 316/3/6
f 317/3/6 318/3/6 319/3/6
f 319/3/6 318/3/6 320/3/6
f 321/2/6 322/2/6 326/2/6
f 326/2/6 322/2/6 327/2/6
f 323/2/6 324/2/6 328/2/6
f 328/2/6 324/2/6 329/2/6
f 325/2/6 326/2/6 331/2/6
f 331/2/6 326/2/6 332/2/6
f 329/2/6 330/2/6 333/2/6
f 333/2/6 330/2/6 334/2/6
f 335/2/6 336/2/6 339/2/6
f 339/2/6 336/2/6 340/2/6
f 337/2/6 338/2/6 343/2/6
f 343/2/6 338/2/6 344/2/6
f 340/2/6 341/2/6 345/2/6
f 345/2/6 341/2/6 346/2/6
f 342/2/6 343/2/6 347/2/6
f 347/2/6 343/2/6 348/2/6
f 349/1/6 350/1/6 354/1/6
f 354/1/6 350/1/6 355/1/6
f 351/1/6 352/1/6 356/1/6
f 356/1/6 352/1/6 357/1/6
f 353/1/6 354/1/6 359/1/6
f 359/1/6 354/1/6 360/1/6
f 357/1/6 358/1/6 361/1/6
f 361/1/6 358/1/6 362/1/6
f 363/1/6 364/1/6 367/1/6
f 367/1/6 364/1/6 368/1/6
f 365/1/6 366/1/6 371/1/6
f 371/1/6 366/1/6 372/1/6
f 368/1/6 369/1/6 373/1/6
f 373/1/6 369/1/6 374/1/6
f 370/1/6 371/1/6 375/1/6
f 375/1/6 371/1/6 376/1/6
f 377/1/6 378/1/6 382/1/6
f 382/1/6 378/1/6 383/1/6
f 379/1/6 380/1/6 384/1/6
f 384/1/6 380/1/6 385/1/6
f 381/1/6 382/1/6 387/1/6
f 387/1/6 382/1/6 388/1/6
f 385/1/6 386/1/6 389/1/6
f 389/1/6 386/1/6 390/1/6
f 387/2/6 388/2/6 391/2/6
f 391/2/6 388/2/6 392/2/6
f 389/2/6 390/2/6 393/2/6
f 393/2/6 390/2/6 394/2/6
f 391/1/6 392/1/6 395/1/6
f 395/1/6 392/1/6 396/1/6
f 393/1/6 394/1/6 399/1/6
f 399/1/6 394/1/6 400/1/6
f 396/1/6 397/1/6 401/1/6
f 401/1/6 397/1/6 402/1/6
f 398/1/6 399/1/6 403/1/6
f 403/1/6 399/1/6 404/1/6
f 405/1/6 406/1/6 409/1/6
f 409/1/6 406/1/6 410/1/6
f 407/1/6 408/1/6 411/1/6
f 411/1/6 408/1/6 412/1/6
