# MagicaVoxel @ Ephtracy

# group
g Candle

# material
mtllib Candle.mtl
usemtl palette

# normals
vn -1 0 0
vn 1 0 0
vn 0 0 1
vn 0 0 -1
vn 0 -1 0
vn 0 1 0

# texcoords
vt 0.0644531 0.5
vt 0.0683594 0.5
vt 0.962891 0.5
vt 0.966797 0.5
vt 0.994141 0.5

# verts
v -5 1 1.5
v -5 1 -1.5
v -5 2 1.5
v -5 2 -1.5
v -4 0 1.5
v -4 0 -1.5
v -4 1 2.5
v -4 1 1.5
v -4 1 -1.5
v -4 1 -2.5
v -4 2 2.5
v -4 2 1.5
v -4 2 -1.5
v -4 2 -2.5
v -3 0 2.5
v -3 0 1.5
v -3 0 -1.5
v -3 0 -2.5
v -3 1 3.5
v -3 1 2.5
v -3 1 1.5
v -3 1 0.5
v -3 1 -0.5
v -3 1 -1.5
v -3 1 -2.5
v -3 1 -3.5
v -3 2 3.5
v -3 2 2.5
v -3 2 -2.5
v -3 2 -3.5
v -3 6 0.5
v -3 6 -0.5
v -2 1 1.5
v -2 1 0.5
v -2 1 -0.5
v -2 1 -1.5
v -2 5 -0.5
v -2 5 -1.5
v -2 6 1.5
v -2 6 0.5
v -2 6 -0.5
v -2 6 -1.5
v -2 7 0.5
v -2 7 -0.5
v 0 1 2.5
v 0 1 1.5
v 0 1 -1.5
v 0 1 -2.5
v 0 2 2.5
v 0 2 1.5
v 0 2 -1.5
v 0 2 -2.5
v 1 1 1.5
v 1 1 -1.5
v 1 2 1.5
v 1 2 0.5
v 1 2 -0.5
v 1 2 -1.5
v 1 3 0.5
v 1 3 -0.5
v 2 3 0.5
v 2 3 -0.5
v 2 4 0.5
v 2 4 -0.5
v 3 0 0.5
v 3 0 -0.5
v 3 1 0.5
v 3 1 -0.5
v 4 1 0.5
v 4 1 -0.5
v 4 3 0.5
v 4 3 -0.5
v -4 1 1.5
v -4 1 -1.5
v -4 2 1.5
v -4 2 -1.5
v -3 1 2.5
v -3 1 1.5
v -3 1 -1.5
v -3 1 -2.5
v -3 2 2.5
v -3 2 1.5
v -3 2 -1.5
v -3 2 -2.5
v -1 1 1.5
v -1 1 0.5
v -1 1 -0.5
v -1 1 -1.5
v -1 5 -0.5
v -1 5 -1.5
v -1 6 1.5
v -1 6 0.5
v -1 6 -0.5
v -1 6 -1.5
v -1 7 0.5
v -1 7 -0.5
v 0 0 2.5
v 0 0 1.5
v 0 0 -1.5
v 0 0 -2.5
v 0 1 3.5
v 0 1 2.5
v 0 1 1.5
v 0 1 0.5
v 0 1 -0.5
v 0 1 -1.5
v 0 1 -2.5
v 0 1 -3.5
v 0 2 3.5
v 0 2 2.5
v 0 2 -2.5
v 0 2 -3.5
v 0 6 0.5
v 0 6 -0.5
v 1 0 1.5
v 1 0 -1.5
v 1 1 2.5
v 1 1 1.5
v 1 1 -1.5
v 1 1 -2.5
v 1 2 2.5
v 1 2 1.5
v 1 2 -1.5
v 1 2 -2.5
v 2 1 1.5
v 2 1 0.5
v 2 1 -0.5
v 2 1 -1.5
v 2 2 1.5
v 2 2 0.5
v 2 2 -0.5
v 2 2 -1.5
v 2 3 0.5
v 2 3 -0.5
v 3 1 0.5
v 3 1 -0.5
v 3 2 0.5
v 3 2 -0.5
v 4 0 0.5
v 4 0 -0.5
v 4 1 0.5
v 4 1 -0.5
v 4 3 0.5
v 4 3 -0.5
v 4 4 0.5
v 4 4 -0.5
v 5 1 0.5
v 5 1 -0.5
v 5 3 0.5
v 5 3 -0.5
v -3 1 3.5
v -3 2 3.5
v 0 1 3.5
v 0 2 3.5
v -4 1 2.5
v -4 2 2.5
v -3 0 2.5
v -3 1 2.5
v -3 2 2.5
v 0 0 2.5
v 0 1 2.5
v 0 2 2.5
v 1 1 2.5
v 1 2 2.5
v -5 1 1.5
v -5 2 1.5
v -4 0 1.5
v -4 1 1.5
v -4 2 1.5
v -3 0 1.5
v -3 1 1.5
v -2 1 1.5
v -2 6 1.5
v -1 1 1.5
v -1 6 1.5
v 0 0 1.5
v 0 1 1.5
v 1 0 1.5
v 1 1 1.5
v 1 2 1.5
v 2 1 1.5
v 2 2 1.5
v -3 1 0.5
v -3 6 0.5
v -2 1 0.5
v -2 6 0.5
v -2 7 0.5
v -1 1 0.5
v -1 6 0.5
v -1 7 0.5
v 0 1 0.5
v 0 6 0.5
v 1 2 0.5
v 1 3 0.5
v 2 1 0.5
v 2 2 0.5
v 2 3 0.5
v 2 4 0.5
v 3 0 0.5
v 3 1 0.5
v 3 2 0.5
v 3 3 0.5
v 3 4 0.5
v 4 0 0.5
v 4 1 0.5
v 4 3 0.5
v 4 4 0.5
v 5 1 0.5
v 5 3 0.5
v -4 1 -1.5
v -4 2 -1.5
v -3 1 -1.5
v -3 2 -1.5
v 0 1 -1.5
v 0 2 -1.5
v 1 1 -1.5
v 1 2 -1.5
v -3 1 -2.5
v -3 2 -2.5
v 0 1 -2.5
v 0 2 -2.5
v -3 1 2.5
v -3 2 2.5
v 0 1 2.5
v 0 2 2.5
v -4 1 1.5
v -4 2 1.5
v -3 1 1.5
v -3 2 1.5
v 0 1 1.5
v 0 2 1.5
v 1 1 1.5
v 1 2 1.5
v -3 1 -0.5
v -3 6 -0.5
v -2 1 -0.5
v -2 5 -0.5
v -2 6 -0.5
v -2 7 -0.5
v -1 1 -0.5
v -1 5 -0.5
v -1 6 -0.5
v -1 7 -0.5
v 0 1 -0.5
v 0 6 -0.5
v 1 2 -0.5
v 1 3 -0.5
v 2 1 -0.5
v 2 2 -0.5
v 2 3 -0.5
v 2 4 -0.5
v 3 0 -0.5
v 3 1 -0.5
v 3 2 -0.5
v 3 3 -0.5
v 3 4 -0.5
v 4 0 -0.5
v 4 1 -0.5
v 4 3 -0.5
v 4 4 -0.5
v 5 1 -0.5
v 5 3 -0.5
v -5 1 -1.5
v -5 2 -1.5
v -4 0 -1.5
v -4 1 -1.5
v -4 2 -1.5
v -3 0 -1.5
v -3 1 -1.5
v -2 1 -1.5
v -2 5 -1.5
v -2 6 -1.5
v -1 1 -1.5
v -1 5 -1.5
v -1 6 -1.5
v 0 0 -1.5
v 0 1 -1.5
v 1 0 -1.5
v 1 1 -1.5
v 1 2 -1.5
v 2 1 -1.5
v 2 2 -1.5
v -4 1 -2.5
v -4 2 -2.5
v -3 0 -2.5
v -3 1 -2.5
v -3 2 -2.5
v 0 0 -2.5
v 0 1 -2.5
v 0 2 -2.5
v 1 1 -2.5
v 1 2 -2.5
v -3 1 -3.5
v -3 2 -3.5
v 0 1 -3.5
v 0 2 -3.5
v -3 0 2.5
v 0 0 2.5
v -4 0 1.5
v -3 0 1.5
v 0 0 1.5
v 1 0 1.5
v 3 0 0.5
v 4 0 0.5
v 3 0 -0.5
v 4 0 -0.5
v -4 0 -1.5
v -3 0 -1.5
v 0 0 -1.5
v 1 0 -1.5
v -3 0 -2.5
v 0 0 -2.5
v -3 1 3.5
v 0 1 3.5
v -4 1 2.5
v -3 1 2.5
v 0 1 2.5
v 1 1 2.5
v -5 1 1.5
v -4 1 1.5
v -3 1 1.5
v 0 1 1.5
v 1 1 1.5
v 2 1 1.5
v 2 1 0.5
v 3 1 0.5
v 4 1 0.5
v 5 1 0.5
v 2 1 -0.5
v 3 1 -0.5
v 4 1 -0.5
v 5 1 -0.5
v -5 1 -1.5
v -4 1 -1.5
v -3 1 -1.5
v 0 1 -1.5
v 1 1 -1.5
v 2 1 -1.5
v -4 1 -2.5
v -3 1 -2.5
v 0 1 -2.5
v 1 1 -2.5
v -3 1 -3.5
v 0 1 -3.5
v 2 3 0.5
v 3 3 0.5
v 4 3 0.5
v 2 3 -0.5
v 3 3 -0.5
v 4 3 -0.5
v -3 1 2.5
v 0 1 2.5
v -4 1 1.5
v -3 1 1.5
v -2 1 1.5
v -1 1 1.5
v 0 1 1.5
v 1 1 1.5
v -3 1 0.5
v -2 1 0.5
v -1 1 0.5
v 0 1 0.5
v 3 1 0.5
v 4 1 0.5
v -3 1 -0.5
v -2 1 -0.5
v -1 1 -0.5
v 0 1 -0.5
v 3 1 -0.5
v 4 1 -0.5
v -4 1 -1.5
v -3 1 -1.5
v -2 1 -1.5
v -1 1 -1.5
v 0 1 -1.5
v 1 1 -1.5
v -3 1 -2.5
v 0 1 -2.5
v -3 2 3.5
v 0 2 3.5
v -4 2 2.5
v -3 2 2.5
v 0 2 2.5
v 1 2 2.5
v -5 2 1.5
v -4 2 1.5
v -3 2 1.5
v 0 2 1.5
v 1 2 1.5
v 2 2 1.5
v 1 2 0.5
v 2 2 0.5
v 3 2 0.5
v 1 2 -0.5
v 2 2 -0.5
v 3 2 -0.5
v -5 2 -1.5
v -4 2 -1.5
v -3 2 -1.5
v 0 2 -1.5
v 1 2 -1.5
v 2 2 -1.5
v -4 2 -2.5
v -3 2 -2.5
v 0 2 -2.5
v 1 2 -2.5
v -3 2 -3.5
v 0 2 -3.5
v 1 3 0.5
v 2 3 0.5
v 4 3 0.5
v 5 3 0.5
v 1 3 -0.5
v 2 3 -0.5
v 4 3 -0.5
v 5 3 -0.5
v 2 4 0.5
v 3 4 0.5
v 4 4 0.5
v 2 4 -0.5
v 3 4 -0.5
v 4 4 -0.5
v -2 6 1.5
v -1 6 1.5
v -3 6 0.5
v -2 6 0.5
v -1 6 0.5
v 0 6 0.5
v -3 6 -0.5
v -2 6 -0.5
v -1 6 -0.5
v 0 6 -0.5
v -2 6 -1.5
v -1 6 -1.5
v -2 7 0.5
v -1 7 0.5
v -2 7 -0.5
v -1 7 -0.5

# faces
f 3/2/1 2/2/1 1/2/1
f 4/2/1 2/2/1 3/2/1
f 8/1/1 6/1/1 5/1/1
f 9/1/1 6/1/1 8/1/1
f 11/2/1 8/2/1 7/2/1
f 12/2/1 8/2/1 11/2/1
f 13/2/1 10/2/1 9/2/1
f 14/2/1 10/2/1 13/2/1
f 20/1/1 16/1/1 15/1/1
f 21/1/1 16/1/1 20/1/1
f 24/1/1 18/1/1 17/1/1
f 25/1/1 18/1/1 24/1/1
f 27/2/1 20/2/1 19/2/1
f 28/2/1 20/2/1 27/2/1
f 29/2/1 26/2/1 25/2/1
f 30/2/1 26/2/1 29/2/1
f 31/3/1 23/3/1 22/3/1
f 32/3/1 23/3/1 31/3/1
f 37/3/1 36/3/1 35/3/1
f 38/3/1 36/3/1 37/3/1
f 39/3/1 34/3/1 33/3/1
f 40/3/1 34/3/1 39/3/1
f 41/4/1 38/4/1 37/4/1
f 42/4/1 38/4/1 41/4/1
f 43/5/1 41/5/1 40/5/1
f 44/5/1 41/5/1 43/5/1
f 49/2/1 46/2/1 45/2/1
f 50/2/1 46/2/1 49/2/1
f 51/2/1 48/2/1 47/2/1
f 52/2/1 48/2/1 51/2/1
f 55/2/1 54/2/1 53/2/1
f 56/2/1 54/2/1 55/2/1
f 57/2/1 54/2/1 56/2/1
f 58/2/1 54/2/1 57/2/1
f 59/2/1 57/2/1 56/2/1
f 60/2/1 57/2/1 59/2/1
f 63/2/1 62/2/1 61/2/1
f 64/2/1 62/2/1 63/2/1
f 67/1/1 66/1/1 65/1/1
f 68/1/1 66/1/1 67/1/1
f 71/1/1 70/1/1 69/1/1
f 72/1/1 70/1/1 71/1/1
f 73/2/2 74/2/2 75/2/2
f 75/2/2 74/2/2 76/2/2
f 77/2/2 78/2/2 81/2/2
f 81/2/2 78/2/2 82/2/2
f 79/2/2 80/2/2 83/2/2
f 83/2/2 80/2/2 84/2/2
f 87/3/2 88/3/2 89/3/2
f 89/3/2 88/3/2 90/3/2
f 85/3/2 86/3/2 91/3/2
f 91/3/2 86/3/2 92/3/2
f 89/4/2 90/4/2 93/4/2
f 93/4/2 90/4/2 94/4/2
f 92/5/2 93/5/2 95/5/2
f 95/5/2 93/5/2 96/5/2
f 97/1/2 98/1/2 102/1/2
f 102/1/2 98/1/2 103/1/2
f 99/1/2 100/1/2 106/1/2
f 106/1/2 100/1/2 107/1/2
f 101/2/2 102/2/2 109/2/2
f 109/2/2 102/2/2 110/2/2
f 107/2/2 108/2/2 111/2/2
f 111/2/2 108/2/2 112/2/2
f 104/3/2 105/3/2 113/3/2
f 113/3/2 105/3/2 114/3/2
f 115/1/2 116/1/2 118/1/2
f 118/1/2 116/1/2 119/1/2
f 117/2/2 118/2/2 121/2/2
f 121/2/2 118/2/2 122/2/2
f 119/2/2 120/2/2 123/2/2
f 123/2/2 120/2/2 124/2/2
f 125/2/2 126/2/2 129/2/2
f 129/2/2 126/2/2 130/2/2
f 127/2/2 128/2/2 131/2/2
f 131/2/2 128/2/2 132/2/2
f 130/2/2 131/2/2 133/2/2
f 133/2/2 131/2/2 134/2/2
f 135/2/2 136/2/2 137/2/2
f 137/2/2 136/2/2 138/2/2
f 139/1/2 140/1/2 141/1/2
f 141/1/2 140/1/2 142/1/2
f 143/1/2 144/1/2 145/1/2
f 145/1/2 144/1/2 146/1/2
f 147/1/2 148/1/2 149/1/2
f 149/1/2 148/1/2 150/1/2
f 153/2/3 152/2/3 151/2/3
f 154/2/3 152/2/3 153/2/3
f 158/2/3 156/2/3 155/2/3
f 159/2/3 156/2/3 158/2/3
f 160/1/3 158/1/3 157/1/3
f 161/1/3 158/1/3 160/1/3
f 163/2/3 162/2/3 161/2/3
f 164/2/3 162/2/3 163/2/3
f 168/2/3 166/2/3 165/2/3
f 169/2/3 166/2/3 168/2/3
f 170/1/3 168/1/3 167/1/3
f 171/1/3 168/1/3 170/1/3
f 174/3/3 173/3/3 172/3/3
f 175/3/3 173/3/3 174/3/3
f 178/1/3 177/1/3 176/1/3
f 179/1/3 177/1/3 178/1/3
f 181/2/3 180/2/3 179/2/3
f 182/2/3 180/2/3 181/2/3
f 185/3/3 184/3/3 183/3/3
f 186/3/3 184/3/3 185/3/3
f 189/5/3 187/5/3 186/5/3
f 190/5/3 187/5/3 189/5/3
f 191/3/3 189/3/3 188/3/3
f 192/3/3 189/3/3 191/3/3
f 196/2/3 194/2/3 193/2/3
f 197/2/3 194/2/3 196/2/3
f 200/2/3 196/2/3 195/2/3
f 201/2/3 196/2/3 200/2/3
f 202/2/3 198/2/3 197/2/3
f 203/2/3 198/2/3 202/2/3
f 204/1/3 200/1/3 199/1/3
f 205/1/3 200/1/3 204/1/3
f 206/1/3 203/1/3 202/1/3
f 207/1/3 203/1/3 206/1/3
f 208/1/3 206/1/3 205/1/3
f 209/1/3 206/1/3 208/1/3
f 212/2/3 211/2/3 210/2/3
f 213/2/3 211/2/3 212/2/3
f 216/2/3 215/2/3 214/2/3
f 217/2/3 215/2/3 216/2/3
f 220/2/3 219/2/3 218/2/3
f 221/2/3 219/2/3 220/2/3
f 222/2/4 223/2/4 224/2/4
f 224/2/4 223/2/4 225/2/4
f 226/2/4 227/2/4 228/2/4
f 228/2/4 227/2/4 229/2/4
f 230/2/4 231/2/4 232/2/4
f 232/2/4 231/2/4 233/2/4
f 234/3/4 235/3/4 236/3/4
f 236/3/4 235/3/4 237/3/4
f 237/3/4 235/3/4 238/3/4
f 238/5/4 239/5/4 242/5/4
f 242/5/4 239/5/4 243/5/4
f 240/3/4 241/3/4 244/3/4
f 241/3/4 242/3/4 244/3/4
f 244/3/4 242/3/4 245/3/4
f 246/2/4 247/2/4 249/2/4
f 249/2/4 247/2/4 250/2/4
f 248/2/4 249/2/4 253/2/4
f 253/2/4 249/2/4 254/2/4
f 250/2/4 251/2/4 255/2/4
f 255/2/4 251/2/4 256/2/4
f 252/1/4 253/1/4 257/1/4
f 257/1/4 253/1/4 258/1/4
f 255/1/4 256/1/4 259/1/4
f 259/1/4 256/1/4 260/1/4
f 258/1/4 259/1/4 261/1/4
f 261/1/4 259/1/4 262/1/4
f 263/2/4 264/2/4 266/2/4
f 266/2/4 264/2/4 267/2/4
f 265/1/4 266/1/4 268/1/4
f 268/1/4 266/1/4 269/1/4
f 270/3/4 271/3/4 273/3/4
f 271/4/4 272/4/4 274/4/4
f 273/3/4 271/3/4 274/3/4
f 274/4/4 272/4/4 275/4/4
f 276/1/4 277/1/4 278/1/4
f 278/1/4 277/1/4 279/1/4
f 279/2/4 280/2/4 281/2/4
f 281/2/4 280/2/4 282/2/4
f 283/2/4 284/2/4 286/2/4
f 286/2/4 284/2/4 287/2/4
f 285/1/4 286/1/4 288/1/4
f 288/1/4 286/1/4 289/1/4
f 289/2/4 290/2/4 291/2/4
f 291/2/4 290/2/4 292/2/4
f 293/2/4 294/2/4 295/2/4
f 295/2/4 294/2/4 296/2/4
f 300/1/5 298/1/5 297/1/5
f 301/1/5 298/1/5 300/1/5
f 305/1/5 304/1/5 303/1/5
f 306/1/5 304/1/5 305/1/5
f 307/1/5 300/1/5 299/1/5
f 307/1/5 301/1/5 300/1/5
f 307/1/5 302/1/5 301/1/5
f 308/1/5 302/1/5 307/1/5
f 309/1/5 302/1/5 308/1/5
f 310/1/5 302/1/5 309/1/5
f 311/1/5 309/1/5 308/1/5
f 312/1/5 309/1/5 311/1/5
f 316/2/5 314/2/5 313/2/5
f 317/2/5 314/2/5 316/2/5
f 320/2/5 316/2/5 315/2/5
f 321/2/5 316/2/5 320/2/5
f 322/2/5 318/2/5 317/2/5
f 323/2/5 318/2/5 322/2/5
f 325/2/5 324/2/5 323/2/5
f 329/2/5 325/2/5 323/2/5
f 329/2/5 326/2/5 325/2/5
f 330/2/5 326/2/5 329/2/5
f 331/1/5 328/1/5 327/1/5
f 332/1/5 328/1/5 331/1/5
f 333/2/5 320/2/5 319/2/5
f 334/2/5 320/2/5 333/2/5
f 337/2/5 329/2/5 323/2/5
f 338/2/5 329/2/5 337/2/5
f 339/2/5 335/2/5 334/2/5
f 340/2/5 335/2/5 339/2/5
f 341/2/5 337/2/5 336/2/5
f 342/2/5 337/2/5 341/2/5
f 343/2/5 341/2/5 340/2/5
f 344/2/5 341/2/5 343/2/5
f 348/2/5 346/2/5 345/2/5
f 349/1/5 347/1/5 346/1/5
f 349/2/5 346/2/5 348/2/5
f 350/1/5 347/1/5 349/1/5
f 351/1/6 352/1/6 354/1/6
f 354/1/6 352/1/6 355/1/6
f 355/1/6 352/1/6 356/1/6
f 356/1/6 352/1/6 357/1/6
f 353/1/6 354/1/6 359/1/6
f 354/1/6 355/1/6 359/1/6
f 359/1/6 355/1/6 360/1/6
f 357/1/6 358/1/6 361/1/6
f 356/1/6 357/1/6 361/1/6
f 361/1/6 358/1/6 362/1/6
f 353/1/6 359/1/6 365/1/6
f 362/1/6 358/1/6 368/1/6
f 363/1/6 364/1/6 369/1/6
f 369/1/6 364/1/6 370/1/6
f 365/1/6 366/1/6 371/1/6
f 353/1/6 365/1/6 371/1/6
f 371/1/6 366/1/6 372/1/6
f 372/1/6 366/1/6 373/1/6
f 367/1/6 368/1/6 374/1/6
f 368/1/6 358/1/6 375/1/6
f 374/1/6 368/1/6 375/1/6
f 375/1/6 358/1/6 376/1/6
f 372/1/6 373/1/6 377/1/6
f 373/1/6 374/1/6 377/1/6
f 374/1/6 375/1/6 377/1/6
f 377/1/6 375/1/6 378/1/6
f 379/2/6 380/2/6 382/2/6
f 382/2/6 380/2/6 383/2/6
f 381/2/6 382/2/6 386/2/6
f 386/2/6 382/2/6 387/2/6
f 383/2/6 384/2/6 388/2/6
f 388/2/6 384/2/6 389/2/6
f 389/2/6 390/2/6 391/2/6
f 391/2/6 390/2/6 392/2/6
f 392/2/6 393/2/6 395/2/6
f 395/2/6 393/2/6 396/2/6
f 385/2/6 386/2/6 397/2/6
f 397/2/6 386/2/6 398/2/6
f 394/2/6 395/2/6 401/2/6
f 401/2/6 395/2/6 402/2/6
f 398/2/6 399/2/6 403/2/6
f 403/2/6 399/2/6 404/2/6
f 400/2/6 401/2/6 405/2/6
f 405/2/6 401/2/6 406/2/6
f 404/2/6 405/2/6 407/2/6
f 407/2/6 405/2/6 408/2/6
f 409/2/6 410/2/6 413/2/6
f 413/2/6 410/2/6 414/2/6
f 411/1/6 412/1/6 415/1/6
f 415/1/6 412/1/6 416/1/6
f 417/2/6 418/2/6 420/2/6
f 418/1/6 419/1/6 421/1/6
f 420/2/6 418/2/6 421/2/6
f 421/1/6 419/1/6 422/1/6
f 423/3/6 424/3/6 426/3/6
f 426/3/6 424/3/6 427/3/6
f 425/3/6 426/3/6 429/3/6
f 429/3/6 426/3/6 430/3/6
f 427/3/6 428/3/6 431/3/6
f 431/3/6 428/3/6 432/3/6
f 430/4/6 431/4/6 433/4/6
f 433/4/6 431/4/6 434/4/6
f 435/5/6 436/5/6 437/5/6
f 437/5/6 436/5/6 438/5/6
