# MagicaVoxel @ Ephtracy

# group
g Flashlight

# material
mtllib Flashlight.mtl
usemtl palette

# normals
vn -1 0 0
vn 1 0 0
vn 0 0 1
vn 0 0 -1
vn 0 -1 0
vn 0 1 0

# texcoords
vt 0.00976563 0.5
vt 0.0175781 0.5
vt 0.0449219 0.5
vt 0.982422 0.5
vt 0.986328 0.5
vt 0.990234 0.5
vt 0.994141 0.5

# verts
v -3.5 7 -5.5
v -3.5 7 -6.5
v -3.5 7 -7.5
v -3.5 8 -6.5
v -3.5 8 -7.5
v -3.5 9 -6.5
v -3.5 9 -7.5
v -3.5 10 -5.5
v -3.5 10 -6.5
v -3.5 10 -7.5
v -2.5 6 -5.5
v -2.5 6 -7.5
v -2.5 7 -3.5
v -2.5 7 -4.5
v -2.5 7 -5.5
v -2.5 7 -6.5
v -2.5 7 -7.5
v -2.5 8 -4.5
v -2.5 8 -5.5
v -2.5 9 -4.5
v -2.5 9 -5.5
v -2.5 10 -3.5
v -2.5 10 -4.5
v -2.5 10 -5.5
v -2.5 10 -6.5
v -2.5 10 -7.5
v -2.5 11 -5.5
v -2.5 11 -6.5
v -2.5 11 -7.5
v -1.5 5 -5.5
v -1.5 5 -7.5
v -1.5 6 -3.5
v -1.5 6 -4.5
v -1.5 6 -5.5
v -1.5 6 -7.5
v -1.5 7 7.5
v -1.5 7 -1.5
v -1.5 7 -3.5
v -1.5 7 -4.5
v -1.5 7 -5.5
v -1.5 8 -2.5
v -1.5 8 -3.5
v -1.5 9 0.5
v -1.5 9 -0.5
v -1.5 9 -1.5
v -1.5 9 -2.5
v -1.5 10 7.5
v -1.5 10 0.5
v -1.5 10 -0.5
v -1.5 10 -1.5
v -1.5 10 -3.5
v -1.5 10 -4.5
v -1.5 10 -5.5
v -1.5 11 -3.5
v -1.5 11 -4.5
v -1.5 11 -5.5
v -1.5 11 -6.5
v -1.5 11 -7.5
v -1.5 12 -5.5
v -1.5 12 -6.5
v -1.5 12 -7.5
v 1.5 5 -5.5
v 1.5 5 -7.5
v 1.5 6 -3.5
v 1.5 6 -4.5
v 1.5 6 -5.5
v 1.5 6 -7.5
v 1.5 7 7.5
v 1.5 7 -1.5
v 1.5 7 -3.5
v 1.5 7 -4.5
v 1.5 7 -5.5
v 1.5 8 -2.5
v 1.5 8 -3.5
v 1.5 9 0.5
v 1.5 9 -0.5
v 1.5 9 -1.5
v 1.5 9 -2.5
v 1.5 10 7.5
v 1.5 10 0.5
v 1.5 10 -0.5
v 1.5 10 -1.5
v 1.5 10 -3.5
v 1.5 10 -4.5
v 1.5 10 -5.5
v 1.5 11 -3.5
v 1.5 11 -4.5
v 1.5 11 -5.5
v 1.5 11 -6.5
v 1.5 11 -7.5
v 1.5 12 -5.5
v 1.5 12 -6.5
v 1.5 12 -7.5
v 2.5 6 -5.5
v 2.5 6 -7.5
v 2.5 7 -3.5
v 2.5 7 -4.5
v 2.5 7 -5.5
v 2.5 7 -6.5
v 2.5 7 -7.5
v 2.5 8 -4.5
v 2.5 8 -5.5
v 2.5 9 -4.5
v 2.5 9 -5.5
v 2.5 10 -3.5
v 2.5 10 -4.5
v 2.5 10 -5.5
v 2.5 10 -6.5
v 2.5 10 -7.5
v 2.5 11 -5.5
v 2.5 11 -6.5
v 2.5 11 -7.5
v 3.5 7 -5.5
v 3.5 7 -6.5
v 3.5 7 -7.5
v 3.5 8 -6.5
v 3.5 8 -7.5
v 3.5 9 -6.5
v 3.5 9 -7.5
v 3.5 10 -5.5
v 3.5 10 -6.5
v 3.5 10 -7.5
v -1.5 7 7.5
v -1.5 10 7.5
v 1.5 7 7.5
v 1.5 10 7.5
v -2.5 7 -3.5
v -2.5 10 -3.5
v -1.5 6 -3.5
v -1.5 7 -3.5
v -1.5 8 -3.5
v -1.5 10 -3.5
v -1.5 11 -3.5
v 1.5 6 -3.5
v 1.5 7 -3.5
v 1.5 8 -3.5
v 1.5 10 -3.5
v 1.5 11 -3.5
v 2.5 7 -3.5
v 2.5 10 -3.5
v -3.5 7 -5.5
v -3.5 10 -5.5
v -2.5 6 -5.5
v -2.5 7 -5.5
v -2.5 8 -5.5
v -2.5 9 -5.5
v -2.5 10 -5.5
v -2.5 11 -5.5
v -1.5 5 -5.5
v -1.5 6 -5.5
v -1.5 7 -5.5
v -1.5 10 -5.5
v -1.5 11 -5.5
v -1.5 12 -5.5
v -0.5 6 -5.5
v -0.5 11 -5.5
v 0.5 6 -5.5
v 0.5 11 -5.5
v 1.5 5 -5.5
v 1.5 6 -5.5
v 1.5 7 -5.5
v 1.5 10 -5.5
v 1.5 11 -5.5
v 1.5 12 -5.5
v 2.5 6 -5.5
v 2.5 7 -5.5
v 2.5 8 -5.5
v 2.5 9 -5.5
v 2.5 10 -5.5
v 2.5 11 -5.5
v 3.5 7 -5.5
v 3.5 10 -5.5
v -3.5 7 -7.5
v -3.5 8 -7.5
v -3.5 9 -7.5
v -3.5 10 -7.5
v -2.5 6 -7.5
v -2.5 7 -7.5
v -2.5 8 -7.5
v -2.5 9 -7.5
v -2.5 10 -7.5
v -2.5 11 -7.5
v -1.5 5 -7.5
v -1.5 6 -7.5
v -1.5 7 -7.5
v -1.5 10 -7.5
v -1.5 11 -7.5
v -1.5 12 -7.5
v -0.5 9 -7.5
v -0.5 10 -7.5
v 0.5 8 -7.5
v 0.5 9 -7.5
v 1.5 5 -7.5
v 1.5 6 -7.5
v 1.5 7 -7.5
v 1.5 8 -7.5
v 1.5 10 -7.5
v 1.5 11 -7.5
v 1.5 12 -7.5
v 2.5 6 -7.5
v 2.5 7 -7.5
v 2.5 8 -7.5
v 2.5 9 -7.5
v 2.5 10 -7.5
v 2.5 11 -7.5
v 3.5 7 -7.5
v 3.5 8 -7.5
v 3.5 9 -7.5
v 3.5 10 -7.5
v -1.5 5 -5.5
v 1.5 5 -5.5
v -1.5 5 -7.5
v 1.5 5 -7.5
v -1.5 6 -3.5
v 1.5 6 -3.5
v -1.5 6 -4.5
v -0.5 6 -4.5
v 0.5 6 -4.5
v 1.5 6 -4.5
v -2.5 6 -5.5
v -1.5 6 -5.5
v -0.5 6 -5.5
v 0.5 6 -5.5
v 1.5 6 -5.5
v 2.5 6 -5.5
v -2.5 6 -7.5
v -1.5 6 -7.5
v 1.5 6 -7.5
v 2.5 6 -7.5
v -1.5 7 7.5
v 1.5 7 7.5
v -1.5 7 -1.5
v 1.5 7 -1.5
v -2.5 7 -3.5
v -1.5 7 -3.5
v 1.5 7 -3.5
v 2.5 7 -3.5
v -2.5 7 -4.5
v -1.5 7 -4.5
v 1.5 7 -4.5
v 2.5 7 -4.5
v -3.5 7 -5.5
v -2.5 7 -5.5
v -1.5 7 -5.5
v 1.5 7 -5.5
v 2.5 7 -5.5
v 3.5 7 -5.5
v -3.5 7 -6.5
v -2.5 7 -6.5
v 2.5 7 -6.5
v 3.5 7 -6.5
v -3.5 7 -7.5
v -2.5 7 -7.5
v 2.5 7 -7.5
v 3.5 7 -7.5
v -1.5 10 7.5
v 1.5 10 7.5
v -1.5 10 0.5
v -0.5 10 0.5
v 0.5 10 0.5
v 1.5 10 0.5
v -1.5 10 -0.5
v -0.5 10 -0.5
v 0.5 10 -0.5
v 1.5 10 -0.5
v -1.5 10 -1.5
v -0.5 10 -1.5
v 0.5 10 -1.5
v 1.5 10 -1.5
v -0.5 10 -2.5
v 0.5 10 -2.5
v -2.5 10 -3.5
v -1.5 10 -3.5
v 1.5 10 -3.5
v 2.5 10 -3.5
v -2.5 10 -4.5
v -1.5 10 -4.5
v 1.5 10 -4.5
v 2.5 10 -4.5
v -3.5 10 -5.5
v -2.5 10 -5.5
v -1.5 10 -5.5
v 1.5 10 -5.5
v 2.5 10 -5.5
v 3.5 10 -5.5
v -3.5 10 -6.5
v -2.5 10 -6.5
v 2.5 10 -6.5
v 3.5 10 -6.5
v -3.5 10 -7.5
v -2.5 10 -7.5
v 2.5 10 -7.5
v 3.5 10 -7.5
v -1.5 11 -3.5
v 1.5 11 -3.5
v -1.5 11 -4.5
v -0.5 11 -4.5
v 0.5 11 -4.5
v 1.5 11 -4.5
v -2.5 11 -5.5
v -1.5 11 -5.5
v -0.5 11 -5.5
v 0.5 11 -5.5
v 1.5 11 -5.5
v 2.5 11 -5.5
v -2.5 11 -6.5
v -1.5 11 -6.5
v 1.5 11 -6.5
v 2.5 11 -6.5
v -2.5 11 -7.5
v -1.5 11 -7.5
v 1.5 11 -7.5
v 2.5 11 -7.5
v -1.5 12 -5.5
v 1.5 12 -5.5
v -1.5 12 -6.5
v 1.5 12 -6.5
v -1.5 12 -7.5
v 1.5 12 -7.5

# faces
f 4/6/1 2/6/1 1/6/1
f 4/7/1 3/7/1 2/7/1
f 5/7/1 3/7/1 4/7/1
f 6/6/1 4/6/1 1/6/1
f 6/6/1 5/6/1 4/6/1
f 7/6/1 5/6/1 6/6/1
f 8/6/1 6/6/1 1/6/1
f 9/7/1 7/7/1 6/7/1
f 9/6/1 6/6/1 8/6/1
f 10/7/1 7/7/1 9/7/1
f 15/6/1 12/6/1 11/6/1
f 16/6/1 12/6/1 15/6/1
f 17/6/1 12/6/1 16/6/1
f 18/5/1 14/5/1 13/5/1
f 18/6/1 15/6/1 14/6/1
f 19/6/1 15/6/1 18/6/1
f 20/5/1 18/5/1 13/5/1
f 20/5/1 19/5/1 18/5/1
f 21/5/1 19/5/1 20/5/1
f 22/5/1 20/5/1 13/5/1
f 23/6/1 21/6/1 20/6/1
f 23/5/1 20/5/1 22/5/1
f 24/6/1 21/6/1 23/6/1
f 27/6/1 25/6/1 24/6/1
f 28/7/1 26/7/1 25/7/1
f 28/6/1 25/6/1 27/6/1
f 29/7/1 26/7/1 28/7/1
f 34/6/1 31/6/1 30/6/1
f 35/6/1 31/6/1 34/6/1
f 38/5/1 33/5/1 32/5/1
f 39/6/1 34/6/1 33/6/1
f 39/5/1 33/5/1 38/5/1
f 40/6/1 34/6/1 39/6/1
f 41/4/1 38/4/1 37/4/1
f 42/4/1 38/4/1 41/4/1
f 43/6/1 37/6/1 36/6/1
f 44/6/1 37/6/1 43/6/1
f 45/4/1 41/4/1 37/4/1
f 45/6/1 37/6/1 44/6/1
f 46/5/1 42/5/1 41/5/1
f 46/4/1 41/4/1 45/4/1
f 47/6/1 43/6/1 36/6/1
f 48/5/1 44/5/1 43/5/1
f 48/6/1 43/6/1 47/6/1
f 49/6/1 45/6/1 44/6/1
f 49/5/1 44/5/1 48/5/1
f 50/5/1 46/5/1 45/5/1
f 50/6/1 45/6/1 49/6/1
f 51/5/1 42/5/1 46/5/1
f 51/5/1 46/5/1 50/5/1
f 54/5/1 52/5/1 51/5/1
f 55/6/1 53/6/1 52/6/1
f 55/5/1 52/5/1 54/5/1
f 56/6/1 53/6/1 55/6/1
f 59/6/1 57/6/1 56/6/1
f 60/7/1 58/7/1 57/7/1
f 60/6/1 57/6/1 59/6/1
f 61/7/1 58/7/1 60/7/1
f 62/6/2 63/6/2 66/6/2
f 66/6/2 63/6/2 67/6/2
f 64/5/2 65/5/2 70/5/2
f 65/6/2 66/6/2 71/6/2
f 70/5/2 65/5/2 71/5/2
f 71/6/2 66/6/2 72/6/2
f 69/4/2 70/4/2 73/4/2
f 73/4/2 70/4/2 74/4/2
f 68/6/2 69/6/2 75/6/2
f 75/6/2 69/6/2 76/6/2
f 69/4/2 73/4/2 77/4/2
f 76/6/2 69/6/2 77/6/2
f 73/5/2 74/5/2 78/5/2
f 77/4/2 73/4/2 78/4/2
f 68/6/2 75/6/2 79/6/2
f 75/5/2 76/5/2 80/5/2
f 79/6/2 75/6/2 80/6/2
f 76/6/2 77/6/2 81/6/2
f 80/5/2 76/5/2 81/5/2
f 77/5/2 78/5/2 82/5/2
f 81/6/2 77/6/2 82/6/2
f 78/5/2 74/5/2 83/5/2
f 82/5/2 78/5/2 83/5/2
f 83/5/2 84/5/2 86/5/2
f 84/6/2 85/6/2 87/6/2
f 86/5/2 84/5/2 87/5/2
f 87/6/2 85/6/2 88/6/2
f 88/6/2 89/6/2 91/6/2
f 89/7/2 90/7/2 92/7/2
f 91/6/2 89/6/2 92/6/2
f 92/7/2 90/7/2 93/7/2
f 94/6/2 95/6/2 98/6/2
f 98/6/2 95/6/2 99/6/2
f 99/6/2 95/6/2 100/6/2
f 96/5/2 97/5/2 101/5/2
f 97/6/2 98/6/2 101/6/2
f 101/6/2 98/6/2 102/6/2
f 96/5/2 101/5/2 103/5/2
f 101/5/2 102/5/2 103/5/2
f 103/5/2 102/5/2 104/5/2
f 96/5/2 103/5/2 105/5/2
f 103/6/2 104/6/2 106/6/2
f 105/5/2 103/5/2 106/5/2
f 106/6/2 104/6/2 107/6/2
f 107/6/2 108/6/2 110/6/2
f 108/7/2 109/7/2 111/7/2
f 110/6/2 108/6/2 111/6/2
f 111/7/2 109/7/2 112/7/2
f 113/6/2 114/6/2 116/6/2
f 114/7/2 115/7/2 116/7/2
f 116/7/2 115/7/2 117/7/2
f 113/6/2 116/6/2 118/6/2
f 116/6/2 117/6/2 118/6/2
f 118/6/2 117/6/2 119/6/2
f 113/6/2 118/6/2 120/6/2
f 118/7/2 119/7/2 121/7/2
f 120/6/2 118/6/2 121/6/2
f 121/7/2 119/7/2 122/7/2
f 125/6/3 124/6/3 123/6/3
f 126/6/3 124/6/3 125/6/3
f 130/5/3 128/5/3 127/5/3
f 131/5/3 128/5/3 130/5/3
f 132/5/3 128/5/3 131/5/3
f 134/5/3 130/5/3 129/5/3
f 135/5/3 130/5/3 134/5/3
f 137/5/3 133/5/3 132/5/3
f 138/5/3 133/5/3 137/5/3
f 139/5/3 136/5/3 135/5/3
f 139/5/3 137/5/3 136/5/3
f 140/5/3 137/5/3 139/5/3
f 144/6/3 142/6/3 141/6/3
f 145/6/3 142/6/3 144/6/3
f 146/6/3 142/6/3 145/6/3
f 147/6/3 142/6/3 146/6/3
f 150/6/3 144/6/3 143/6/3
f 151/6/3 144/6/3 150/6/3
f 152/6/3 148/6/3 147/6/3
f 153/6/3 148/6/3 152/6/3
f 155/6/3 150/6/3 149/6/3
f 156/6/3 154/6/3 153/6/3
f 157/6/3 155/6/3 149/6/3
f 158/6/3 154/6/3 156/6/3
f 159/6/3 157/6/3 149/6/3
f 160/6/3 157/6/3 159/6/3
f 163/6/3 154/6/3 158/6/3
f 164/6/3 154/6/3 163/6/3
f 165/6/3 161/6/3 160/6/3
f 166/6/3 161/6/3 165/6/3
f 169/6/3 163/6/3 162/6/3
f 170/6/3 163/6/3 169/6/3
f 171/6/3 168/6/3 167/6/3
f 171/6/3 169/6/3 168/6/3
f 171/6/3 167/6/3 166/6/3
f 172/6/3 169/6/3 171/6/3
f 173/7/4 174/7/4 178/7/4
f 174/6/4 175/6/4 179/6/4
f 178/7/4 174/7/4 179/7/4
f 175/7/4 176/7/4 180/7/4
f 179/6/4 175/6/4 180/6/4
f 180/7/4 176/7/4 181/7/4
f 177/6/4 178/6/4 184/6/4
f 178/3/4 179/3/4 185/3/4
f 179/3/4 180/3/4 185/3/4
f 184/6/4 178/6/4 185/6/4
f 180/3/4 181/3/4 185/3/4
f 181/7/4 182/7/4 186/7/4
f 185/3/4 181/3/4 186/3/4
f 186/7/4 182/7/4 187/7/4
f 185/2/4 186/2/4 189/2/4
f 186/3/4 187/3/4 190/3/4
f 189/2/4 186/2/4 190/2/4
f 185/2/4 189/2/4 191/2/4
f 189/1/4 190/1/4 192/1/4
f 191/2/4 189/2/4 192/2/4
f 183/6/4 184/6/4 193/6/4
f 184/3/4 185/3/4 194/3/4
f 193/6/4 184/6/4 194/6/4
f 185/2/4 191/2/4 195/2/4
f 194/3/4 185/3/4 195/3/4
f 191/1/4 192/1/4 196/1/4
f 195/2/4 191/2/4 196/2/4
f 192/1/4 190/1/4 197/1/4
f 196/1/4 192/1/4 197/1/4
f 190/3/4 187/3/4 197/3/4
f 187/7/4 188/7/4 198/7/4
f 197/3/4 187/3/4 198/3/4
f 198/7/4 188/7/4 199/7/4
f 194/6/4 195/6/4 200/6/4
f 195/3/4 196/3/4 201/3/4
f 200/6/4 195/6/4 201/6/4
f 196/3/4 197/3/4 201/3/4
f 201/3/4 197/3/4 202/3/4
f 202/3/4 197/3/4 203/3/4
f 197/7/4 198/7/4 204/7/4
f 203/3/4 197/3/4 204/3/4
f 204/7/4 198/7/4 205/7/4
f 201/7/4 202/7/4 206/7/4
f 202/6/4 203/6/4 207/6/4
f 206/7/4 202/7/4 207/7/4
f 203/7/4 204/7/4 208/7/4
f 207/6/4 203/6/4 208/6/4
f 208/7/4 204/7/4 209/7/4
f 212/6/5 211/6/5 210/6/5
f 213/6/5 211/6/5 212/6/5
f 216/5/5 215/5/5 214/5/5
f 217/5/5 215/5/5 216/5/5
f 218/5/5 215/5/5 217/5/5
f 219/5/5 215/5/5 218/5/5
f 221/6/5 217/6/5 216/6/5
f 222/5/5 218/5/5 217/5/5
f 222/6/5 217/6/5 221/6/5
f 223/6/5 219/6/5 218/6/5
f 223/5/5 218/5/5 222/5/5
f 224/6/5 219/6/5 223/6/5
f 226/6/5 221/6/5 220/6/5
f 227/6/5 221/6/5 226/6/5
f 228/6/5 225/6/5 224/6/5
f 229/6/5 225/6/5 228/6/5
f 232/6/5 231/6/5 230/6/5
f 233/6/5 231/6/5 232/6/5
f 235/4/5 233/4/5 232/4/5
f 236/4/5 233/4/5 235/4/5
f 238/5/5 235/5/5 234/5/5
f 239/5/5 235/5/5 238/5/5
f 240/5/5 237/5/5 236/5/5
f 241/5/5 237/5/5 240/5/5
f 243/6/5 239/6/5 238/6/5
f 244/6/5 239/6/5 243/6/5
f 245/6/5 241/6/5 240/6/5
f 246/6/5 241/6/5 245/6/5
f 248/6/5 243/6/5 242/6/5
f 249/6/5 243/6/5 248/6/5
f 250/6/5 247/6/5 246/6/5
f 251/6/5 247/6/5 250/6/5
f 252/7/5 249/7/5 248/7/5
f 253/7/5 249/7/5 252/7/5
f 254/7/5 251/7/5 250/7/5
f 255/7/5 251/7/5 254/7/5
f 256/6/6 257/6/6 258/6/6
f 258/6/6 257/6/6 259/6/6
f 259/6/6 257/6/6 260/6/6
f 260/6/6 257/6/6 261/6/6
f 258/5/6 259/5/6 262/5/6
f 259/6/6 260/6/6 263/6/6
f 262/5/6 259/5/6 263/5/6
f 260/5/6 261/5/6 264/5/6
f 263/6/6 260/6/6 264/6/6
f 264/5/6 261/5/6 265/5/6
f 262/6/6 263/6/6 266/6/6
f 263/6/6 264/6/6 266/6/6
f 264/6/6 265/6/6 266/6/6
f 266/6/6 265/6/6 267/6/6
f 267/6/6 265/6/6 268/6/6
f 268/6/6 265/6/6 269/6/6
f 266/5/6 267/5/6 270/5/6
f 267/4/6 268/4/6 270/4/6
f 268/5/6 269/5/6 271/5/6
f 270/4/6 268/4/6 271/4/6
f 266/5/6 270/5/6 273/5/6
f 270/5/6 271/5/6 273/5/6
f 271/5/6 269/5/6 274/5/6
f 273/5/6 271/5/6 274/5/6
f 272/5/6 273/5/6 276/5/6
f 276/5/6 273/5/6 277/5/6
f 274/5/6 275/5/6 278/5/6
f 278/5/6 275/5/6 279/5/6
f 276/6/6 277/6/6 281/6/6
f 281/6/6 277/6/6 282/6/6
f 278/6/6 279/6/6 283/6/6
f 283/6/6 279/6/6 284/6/6
f 280/6/6 281/6/6 286/6/6
f 286/6/6 281/6/6 287/6/6
f 284/6/6 285/6/6 288/6/6
f 288/6/6 285/6/6 289/6/6
f 286/7/6 287/7/6 290/7/6
f 290/7/6 287/7/6 291/7/6
f 288/7/6 289/7/6 292/7/6
f 292/7/6 289/7/6 293/7/6
f 294/5/6 295/5/6 296/5/6
f 296/5/6 295/5/6 297/5/6
f 297/5/6 295/5/6 298/5/6
f 298/5/6 295/5/6 299/5/6
f 296/6/6 297/6/6 301/6/6
f 297/5/6 298/5/6 302/5/6
f 301/6/6 297/6/6 302/6/6
f 298/6/6 299/6/6 303/6/6
f 302/5/6 298/5/6 303/5/6
f 303/6/6 299/6/6 304/6/6
f 300/6/6 301/6/6 306/6/6
f 306/6/6 301/6/6 307/6/6
f 304/6/6 305/6/6 308/6/6
f 308/6/6 305/6/6 309/6/6
f 306/7/6 307/7/6 310/7/6
f 310/7/6 307/7/6 311/7/6
f 308/7/6 309/7/6 312/7/6
f 312/7/6 309/7/6 313/7/6
f 314/6/6 315/6/6 316/6/6
f 316/6/6 315/6/6 317/6/6
f 316/7/6 317/7/6 318/7/6
f 318/7/6 317/7/6 319/7/6
