# MagicaVoxel @ Ephtracy

# group
g Hook

# material
mtllib Hook.mtl
usemtl palette

# normals
vn -1 0 0
vn 1 0 0
vn 0 0 1
vn 0 0 -1
vn 0 -1 0
vn 0 1 0

# texcoords
vt 0.978516 0.5
vt 0.982422 0.5
vt 0.990234 0.5

# verts
v -5.5 1 1
v -5.5 1 -1
v -5.5 2 1
v -5.5 2 -1
v -4.5 1 2
v -4.5 1 1
v -4.5 1 -1
v -4.5 1 -2
v -4.5 2 2
v -4.5 2 1
v -4.5 2 -1
v -4.5 2 -2
v -3.5 1 3
v -3.5 1 2
v -3.5 1 -2
v -3.5 1 -3
v -3.5 2 3
v -3.5 2 2
v -3.5 2 -2
v -3.5 2 -3
v -1.5 0 3
v -1.5 0 2
v -1.5 1 3
v -1.5 1 2
v -1.5 2 3
v -1.5 2 2
v -1.5 3 3
v -1.5 3 2
v -0.5 0 2
v -0.5 0 1
v -0.5 1 2
v -0.5 1 1
v -0.5 2 2
v -0.5 2 1
v -0.5 3 2
v -0.5 3 1
v 0.5 0 1
v 0.5 0 -0
v 0.5 1 1
v 0.5 1 -0
v 0.5 2 1
v 0.5 2 -0
v 0.5 3 1
v 0.5 3 -0
v 2.5 0 2
v 2.5 0 1
v 2.5 0 -0
v 2.5 0 -1
v 2.5 1 2
v 2.5 1 1
v 2.5 1 -0
v 2.5 1 -1
v 2.5 2 2
v 2.5 2 1
v 2.5 2 -0
v 2.5 2 -1
v 2.5 3 2
v 2.5 3 1
v 2.5 3 -0
v 2.5 3 -1
v 4.5 1 1
v 4.5 1 -0
v 4.5 2 1
v 4.5 2 -0
v -4.5 1 1
v -4.5 1 -1
v -4.5 2 1
v -4.5 2 -1
v -3.5 1 2
v -3.5 1 1
v -3.5 1 -1
v -3.5 1 -2
v -3.5 2 2
v -3.5 2 1
v -3.5 2 -1
v -3.5 2 -2
v -1.5 1 -2
v -1.5 1 -3
v -1.5 2 -2
v -1.5 2 -3
v 0.5 0 3
v 0.5 0 2
v 0.5 1 3
v 0.5 1 2
v 0.5 2 3
v 0.5 2 2
v 0.5 3 3
v 0.5 3 2
v 1.5 0 2
v 1.5 0 1
v 1.5 1 2
v 1.5 1 1
v 1.5 2 2
v 1.5 2 1
v 1.5 3 2
v 1.5 3 1
v 3.5 0 1
v 3.5 0 -0
v 3.5 1 1
v 3.5 1 -0
v 3.5 2 1
v 3.5 2 -0
v 3.5 3 1
v 3.5 3 -0
v 4.5 0 2
v 4.5 0 1
v 4.5 0 -0
v 4.5 0 -1
v 4.5 1 2
v 4.5 1 1
v 4.5 1 -0
v 4.5 1 -1
v 4.5 2 2
v 4.5 2 1
v 4.5 2 -0
v 4.5 2 -1
v 4.5 3 2
v 4.5 3 1
v 4.5 3 -0
v 4.5 3 -1
v 5.5 1 1
v 5.5 1 -0
v 5.5 2 1
v 5.5 2 -0
v -3.5 1 3
v -3.5 2 3
v -1.5 0 3
v -1.5 1 3
v -1.5 2 3
v -1.5 3 3
v 0.5 0 3
v 0.5 1 3
v 0.5 2 3
v 0.5 3 3
v -4.5 1 2
v -4.5 2 2
v -3.5 1 2
v -3.5 2 2
v 0.5 0 2
v 0.5 1 2
v 0.5 2 2
v 0.5 3 2
v 1.5 0 2
v 1.5 1 2
v 1.5 2 2
v 1.5 3 2
v 2.5 0 2
v 2.5 1 2
v 2.5 2 2
v 2.5 3 2
v 4.5 0 2
v 4.5 1 2
v 4.5 2 2
v 4.5 3 2
v -5.5 1 1
v -5.5 2 1
v -4.5 1 1
v -4.5 2 1
v 1.5 0 1
v 1.5 1 1
v 1.5 2 1
v 1.5 3 1
v 2.5 0 1
v 2.5 1 1
v 2.5 2 1
v 2.5 3 1
v 4.5 1 1
v 4.5 2 1
v 5.5 1 1
v 5.5 2 1
v 3.5 0 -0
v 3.5 1 -0
v 3.5 2 -0
v 3.5 3 -0
v 4.5 0 -0
v 4.5 1 -0
v 4.5 2 -0
v 4.5 3 -0
v -4.5 1 -1
v -4.5 2 -1
v -3.5 1 -1
v -3.5 2 -1
v -3.5 1 -2
v -3.5 2 -2
v -1.5 1 -2
v -1.5 2 -2
v -3.5 1 2
v -3.5 2 2
v -1.5 0 2
v -1.5 1 2
v -1.5 2 2
v -1.5 3 2
v -0.5 0 2
v -0.5 1 2
v -0.5 2 2
v -0.5 3 2
v -4.5 1 1
v -4.5 2 1
v -3.5 1 1
v -3.5 2 1
v -0.5 0 1
v -0.5 1 1
v -0.5 2 1
v -0.5 3 1
v 0.5 0 1
v 0.5 1 1
v 0.5 2 1
v 0.5 3 1
v 3.5 0 1
v 3.5 1 1
v 3.5 2 1
v 3.5 3 1
v 4.5 0 1
v 4.5 1 1
v 4.5 2 1
v 4.5 3 1
v 0.5 0 -0
v 0.5 1 -0
v 0.5 2 -0
v 0.5 3 -0
v 1.5 0 -0
v 1.5 1 -0
v 1.5 2 -0
v 1.5 3 -0
v 2.5 0 -0
v 2.5 1 -0
v 2.5 2 -0
v 2.5 3 -0
v 4.5 1 -0
v 4.5 2 -0
v 5.5 1 -0
v 5.5 2 -0
v -5.5 1 -1
v -5.5 2 -1
v -4.5 1 -1
v -4.5 2 -1
v 2.5 0 -1
v 2.5 1 -1
v 2.5 2 -1
v 2.5 3 -1
v 4.5 0 -1
v 4.5 1 -1
v 4.5 2 -1
v 4.5 3 -1
v -4.5 1 -2
v -4.5 2 -2
v -3.5 1 -2
v -3.5 2 -2
v -3.5 1 -3
v -3.5 2 -3
v -1.5 1 -3
v -1.5 2 -3
v -1.5 0 3
v 0.5 0 3
v -1.5 0 2
v -0.5 0 2
v 0.5 0 2
v 1.5 0 2
v 2.5 0 2
v 4.5 0 2
v -0.5 0 1
v 0.5 0 1
v 1.5 0 1
v 2.5 0 1
v 3.5 0 1
v 4.5 0 1
v 0.5 0 -0
v 1.5 0 -0
v 2.5 0 -0
v 3.5 0 -0
v 4.5 0 -0
v 2.5 0 -1
v 4.5 0 -1
v -3.5 1 3
v -1.5 1 3
v -4.5 1 2
v -3.5 1 2
v -1.5 1 2
v -5.5 1 1
v -4.5 1 1
v -3.5 1 1
v 4.5 1 1
v 5.5 1 1
v 4.5 1 -0
v 5.5 1 -0
v -5.5 1 -1
v -4.5 1 -1
v -3.5 1 -1
v -4.5 1 -2
v -3.5 1 -2
v -1.5 1 -2
v -3.5 1 -3
v -1.5 1 -3
v -3.5 2 3
v -1.5 2 3
v -4.5 2 2
v -3.5 2 2
v -1.5 2 2
v -5.5 2 1
v -4.5 2 1
v -3.5 2 1
v 4.5 2 1
v 5.5 2 1
v 4.5 2 -0
v 5.5 2 -0
v -5.5 2 -1
v -4.5 2 -1
v -3.5 2 -1
v -4.5 2 -2
v -3.5 2 -2
v -1.5 2 -2
v -3.5 2 -3
v -1.5 2 -3
v -1.5 3 3
v 0.5 3 3
v -1.5 3 2
v -0.5 3 2
v 0.5 3 2
v 1.5 3 2
v 2.5 3 2
v 4.5 3 2
v -0.5 3 1
v 0.5 3 1
v 1.5 3 1
v 2.5 3 1
v 3.5 3 1
v 4.5 3 1
v 0.5 3 -0
v 1.5 3 -0
v 2.5 3 -0
v 3.5 3 -0
v 4.5 3 -0
v 2.5 3 -1
v 4.5 3 -1

# faces
f 3/3/1 2/3/1 1/3/1
f 4/3/1 2/3/1 3/3/1
f 9/3/1 6/3/1 5/3/1
f 10/3/1 6/3/1 9/3/1
f 11/3/1 8/3/1 7/3/1
f 12/3/1 8/3/1 11/3/1
f 17/3/1 14/3/1 13/3/1
f 18/3/1 14/3/1 17/3/1
f 19/3/1 16/3/1 15/3/1
f 20/3/1 16/3/1 19/3/1
f 23/2/1 22/2/1 21/2/1
f 24/2/1 22/2/1 23/2/1
f 27/2/1 26/2/1 25/2/1
f 28/2/1 26/2/1 27/2/1
f 31/2/1 30/2/1 29/2/1
f 32/2/1 30/2/1 31/2/1
f 33/3/1 32/3/1 31/3/1
f 34/3/1 32/3/1 33/3/1
f 35/2/1 34/2/1 33/2/1
f 36/2/1 34/2/1 35/2/1
f 39/2/1 38/2/1 37/2/1
f 40/2/1 38/2/1 39/2/1
f 41/3/1 40/3/1 39/3/1
f 42/3/1 40/3/1 41/3/1
f 43/2/1 42/2/1 41/2/1
f 44/2/1 42/2/1 43/2/1
f 49/1/1 46/1/1 45/1/1
f 50/1/1 46/1/1 49/1/1
f 51/1/1 48/1/1 47/1/1
f 52/1/1 48/1/1 51/1/1
f 53/3/1 50/3/1 49/3/1
f 54/3/1 50/3/1 53/3/1
f 55/3/1 52/3/1 51/3/1
f 56/3/1 52/3/1 55/3/1
f 57/1/1 54/1/1 53/1/1
f 58/1/1 54/1/1 57/1/1
f 59/1/1 56/1/1 55/1/1
f 60/1/1 56/1/1 59/1/1
f 63/3/1 62/3/1 61/3/1
f 64/3/1 62/3/1 63/3/1
f 65/3/2 66/3/2 67/3/2
f 67/3/2 66/3/2 68/3/2
f 69/3/2 70/3/2 73/3/2
f 73/3/2 70/3/2 74/3/2
f 71/3/2 72/3/2 75/3/2
f 75/3/2 72/3/2 76/3/2
f 77/3/2 78/3/2 79/3/2
f 79/3/2 78/3/2 80/3/2
f 81/2/2 82/2/2 83/2/2
f 83/2/2 82/2/2 84/2/2
f 83/3/2 84/3/2 85/3/2
f 85/3/2 84/3/2 86/3/2
f 85/2/2 86/2/2 87/2/2
f 87/2/2 86/2/2 88/2/2
f 89/2/2 90/2/2 91/2/2
f 91/2/2 90/2/2 92/2/2
f 91/3/2 92/3/2 93/3/2
f 93/3/2 92/3/2 94/3/2
f 93/2/2 94/2/2 95/2/2
f 95/2/2 94/2/2 96/2/2
f 97/2/2 98/2/2 99/2/2
f 99/2/2 98/2/2 100/2/2
f 99/3/2 100/3/2 101/3/2
f 101/3/2 100/3/2 102/3/2
f 101/2/2 102/2/2 103/2/2
f 103/2/2 102/2/2 104/2/2
f 105/1/2 106/1/2 109/1/2
f 109/1/2 106/1/2 110/1/2
f 107/1/2 108/1/2 111/1/2
f 111/1/2 108/1/2 112/1/2
f 109/3/2 110/3/2 113/3/2
f 113/3/2 110/3/2 114/3/2
f 111/3/2 112/3/2 115/3/2
f 115/3/2 112/3/2 116/3/2
f 113/1/2 114/1/2 117/1/2
f 117/1/2 114/1/2 118/1/2
f 115/1/2 116/1/2 119/1/2
f 119/1/2 116/1/2 120/1/2
f 121/3/2 122/3/2 123/3/2
f 123/3/2 122/3/2 124/3/2
f 128/3/3 126/3/3 125/3/3
f 129/3/3 126/3/3 128/3/3
f 131/2/3 128/2/3 127/2/3
f 132/3/3 129/3/3 128/3/3
f 132/2/3 128/2/3 131/2/3
f 133/2/3 130/2/3 129/2/3
f 133/3/3 129/3/3 132/3/3
f 134/2/3 130/2/3 133/2/3
f 137/3/3 136/3/3 135/3/3
f 138/3/3 136/3/3 137/3/3
f 143/2/3 140/2/3 139/2/3
f 144/3/3 141/3/3 140/3/3
f 144/2/3 140/2/3 143/2/3
f 145/2/3 142/2/3 141/2/3
f 145/3/3 141/3/3 144/3/3
f 146/2/3 142/2/3 145/2/3
f 151/1/3 148/1/3 147/1/3
f 152/3/3 149/3/3 148/3/3
f 152/1/3 148/1/3 151/1/3
f 153/1/3 150/1/3 149/1/3
f 153/3/3 149/3/3 152/3/3
f 154/1/3 150/1/3 153/1/3
f 157/3/3 156/3/3 155/3/3
f 158/3/3 156/3/3 157/3/3
f 163/1/3 160/1/3 159/1/3
f 164/3/3 161/3/3 160/3/3
f 164/1/3 160/1/3 163/1/3
f 165/1/3 162/1/3 161/1/3
f 165/3/3 161/3/3 164/3/3
f 166/1/3 162/1/3 165/1/3
f 169/3/3 168/3/3 167/3/3
f 170/3/3 168/3/3 169/3/3
f 175/1/3 172/1/3 171/1/3
f 176/3/3 173/3/3 172/3/3
f 176/1/3 172/1/3 175/1/3
f 177/1/3 174/1/3 173/1/3
f 177/3/3 173/3/3 176/3/3
f 178/1/3 174/1/3 177/1/3
f 181/3/3 180/3/3 179/3/3
f 182/3/3 180/3/3 181/3/3
f 185/3/3 184/3/3 183/3/3
f 186/3/3 184/3/3 185/3/3
f 187/3/4 188/3/4 190/3/4
f 190/3/4 188/3/4 191/3/4
f 189/2/4 190/2/4 193/2/4
f 190/3/4 191/3/4 194/3/4
f 193/2/4 190/2/4 194/2/4
f 191/2/4 192/2/4 195/2/4
f 194/3/4 191/3/4 195/3/4
f 195/2/4 192/2/4 196/2/4
f 197/3/4 198/3/4 199/3/4
f 199/3/4 198/3/4 200/3/4
f 201/2/4 202/2/4 205/2/4
f 202/3/4 203/3/4 206/3/4
f 205/2/4 202/2/4 206/2/4
f 203/2/4 204/2/4 207/2/4
f 206/3/4 203/3/4 207/3/4
f 207/2/4 204/2/4 208/2/4
f 209/1/4 210/1/4 213/1/4
f 210/3/4 211/3/4 214/3/4
f 213/1/4 210/1/4 214/1/4
f 211/1/4 212/1/4 215/1/4
f 214/3/4 211/3/4 215/3/4
f 215/1/4 212/1/4 216/1/4
f 217/2/4 218/2/4 221/2/4
f 218/3/4 219/3/4 222/3/4
f 221/2/4 218/2/4 222/2/4
f 219/2/4 220/2/4 223/2/4
f 222/3/4 219/3/4 223/3/4
f 223/2/4 220/2/4 224/2/4
f 221/1/4 222/1/4 225/1/4
f 222/3/4 223/3/4 226/3/4
f 225/1/4 222/1/4 226/1/4
f 223/1/4 224/1/4 227/1/4
f 226/3/4 223/3/4 227/3/4
f 227/1/4 224/1/4 228/1/4
f 229/3/4 230/3/4 231/3/4
f 231/3/4 230/3/4 232/3/4
f 233/3/4 234/3/4 235/3/4
f 235/3/4 234/3/4 236/3/4
f 237/1/4 238/1/4 241/1/4
f 238/3/4 239/3/4 242/3/4
f 241/1/4 238/1/4 242/1/4
f 239/1/4 240/1/4 243/1/4
f 242/3/4 239/3/4 243/3/4
f 243/1/4 240/1/4 244/1/4
f 245/3/4 246/3/4 247/3/4
f 247/3/4 246/3/4 248/3/4
f 249/3/4 250/3/4 251/3/4
f 251/3/4 250/3/4 252/3/4
f 255/2/5 254/2/5 253/2/5
f 256/2/5 254/2/5 255/2/5
f 257/2/5 254/2/5 256/2/5
f 261/2/5 257/2/5 256/2/5
f 261/2/5 258/2/5 257/2/5
f 262/2/5 258/2/5 261/2/5
f 263/2/5 258/2/5 262/2/5
f 264/1/5 260/1/5 259/1/5
f 265/1/5 260/1/5 264/1/5
f 266/1/5 260/1/5 265/1/5
f 267/2/5 263/2/5 262/2/5
f 268/1/5 264/1/5 263/1/5
f 268/2/5 263/2/5 267/2/5
f 269/2/5 265/2/5 264/2/5
f 269/1/5 264/1/5 268/1/5
f 270/2/5 265/2/5 269/2/5
f 272/1/5 271/1/5 270/1/5
f 272/1/5 270/1/5 269/1/5
f 273/1/5 271/1/5 272/1/5
f 277/3/5 275/3/5 274/3/5
f 278/3/5 275/3/5 277/3/5
f 280/3/5 277/3/5 276/3/5
f 281/3/5 277/3/5 280/3/5
f 284/3/5 283/3/5 282/3/5
f 285/3/5 283/3/5 284/3/5
f 286/3/5 280/3/5 279/3/5
f 287/3/5 280/3/5 286/3/5
f 289/3/5 288/3/5 287/3/5
f 290/3/5 288/3/5 289/3/5
f 292/3/5 291/3/5 290/3/5
f 293/3/5 291/3/5 292/3/5
f 294/3/6 295/3/6 297/3/6
f 297/3/6 295/3/6 298/3/6
f 296/3/6 297/3/6 300/3/6
f 300/3/6 297/3/6 301/3/6
f 302/3/6 303/3/6 304/3/6
f 304/3/6 303/3/6 305/3/6
f 299/3/6 300/3/6 306/3/6
f 306/3/6 300/3/6 307/3/6
f 307/3/6 308/3/6 309/3/6
f 309/3/6 308/3/6 310/3/6
f 310/3/6 311/3/6 312/3/6
f 312/3/6 311/3/6 313/3/6
f 314/2/6 315/2/6 316/2/6
f 316/2/6 315/2/6 317/2/6
f 317/2/6 315/2/6 318/2/6
f 317/2/6 318/2/6 322/2/6
f 318/2/6 319/2/6 322/2/6
f 322/2/6 319/2/6 323/2/6
f 323/2/6 319/2/6 324/2/6
f 320/1/6 321/1/6 325/1/6
f 325/1/6 321/1/6 326/1/6
f 326/1/6 321/1/6 327/1/6
f 323/2/6 324/2/6 328/2/6
f 324/1/6 325/1/6 329/1/6
f 328/2/6 324/2/6 329/2/6
f 325/2/6 326/2/6 330/2/6
f 329/1/6 325/1/6 330/1/6
f 330/2/6 326/2/6 331/2/6
f 331/1/6 332/1/6 333/1/6
f 330/1/6 331/1/6 333/1/6
f 333/1/6 332/1/6 334/1/6
